<svg version="1.1" viewBox="0.0 0.0 600.0 371.0" fill="none" stroke="none" stroke-linecap="square" stroke-miterlimit="10" width="600" height="371" xmlns:xlink="http://www.w3.org/1999/xlink" xmlns="http://www.w3.org/2000/svg"><path fill="#ffffff" d="M0 0L600.0 0L600.0 371.0L0 371.0L0 0Z" fill-rule="nonzero"/><path stroke="#333333" stroke-width="1.0" stroke-linecap="butt" d="M153.5 18.5L153.5 300.5" fill-rule="nonzero"/><path stroke="#cccccc" stroke-width="1.0" stroke-linecap="butt" d="M296.5 18.5L296.5 300.5" fill-rule="nonzero"/><path stroke="#cccccc" stroke-width="1.0" stroke-linecap="butt" d="M438.5 18.5L438.5 300.5" fill-rule="nonzero"/><path stroke="#cccccc" stroke-width="1.0" stroke-linecap="butt" d="M581.5 18.5L581.5 300.5" fill-rule="nonzero"/><clipPath id="id_0"><path d="M153.55 18.55L581.45 18.55L581.45 300.45L153.55 300.45L153.55 18.55Z" clip-rule="nonzero"/></clipPath><path stroke="#000000" stroke-width="2.0" stroke-linecap="butt" stroke-opacity="0.0" clip-path="url(#id_0)" d="M154.0 83.0L154.0 41.0L579.0 41.0C580.10455 41.0 581.0 41.89543 581.0 43.0L581.0 81.0C581.0 82.10457 580.10455 83.0 579.0 83.0Z" fill-rule="nonzero"/><path fill="#0072b2" clip-path="url(#id_0)" d="M154.0 83.0L154.0 41.0L579.0 41.0C580.10455 41.0 581.0 41.89543 581.0 43.0L581.0 81.0C581.0 82.10457 580.10455 83.0 579.0 83.0Z" fill-rule="nonzero"/><path stroke="#000000" stroke-width="2.0" stroke-linecap="butt" stroke-opacity="0.0" clip-path="url(#id_0)" d="M154.0 148.0L154.0 106.0L465.0 106.0C466.10458 106.0 467.0 106.89543 467.0 108.0L467.0 146.0C467.0 147.10457 466.10458 148.0 465.0 148.0Z" fill-rule="nonzero"/><path fill="#0072b2" clip-path="url(#id_0)" d="M154.0 148.0L154.0 106.0L465.0 106.0C466.10458 106.0 467.0 106.89543 467.0 108.0L467.0 146.0C467.0 147.10457 466.10458 148.0 465.0 148.0Z" fill-rule="nonzero"/><path stroke="#000000" stroke-width="2.0" stroke-linecap="butt" stroke-opacity="0.0" clip-path="url(#id_0)" d="M154.0 213.0L154.0 171.0L465.0 171.0C466.10458 171.0 467.0 171.89543 467.0 173.0L467.0 211.0C467.0 212.10457 466.10458 213.0 465.0 213.0Z" fill-rule="nonzero"/><path fill="#0072b2" clip-path="url(#id_0)" d="M154.0 213.0L154.0 171.0L465.0 171.0C466.10458 171.0 467.0 171.89543 467.0 173.0L467.0 211.0C467.0 212.10457 466.10458 213.0 465.0 213.0Z" fill-rule="nonzero"/><path stroke="#000000" stroke-width="2.0" stroke-linecap="butt" stroke-opacity="0.0" clip-path="url(#id_0)" d="M154.0 278.0L154.0 236.0L380.0 236.0C381.10458 236.0 382.0 236.89543 382.0 238.0L382.0 276.0C382.0 277.10458 381.10458 278.0 380.0 278.0Z" fill-rule="nonzero"/><path fill="#0072b2" clip-path="url(#id_0)" d="M154.0 278.0L154.0 236.0L380.0 236.0C381.10458 236.0 382.0 236.89543 382.0 238.0L382.0 276.0C382.0 277.10458 381.10458 278.0 380.0 278.0Z" fill-rule="nonzero"/><path stroke="#0072b2" stroke-width="3.0" stroke-linejoin="round" stroke-linecap="round" d="M566.91565 57.921875L566.91565 66.5L565.8375 66.5L565.8375 59.28125L563.65 60.078125L563.65 59.09375L566.7594 57.921875L566.91565 57.921875ZM571.72815 62.4375L570.8688 62.21875L571.29065 57.96875L575.66565 57.96875L575.66565 58.96875L572.2125 58.96875L571.9469 61.296875Q572.1813 61.15625 572.54065 61.046875Q572.91565 60.921875 573.3844 60.921875Q573.9625 60.921875 574.4313 61.125Q574.9 61.328125 575.22815 61.703125Q575.5719 62.078125 575.7438 62.609375Q575.91565 63.125 575.91565 63.78125Q575.91565 64.390625 575.7438 64.90625Q575.5875 65.421875 575.2438 65.8125Q574.91565 66.1875 574.4 66.40625Q573.9 66.625 573.2125 66.625Q572.6969 66.625 572.2438 66.484375Q571.79065 66.328125 571.41565 66.03125Q571.0563 65.734375 570.8375 65.296875Q570.6188 64.859375 570.5563 64.25L571.5875 64.25Q571.65 64.734375 571.85315 65.0625Q572.0719 65.390625 572.41565 65.5625Q572.7594 65.71875 573.2125 65.71875Q573.60315 65.71875 573.9 65.59375Q574.1969 65.453125 574.4 65.203125Q574.6188 64.953125 574.72815 64.59375Q574.8375 64.234375 574.8375 63.796875Q574.8375 63.390625 574.7125 63.046875Q574.60315 62.703125 574.3844 62.453125Q574.16565 62.1875 573.85315 62.046875Q573.54065 61.890625 573.1188 61.890625Q572.5875 61.890625 572.3063 62.046875Q572.025 62.1875 571.72815 62.4375Z" fill-rule="nonzero"/><path fill="#ffffff" d="M566.91565 57.921875L566.91565 66.5L565.8375 66.5L565.8375 59.28125L563.65 60.078125L563.65 59.09375L566.7594 57.921875L566.91565 57.921875ZM571.72815 62.4375L570.8688 62.21875L571.29065 57.96875L575.66565 57.96875L575.66565 58.96875L572.2125 58.96875L571.9469 61.296875Q572.1813 61.15625 572.54065 61.046875Q572.91565 60.921875 573.3844 60.921875Q573.9625 60.921875 574.4313 61.125Q574.9 61.328125 575.22815 61.703125Q575.5719 62.078125 575.7438 62.609375Q575.91565 63.125 575.91565 63.78125Q575.91565 64.390625 575.7438 64.90625Q575.5875 65.421875 575.2438 65.8125Q574.91565 66.1875 574.4 66.40625Q573.9 66.625 573.2125 66.625Q572.6969 66.625 572.2438 66.484375Q571.79065 66.328125 571.41565 66.03125Q571.0563 65.734375 570.8375 65.296875Q570.6188 64.859375 570.5563 64.25L571.5875 64.25Q571.65 64.734375 571.85315 65.0625Q572.0719 65.390625 572.41565 65.5625Q572.7594 65.71875 573.2125 65.71875Q573.60315 65.71875 573.9 65.59375Q574.1969 65.453125 574.4 65.203125Q574.6188 64.953125 574.72815 64.59375Q574.8375 64.234375 574.8375 63.796875Q574.8375 63.390625 574.7125 63.046875Q574.60315 62.703125 574.3844 62.453125Q574.16565 62.1875 573.85315 62.046875Q573.54065 61.890625 573.1188 61.890625Q572.5875 61.890625 572.3063 62.046875Q572.025 62.1875 571.72815 62.4375Z" fill-rule="nonzero"/><path stroke="#0072b2" stroke-width="3.0" stroke-linejoin="round" stroke-linecap="round" d="M452.80896 122.921875L452.80896 131.5L451.73083 131.5L451.73083 124.28125L449.54333 125.078125L449.54333 124.09375L452.6527 122.921875L452.80896 122.921875ZM459.80896 122.921875L459.80896 131.5L458.73083 131.5L458.73083 124.28125L456.54333 125.078125L456.54333 124.09375L459.6527 122.921875L459.80896 122.921875Z" fill-rule="nonzero"/><path fill="#ffffff" d="M452.80896 122.921875L452.80896 131.5L451.73083 131.5L451.73083 124.28125L449.54333 125.078125L449.54333 124.09375L452.6527 122.921875L452.80896 122.921875ZM459.80896 122.921875L459.80896 131.5L458.73083 131.5L458.73083 124.28125L456.54333 125.078125L456.54333 124.09375L459.6527 122.921875L459.80896 122.921875Z" fill-rule="nonzero"/><path stroke="#0072b2" stroke-width="3.0" stroke-linejoin="round" stroke-linecap="round" d="M452.80896 187.92188L452.80896 196.5L451.73083 196.5L451.73083 189.28125L449.54333 190.07812L449.54333 189.09375L452.6527 187.92188L452.80896 187.92188ZM459.80896 187.92188L459.80896 196.5L458.73083 196.5L458.73083 189.28125L456.54333 190.07812L456.54333 189.09375L459.6527 187.92188L459.80896 187.92188Z" fill-rule="nonzero"/><path fill="#ffffff" d="M452.80896 187.92188L452.80896 196.5L451.73083 196.5L451.73083 189.28125L449.54333 190.07812L449.54333 189.09375L452.6527 187.92188L452.80896 187.92188ZM459.80896 187.92188L459.80896 196.5L458.73083 196.5L458.73083 189.28125L456.54333 190.07812L456.54333 189.09375L459.6527 187.92188L459.80896 187.92188Z" fill-rule="nonzero"/><path stroke="#0072b2" stroke-width="3.0" stroke-linejoin="round" stroke-linecap="round" d="M376.0571 259.1875Q376.0571 259.96875 375.69772 260.51562Q375.33835 261.04688 374.71335 261.34375Q374.10397 261.625 373.33835 261.625Q372.57272 261.625 371.94772 261.34375Q371.33835 261.04688 370.97897 260.51562Q370.6196 259.96875 370.6196 259.1875Q370.6196 258.6875 370.82272 258.26562Q371.02585 257.82812 371.38522 257.51562Q371.7446 257.20312 372.22897 257.03125Q372.72897 256.85938 373.32272 256.85938Q374.1196 256.85938 374.72897 257.15625Q375.33835 257.45312 375.69772 257.98438Q376.0571 258.51562 376.0571 259.1875ZM374.96335 259.17188Q374.96335 258.6875 374.76022 258.32812Q374.5571 257.95312 374.1821 257.75Q373.8071 257.54688 373.32272 257.54688Q372.82272 257.54688 372.46335 257.75Q372.10397 257.95312 371.90085 258.32812Q371.71335 258.6875 371.71335 259.17188Q371.71335 259.65625 371.90085 260.01562Q372.10397 260.35938 372.46335 260.54688Q372.83835 260.71875 373.33835 260.71875Q373.83835 260.71875 374.19772 260.54688Q374.57272 260.35938 374.76022 260.01562Q374.96335 259.65625 374.96335 259.17188ZM375.85397 255.1875Q375.85397 255.8125 375.52585 256.3125Q375.19772 256.8125 374.6196 257.09375Q374.0571 257.375 373.33835 257.375Q372.60397 257.375 372.02585 257.09375Q371.46335 256.8125 371.13522 256.3125Q370.82272 255.8125 370.82272 255.1875Q370.82272 254.4375 371.13522 253.92188Q371.46335 253.40625 372.02585 253.125Q372.60397 252.84375 373.33835 252.84375Q374.07272 252.84375 374.63522 253.125Q375.19772 253.40625 375.52585 253.92188Q375.85397 254.4375 375.85397 255.1875ZM374.77585 255.20312Q374.77585 254.78125 374.58835 254.45312Q374.40085 254.125 374.07272 253.9375Q373.76022 253.73438 373.33835 253.73438Q372.90085 253.73438 372.57272 253.92188Q372.26022 254.09375 372.08835 254.42188Q371.91647 254.75 371.91647 255.20312Q371.91647 255.64062 372.08835 255.96875Q372.26022 256.29688 372.58835 256.48438Q372.91647 256.67188 373.33835 256.67188Q373.76022 256.67188 374.07272 256.48438Q374.40085 256.29688 374.58835 255.96875Q374.77585 255.64062 374.77585 255.20312Z" fill-rule="nonzero"/><path fill="#ffffff" d="M376.0571 259.1875Q376.0571 259.96875 375.69772 260.51562Q375.33835 261.04688 374.71335 261.34375Q374.10397 261.625 373.33835 261.625Q372.57272 261.625 371.94772 261.34375Q371.33835 261.04688 370.97897 260.51562Q370.6196 259.96875 370.6196 259.1875Q370.6196 258.6875 370.82272 258.26562Q371.02585 257.82812 371.38522 257.51562Q371.7446 257.20312 372.22897 257.03125Q372.72897 256.85938 373.32272 256.85938Q374.1196 256.85938 374.72897 257.15625Q375.33835 257.45312 375.69772 257.98438Q376.0571 258.51562 376.0571 259.1875ZM374.96335 259.17188Q374.96335 258.6875 374.76022 258.32812Q374.5571 257.95312 374.1821 257.75Q373.8071 257.54688 373.32272 257.54688Q372.82272 257.54688 372.46335 257.75Q372.10397 257.95312 371.90085 258.32812Q371.71335 258.6875 371.71335 259.17188Q371.71335 259.65625 371.90085 260.01562Q372.10397 260.35938 372.46335 260.54688Q372.83835 260.71875 373.33835 260.71875Q373.83835 260.71875 374.19772 260.54688Q374.57272 260.35938 374.76022 260.01562Q374.96335 259.65625 374.96335 259.17188ZM375.85397 255.1875Q375.85397 255.8125 375.52585 256.3125Q375.19772 256.8125 374.6196 257.09375Q374.0571 257.375 373.33835 257.375Q372.60397 257.375 372.02585 257.09375Q371.46335 256.8125 371.13522 256.3125Q370.82272 255.8125 370.82272 255.1875Q370.82272 254.4375 371.13522 253.92188Q371.46335 253.40625 372.02585 253.125Q372.60397 252.84375 373.33835 252.84375Q374.07272 252.84375 374.63522 253.125Q375.19772 253.40625 375.52585 253.92188Q375.85397 254.4375 375.85397 255.1875ZM374.77585 255.20312Q374.77585 254.78125 374.58835 254.45312Q374.40085 254.125 374.07272 253.9375Q373.76022 253.73438 373.33835 253.73438Q372.90085 253.73438 372.57272 253.92188Q372.26022 254.09375 372.08835 254.42188Q371.91647 254.75 371.91647 255.20312Q371.91647 255.64062 372.08835 255.96875Q372.26022 256.29688 372.58835 256.48438Q372.91647 256.67188 373.33835 256.67188Q373.76022 256.67188 374.07272 256.48438Q374.40085 256.29688 374.58835 255.96875Q374.77585 255.64062 374.77585 255.20312Z" fill-rule="nonzero"/><path fill="#000000" d="M297.48438 349.45L300.78125 340.85626L302.0 340.85626L305.51562 349.45L304.23438 349.45L303.21875 346.84064L299.64062 346.84064L298.6875 349.45L297.48438 349.45ZM299.96875 345.91876L302.875 345.91876L301.98438 343.54376Q301.5625 342.46564 301.375 341.7625Q301.20312 342.59064 300.90625 343.40314L299.96875 345.91876ZM307.01562 349.45L304.65625 343.23126L305.76562 343.23126L307.10938 346.95Q307.3125 347.5594 307.5 348.2Q307.64062 347.71564 307.89062 347.02814L309.28125 343.23126L310.35938 343.23126L308.0 349.45L307.01562 349.45ZM314.54688 347.45L315.64062 347.575Q315.39062 348.52814 314.6875 349.0594Q313.98438 349.59064 312.90625 349.59064Q311.54688 349.59064 310.73438 348.7469Q309.9375 347.90314 309.9375 346.3875Q309.9375 344.825 310.75 343.96564Q311.5625 343.09064 312.84375 343.09064Q314.09375 343.09064 314.875 343.9344Q315.67188 344.77814 315.67188 346.325Q315.67188 346.41876 315.67188 346.60626L311.03125 346.60626Q311.09375 347.6375 311.60938 348.1844Q312.125 348.71564 312.90625 348.71564Q313.48438 348.71564 313.89062 348.41876Q314.3125 348.10626 314.54688 347.45ZM311.09375 345.7469L314.5625 345.7469Q314.5 344.95 314.17188 344.5594Q313.65625 343.95 312.85938 343.95Q312.125 343.95 311.625 344.4344Q311.14062 344.91876 311.09375 345.7469ZM317.28125 349.45L317.28125 343.23126L318.23438 343.23126L318.23438 344.16876Q318.59375 343.5125 318.89062 343.3094Q319.20312 343.09064 319.57812 343.09064Q320.10938 343.09064 320.65625 343.41876L320.29688 344.40314Q319.90625 344.16876 319.53125 344.16876Q319.17188 344.16876 318.89062 344.3875Q318.625 344.59064 318.51562 344.96564Q318.32812 345.52814 318.32812 346.1844L318.32812 349.45L317.28125 349.45ZM325.35938 348.6844Q324.76562 349.1844 324.21875 349.3875Q323.6875 349.59064 323.0625 349.59064Q322.03125 349.59064 321.48438 349.09064Q320.9375 348.59064 320.9375 347.8094Q320.9375 347.35626 321.14062 346.98126Q321.34375 346.59064 321.6875 346.3719Q322.03125 346.1375 322.45312 346.02814Q322.75 345.9344 323.39062 345.85626Q324.65625 345.71564 325.26562 345.4969Q325.26562 345.27814 325.26562 345.23126Q325.26562 344.575 324.96875 344.3094Q324.5625 343.96564 323.76562 343.96564Q323.03125 343.96564 322.67188 344.23126Q322.3125 344.48126 322.14062 345.1375L321.10938 344.9969Q321.25 344.34064 321.57812 343.9344Q321.90625 343.52814 322.51562 343.3094Q323.125 343.09064 323.92188 343.09064Q324.71875 343.09064 325.21875 343.27814Q325.71875 343.46564 325.95312 343.7469Q326.1875 344.02814 326.28125 344.46564Q326.32812 344.73126 326.32812 345.4344L326.32812 346.84064Q326.32812 348.3094 326.39062 348.7Q326.46875 349.09064 326.67188 349.45L325.5625 349.45Q325.40625 349.1219 325.35938 348.6844ZM325.26562 346.325Q324.6875 346.5594 323.54688 346.73126Q322.89062 346.825 322.625 346.95Q322.35938 347.0594 322.20312 347.27814Q322.0625 347.4969 322.0625 347.77814Q322.0625 348.2 322.375 348.48126Q322.70312 348.7625 323.3125 348.7625Q323.92188 348.7625 324.39062 348.4969Q324.875 348.23126 325.09375 347.7625Q325.26562 347.40314 325.26562 346.71564L325.26562 346.325ZM328.09375 349.96564L329.125 350.1219Q329.1875 350.59064 329.48438 350.8094Q329.875 351.10626 330.54688 351.10626Q331.28125 351.10626 331.67188 350.8094Q332.07812 350.5125 332.21875 349.9969Q332.3125 349.66876 332.29688 348.6375Q331.60938 349.45 330.57812 349.45Q329.29688 349.45 328.59375 348.52814Q327.89062 347.59064 327.89062 346.3094Q327.89062 345.41876 328.20312 344.66876Q328.53125 343.90314 329.14062 343.4969Q329.75 343.09064 330.57812 343.09064Q331.6875 343.09064 332.40625 343.98126L332.40625 343.23126L333.375 343.23126L333.375 348.60626Q333.375 350.0594 333.07812 350.66876Q332.78125 351.27814 332.14062 351.6219Q331.5 351.98126 330.5625 351.98126Q329.45312 351.98126 328.76562 351.48126Q328.07812 350.98126 328.09375 349.96564ZM328.96875 346.23126Q328.96875 347.45 329.45312 348.0125Q329.9375 348.575 330.67188 348.575Q331.40625 348.575 331.89062 348.0125Q332.39062 347.45 332.39062 346.2625Q332.39062 345.1219 331.875 344.54376Q331.375 343.96564 330.65625 343.96564Q329.95312 343.96564 329.45312 344.54376Q328.96875 345.10626 328.96875 346.23126ZM339.54688 347.45L340.64062 347.575Q340.39062 348.52814 339.6875 349.0594Q338.98438 349.59064 337.90625 349.59064Q336.54688 349.59064 335.73438 348.7469Q334.9375 347.90314 334.9375 346.3875Q334.9375 344.825 335.75 343.96564Q336.5625 343.09064 337.84375 343.09064Q339.09375 343.09064 339.875 343.9344Q340.67188 344.77814 340.67188 346.325Q340.67188 346.41876 340.67188 346.60626L336.03125 346.60626Q336.09375 347.6375 336.60938 348.1844Q337.125 348.71564 337.90625 348.71564Q338.48438 348.71564 338.89062 348.41876Q339.3125 348.10626 339.54688 347.45ZM336.09375 345.7469L339.5625 345.7469Q339.5 344.95 339.17188 344.5594Q338.65625 343.95 337.85938 343.95Q337.125 343.95 336.625 344.4344Q336.14062 344.91876 336.09375 345.7469ZM349.35938 347.16876L350.39062 347.3094Q350.21875 348.3719 349.51562 348.98126Q348.8125 349.59064 347.79688 349.59064Q346.51562 349.59064 345.73438 348.7625Q344.96875 347.91876 344.96875 346.35626Q344.96875 345.35626 345.29688 344.60626Q345.64062 343.84064 346.3125 343.46564Q347.0 343.09064 347.8125 343.09064Q348.8125 343.09064 349.45312 343.60626Q350.10938 344.10626 350.29688 345.0594L349.26562 345.21564Q349.125 344.59064 348.75 344.27814Q348.375 343.95 347.84375 343.95Q347.04688 343.95 346.54688 344.52814Q346.04688 345.09064 346.04688 346.325Q346.04688 347.59064 346.53125 348.15314Q347.01562 348.71564 347.78125 348.71564Q348.40625 348.71564 348.8125 348.34064Q349.23438 347.96564 349.35938 347.16876ZM351.29688 342.075L351.29688 340.85626L352.35938 340.85626L352.35938 342.075L351.29688 342.075ZM351.29688 349.45L351.29688 343.23126L352.35938 343.23126L352.35938 349.45L351.29688 349.45ZM356.59375 348.5125L356.75 349.4344Q356.29688 349.52814 355.95312 349.52814Q355.375 349.52814 355.0625 349.35626Q354.75 349.16876 354.60938 348.8719Q354.48438 348.575 354.48438 347.6219L354.48438 344.04376L353.71875 344.04376L353.71875 343.23126L354.48438 343.23126L354.48438 341.6844L355.53125 341.0594L355.53125 343.23126L356.59375 343.23126L356.59375 344.04376L355.53125 344.04376L355.53125 347.6844Q355.53125 348.1375 355.57812 348.2625Q355.64062 348.3875 355.76562 348.46564Q355.89062 348.54376 356.125 348.54376Q356.3125 348.54376 356.59375 348.5125ZM361.35938 348.6844Q360.76562 349.1844 360.21875 349.3875Q359.6875 349.59064 359.0625 349.59064Q358.03125 349.59064 357.48438 349.09064Q356.9375 348.59064 356.9375 347.8094Q356.9375 347.35626 357.14062 346.98126Q357.34375 346.59064 357.6875 346.3719Q358.03125 346.1375 358.45312 346.02814Q358.75 345.9344 359.39062 345.85626Q360.65625 345.71564 361.26562 345.4969Q361.26562 345.27814 361.26562 345.23126Q361.26562 344.575 360.96875 344.3094Q360.5625 343.96564 359.76562 343.96564Q359.03125 343.96564 358.67188 344.23126Q358.3125 344.48126 358.14062 345.1375L357.10938 344.9969Q357.25 344.34064 357.57812 343.9344Q357.90625 343.52814 358.51562 343.3094Q359.125 343.09064 359.92188 343.09064Q360.71875 343.09064 361.21875 343.27814Q361.71875 343.46564 361.95312 343.7469Q362.1875 344.02814 362.28125 344.46564Q362.32812 344.73126 362.32812 345.4344L362.32812 346.84064Q362.32812 348.3094 362.39062 348.7Q362.46875 349.09064 362.67188 349.45L361.5625 349.45Q361.40625 349.1219 361.35938 348.6844ZM361.26562 346.325Q360.6875 346.5594 359.54688 346.73126Q358.89062 346.825 358.625 346.95Q358.35938 347.0594 358.20312 347.27814Q358.0625 347.4969 358.0625 347.77814Q358.0625 348.2 358.375 348.48126Q358.70312 348.7625 359.3125 348.7625Q359.92188 348.7625 360.39062 348.4969Q360.875 348.23126 361.09375 347.7625Q361.26562 347.40314 361.26562 346.71564L361.26562 346.325ZM366.59375 348.5125L366.75 349.4344Q366.29688 349.52814 365.95312 349.52814Q365.375 349.52814 365.0625 349.35626Q364.75 349.16876 364.60938 348.8719Q364.48438 348.575 364.48438 347.6219L364.48438 344.04376L363.71875 344.04376L363.71875 343.23126L364.48438 343.23126L364.48438 341.6844L365.53125 341.0594L365.53125 343.23126L366.59375 343.23126L366.59375 344.04376L365.53125 344.04376L365.53125 347.6844Q365.53125 348.1375 365.57812 348.2625Q365.64062 348.3875 365.76562 348.46564Q365.89062 348.54376 366.125 348.54376Q366.3125 348.54376 366.59375 348.5125ZM367.29688 342.075L367.29688 340.85626L368.35938 340.85626L368.35938 342.075L367.29688 342.075ZM367.29688 349.45L367.29688 343.23126L368.35938 343.23126L368.35938 349.45L367.29688 349.45ZM369.90625 346.34064Q369.90625 344.60626 370.85938 343.77814Q371.65625 343.09064 372.8125 343.09064Q374.09375 343.09064 374.90625 343.9344Q375.73438 344.7625 375.73438 346.2469Q375.73438 347.45 375.375 348.1375Q375.01562 348.825 374.3125 349.21564Q373.625 349.59064 372.8125 349.59064Q371.51562 349.59064 370.70312 348.7625Q369.90625 347.91876 369.90625 346.34064ZM370.98438 346.34064Q370.98438 347.52814 371.5 348.1219Q372.03125 348.71564 372.8125 348.71564Q373.60938 348.71564 374.125 348.1219Q374.64062 347.52814 374.64062 346.3094Q374.64062 345.15314 374.10938 344.5594Q373.59375 343.96564 372.8125 343.96564Q372.03125 343.96564 371.5 344.5594Q370.98438 345.1375 370.98438 346.34064ZM377.29688 349.45L377.29688 343.23126L378.23438 343.23126L378.23438 344.10626Q378.92188 343.09064 380.21875 343.09064Q380.78125 343.09064 381.25 343.29376Q381.73438 343.4969 381.96875 343.825Q382.20312 344.15314 382.29688 344.59064Q382.34375 344.8875 382.34375 345.6219L382.34375 349.45L381.29688 349.45L381.29688 345.66876Q381.29688 345.0125 381.17188 344.7Q381.04688 344.3875 380.73438 344.2Q380.42188 343.9969 380.0 343.9969Q379.32812 343.9969 378.82812 344.4344Q378.34375 344.85626 378.34375 346.04376L378.34375 349.45L377.29688 349.45ZM383.875 347.59064L384.90625 347.4344Q385.0 348.0594 385.39062 348.3875Q385.79688 348.71564 386.53125 348.71564Q387.25 348.71564 387.59375 348.4344Q387.95312 348.1375 387.95312 347.73126Q387.95312 347.3719 387.64062 347.16876Q387.42188 347.02814 386.5625 346.8094Q385.40625 346.5125 384.95312 346.3094Q384.51562 346.09064 384.28125 345.71564Q384.04688 345.34064 384.04688 344.8719Q384.04688 344.46564 384.23438 344.10626Q384.42188 343.7469 384.75 343.5125Q385.0 343.34064 385.42188 343.21564Q385.84375 343.09064 386.34375 343.09064Q387.0625 343.09064 387.60938 343.3094Q388.17188 343.5125 388.4375 343.8719Q388.70312 344.23126 388.79688 344.825L387.76562 344.96564Q387.70312 344.4969 387.35938 344.23126Q387.03125 343.95 386.40625 343.95Q385.6875 343.95 385.375 344.2Q385.0625 344.4344 385.0625 344.7625Q385.0625 344.96564 385.1875 345.1219Q385.32812 345.29376 385.59375 345.40314Q385.75 345.46564 386.53125 345.66876Q387.65625 345.98126 388.09375 346.16876Q388.53125 346.35626 388.78125 346.71564Q389.03125 347.075 389.03125 347.6219Q389.03125 348.15314 388.71875 348.6219Q388.42188 349.075 387.84375 349.34064Q387.26562 349.59064 386.53125 349.59064Q385.3125 349.59064 384.67188 349.09064Q384.04688 348.575 383.875 347.59064ZM394.29688 351.84064L394.29688 343.23126L395.25 343.23126L395.25 344.02814Q395.59375 343.5594 396.01562 343.325Q396.45312 343.09064 397.0625 343.09064Q397.85938 343.09064 398.46875 343.4969Q399.07812 343.90314 399.375 344.65314Q399.6875 345.40314 399.6875 346.29376Q399.6875 347.2469 399.34375 348.0125Q399.01562 348.77814 398.35938 349.1844Q397.70312 349.59064 396.98438 349.59064Q396.45312 349.59064 396.03125 349.3719Q395.60938 349.1375 395.34375 348.8094L395.34375 351.84064L394.29688 351.84064ZM395.25 346.3719Q395.25 347.575 395.73438 348.15314Q396.21875 348.71564 396.90625 348.71564Q397.60938 348.71564 398.10938 348.1219Q398.60938 347.52814 398.60938 346.27814Q398.60938 345.09064 398.125 344.5125Q397.64062 343.91876 396.95312 343.91876Q396.28125 343.91876 395.76562 344.54376Q395.25 345.16876 395.25 346.3719ZM405.54688 347.45L406.64062 347.575Q406.39062 348.52814 405.6875 349.0594Q404.98438 349.59064 403.90625 349.59064Q402.54688 349.59064 401.73438 348.7469Q400.9375 347.90314 400.9375 346.3875Q400.9375 344.825 401.75 343.96564Q402.5625 343.09064 403.84375 343.09064Q405.09375 343.09064 405.875 343.9344Q406.67188 344.77814 406.67188 346.325Q406.67188 346.41876 406.67188 346.60626L402.03125 346.60626Q402.09375 347.6375 402.60938 348.1844Q403.125 348.71564 403.90625 348.71564Q404.48438 348.71564 404.89062 348.41876Q405.3125 348.10626 405.54688 347.45ZM402.09375 345.7469L405.5625 345.7469Q405.5 344.95 405.17188 344.5594Q404.65625 343.95 403.85938 343.95Q403.125 343.95 402.625 344.4344Q402.14062 344.91876 402.09375 345.7469ZM408.28125 349.45L408.28125 343.23126L409.23438 343.23126L409.23438 344.16876Q409.59375 343.5125 409.89062 343.3094Q410.20312 343.09064 410.57812 343.09064Q411.10938 343.09064 411.65625 343.41876L411.29688 344.40314Q410.90625 344.16876 410.53125 344.16876Q410.17188 344.16876 409.89062 344.3875Q409.625 344.59064 409.51562 344.96564Q409.32812 345.52814 409.32812 346.1844L409.32812 349.45L408.28125 349.45ZM415.25 351.84064L415.125 350.85626Q415.46875 350.95 415.73438 350.95Q416.07812 350.95 416.28125 350.825Q416.5 350.71564 416.64062 350.5125Q416.73438 350.34064 416.96875 349.71564Q416.98438 349.6375 417.0625 349.46564L414.6875 343.23126L415.82812 343.23126L417.125 346.825Q417.375 347.5125 417.57812 348.27814Q417.76562 347.54376 418.01562 346.85626L419.34375 343.23126L420.39062 343.23126L418.03125 349.5594Q417.64062 350.575 417.4375 350.96564Q417.15625 351.4969 416.78125 351.73126Q416.42188 351.98126 415.92188 351.98126Q415.625 351.98126 415.25 351.84064ZM424.54688 347.45L425.64062 347.575Q425.39062 348.52814 424.6875 349.0594Q423.98438 349.59064 422.90625 349.59064Q421.54688 349.59064 420.73438 348.7469Q419.9375 347.90314 419.9375 346.3875Q419.9375 344.825 420.75 343.96564Q421.5625 343.09064 422.84375 343.09064Q424.09375 343.09064 424.875 343.9344Q425.67188 344.77814 425.67188 346.325Q425.67188 346.41876 425.67188 346.60626L421.03125 346.60626Q421.09375 347.6375 421.60938 348.1844Q422.125 348.71564 422.90625 348.71564Q423.48438 348.71564 423.89062 348.41876Q424.3125 348.10626 424.54688 347.45ZM421.09375 345.7469L424.5625 345.7469Q424.5 344.95 424.17188 344.5594Q423.65625 343.95 422.85938 343.95Q422.125 343.95 421.625 344.4344Q421.14062 344.91876 421.09375 345.7469ZM431.35938 348.6844Q430.76562 349.1844 430.21875 349.3875Q429.6875 349.59064 429.0625 349.59064Q428.03125 349.59064 427.48438 349.09064Q426.9375 348.59064 426.9375 347.8094Q426.9375 347.35626 427.14062 346.98126Q427.34375 346.59064 427.6875 346.3719Q428.03125 346.1375 428.45312 346.02814Q428.75 345.9344 429.39062 345.85626Q430.65625 345.71564 431.26562 345.4969Q431.26562 345.27814 431.26562 345.23126Q431.26562 344.575 430.96875 344.3094Q430.5625 343.96564 429.76562 343.96564Q429.03125 343.96564 428.67188 344.23126Q428.3125 344.48126 428.14062 345.1375L427.10938 344.9969Q427.25 344.34064 427.57812 343.9344Q427.90625 343.52814 428.51562 343.3094Q429.125 343.09064 429.92188 343.09064Q430.71875 343.09064 431.21875 343.27814Q431.71875 343.46564 431.95312 343.7469Q432.1875 344.02814 432.28125 344.46564Q432.32812 344.73126 432.32812 345.4344L432.32812 346.84064Q432.32812 348.3094 432.39062 348.7Q432.46875 349.09064 432.67188 349.45L431.5625 349.45Q431.40625 349.1219 431.35938 348.6844ZM431.26562 346.325Q430.6875 346.5594 429.54688 346.73126Q428.89062 346.825 428.625 346.95Q428.35938 347.0594 428.20312 347.27814Q428.0625 347.4969 428.0625 347.77814Q428.0625 348.2 428.375 348.48126Q428.70312 348.7625 429.3125 348.7625Q429.92188 348.7625 430.39062 348.4969Q430.875 348.23126 431.09375 347.7625Q431.26562 347.40314 431.26562 346.71564L431.26562 346.325ZM434.28125 349.45L434.28125 343.23126L435.23438 343.23126L435.23438 344.16876Q435.59375 343.5125 435.89062 343.3094Q436.20312 343.09064 436.57812 343.09064Q437.10938 343.09064 437.65625 343.41876L437.29688 344.40314Q436.90625 344.16876 436.53125 344.16876Q436.17188 344.16876 435.89062 344.3875Q435.625 344.59064 435.51562 344.96564Q435.32812 345.52814 435.32812 346.1844L435.32812 349.45L434.28125 349.45Z" fill-rule="nonzero"/><path fill="#000000" d="M20.956263 220.4375L20.956263 219.29688L25.925013 219.29688Q27.221888 219.29688 27.987513 219.59375Q28.737513 219.89062 29.221888 220.65625Q29.690638 221.42188 29.690638 222.65625Q29.690638 223.85938 29.284388 224.64062Q28.862513 225.40625 28.081263 225.73438Q27.284388 226.0625 25.925013 226.0625L20.956263 226.0625L20.956263 224.92188L25.909388 224.92188Q27.034388 224.92188 27.565638 224.71875Q28.096888 224.5 28.393763 224.0Q28.675013 223.48438 28.675013 222.75Q28.675013 221.5 28.112513 220.96875Q27.534388 220.4375 25.909388 220.4375L20.956263 220.4375ZM28.612513 214.90625L29.534388 214.75Q29.628138 215.20312 29.628138 215.54688Q29.628138 216.125 29.456263 216.4375Q29.268763 216.75 28.971888 216.89062Q28.675013 217.01562 27.721888 217.01562L24.143763 217.01562L24.143763 217.78125L23.331263 217.78125L23.331263 217.01562L21.784388 217.01562L21.159388 215.96875L23.331263 215.96875L23.331263 214.90625L24.143763 214.90625L24.143763 215.96875L27.784388 215.96875Q28.237513 215.96875 28.362513 215.92188Q28.487513 215.85938 28.565638 215.73438Q28.643763 215.60938 28.643763 215.375Q28.643763 215.1875 28.612513 214.90625ZM22.175013 214.20312L20.956263 214.20312L20.956263 213.14062L22.175013 213.14062L22.175013 214.20312ZM29.550013 214.20312L23.331263 214.20312L23.331263 213.14062L29.550013 213.14062L29.550013 214.20312ZM29.550013 211.23438L20.956263 211.23438L20.956263 210.17188L29.550013 210.17188L29.550013 211.23438ZM22.175013 208.20312L20.956263 208.20312L20.956263 207.14062L22.175013 207.14062L22.175013 208.20312ZM29.550013 208.20312L23.331263 208.20312L23.331263 207.14062L29.550013 207.14062L29.550013 208.20312ZM29.550013 205.76562L28.690638 205.76562L24.143763 201.79688Q24.175013 202.48438 24.175013 203.0L24.175013 205.53125L23.331263 205.53125L23.331263 200.4375L24.018763 200.4375L27.971888 203.8125L28.690638 204.46875Q28.643763 203.75 28.643763 203.14062L28.643763 200.25L29.550013 200.25L29.550013 205.76562ZM27.550013 195.95312L27.675013 194.85938Q28.628138 195.10938 29.159388 195.8125Q29.690638 196.51562 29.690638 197.59375Q29.690638 198.95312 28.846888 199.76562Q28.003138 200.5625 26.487513 200.5625Q24.925013 200.5625 24.065638 199.75Q23.190638 198.9375 23.190638 197.65625Q23.190638 196.40625 24.034388 195.625Q24.878138 194.82812 26.425013 194.82812Q26.518763 194.82812 26.706263 194.82812L26.706263 199.46875Q27.737513 199.40625 28.284388 198.89062Q28.815638 198.375 28.815638 197.59375Q28.815638 197.01562 28.518763 196.60938Q28.206263 196.1875 27.550013 195.95312ZM25.846888 199.40625L25.846888 195.9375Q25.050013 196.0 24.659388 196.32812Q24.050013 196.84375 24.050013 197.64062Q24.050013 198.375 24.534388 198.875Q25.018763 199.35938 25.846888 199.40625ZM29.550013 189.17188L28.768763 189.17188Q29.690638 189.76562 29.690638 190.90625Q29.690638 191.65625 29.284388 192.28125Q28.862513 192.90625 28.128138 193.25Q27.393763 193.59375 26.440638 193.59375Q25.518763 193.59375 24.753138 193.28125Q23.987513 192.96875 23.596888 192.34375Q23.190638 191.71875 23.190638 190.95312Q23.190638 190.39062 23.425013 189.95312Q23.659388 189.51562 24.034388 189.23438L20.956263 189.23438L20.956263 188.1875L29.550013 188.1875L29.550013 189.17188ZM26.440638 192.5Q27.643763 192.5 28.237513 192.0Q28.815638 191.5 28.815638 190.8125Q28.815638 190.125 28.253138 189.64062Q27.690638 189.15625 26.534388 189.15625Q25.253138 189.15625 24.659388 189.65625Q24.065638 190.14062 24.065638 190.85938Q24.065638 191.5625 24.643763 192.03125Q25.206263 192.5 26.440638 192.5ZM29.550013 184.01562L20.956263 180.71875L20.956263 179.5L29.550013 175.98438L29.550013 177.26562L26.940638 178.28125L26.940638 181.85938L29.550013 182.8125L29.550013 184.01562ZM26.018763 181.53125L26.018763 178.625L23.643763 179.51562Q22.565638 179.9375 21.862513 180.125Q22.690638 180.29688 23.503138 180.59375L26.018763 181.53125ZM29.550013 175.875L20.956263 175.875L20.956263 174.75L29.550013 174.75L29.550013 175.875ZM28.612513 167.90625L29.534388 167.75Q29.628138 168.20312 29.628138 168.54688Q29.628138 169.125 29.456263 169.4375Q29.268763 169.75 28.971888 169.89062Q28.675013 170.01562 27.721888 170.01562L24.143763 170.01562L24.143763 170.78125L23.331263 170.78125L23.331263 170.01562L21.784388 170.01562L21.159388 168.96875L23.331263 168.96875L23.331263 167.90625L24.143763 167.90625L24.143763 168.96875L27.784388 168.96875Q28.237513 168.96875 28.362513 168.92188Q28.487513 168.85938 28.565638 168.73438Q28.643763 168.60938 28.643763 168.375Q28.643763 168.1875 28.612513 167.90625ZM27.550013 162.95312L27.675013 161.85938Q28.628138 162.10938 29.159388 162.8125Q29.690638 163.51562 29.690638 164.59375Q29.690638 165.95312 28.846888 166.76562Q28.003138 167.5625 26.487513 167.5625Q24.925013 167.5625 24.065638 166.75Q23.190638 165.9375 23.190638 164.65625Q23.190638 163.40625 24.034388 162.625Q24.878138 161.82812 26.425013 161.82812Q26.518763 161.82812 26.706263 161.82812L26.706263 166.46875Q27.737513 166.40625 28.284388 165.89062Q28.815638 165.375 28.815638 164.59375Q28.815638 164.01562 28.518763 163.60938Q28.206263 163.1875 27.550013 162.95312ZM25.846888 166.40625L25.846888 162.9375Q25.050013 163.0 24.659388 163.32812Q24.050013 163.84375 24.050013 164.64062Q24.050013 165.375 24.534388 165.875Q25.018763 166.35938 25.846888 166.40625ZM27.268763 156.14062L27.409388 155.10938Q28.471888 155.28125 29.081263 155.98438Q29.690638 156.6875 29.690638 157.70312Q29.690638 158.98438 28.862513 159.76562Q28.018763 160.53125 26.456263 160.53125Q25.456263 160.53125 24.706263 160.20312Q23.940638 159.85938 23.565638 159.1875Q23.190638 158.5 23.190638 157.6875Q23.190638 156.6875 23.706263 156.04688Q24.206263 155.39062 25.159388 155.20312L25.315638 156.23438Q24.690638 156.375 24.378138 156.75Q24.050013 157.125 24.050013 157.65625Q24.050013 158.45312 24.628138 158.95312Q25.190638 159.45312 26.425013 159.45312Q27.690638 159.45312 28.253138 158.96875Q28.815638 158.48438 28.815638 157.71875Q28.815638 157.09375 28.440638 156.6875Q28.065638 156.26562 27.268763 156.14062ZM29.550013 154.20312L20.956263 154.20312L20.956263 153.15625L24.034388 153.15625Q23.190638 152.42188 23.190638 151.29688Q23.190638 150.59375 23.471888 150.09375Q23.737513 149.57812 24.221888 149.35938Q24.690638 149.14062 25.612513 149.14062L29.550013 149.14062L29.550013 150.1875L25.612513 150.1875Q24.815638 150.1875 24.456263 150.53125Q24.096888 150.875 24.096888 151.5Q24.096888 151.96875 24.346888 152.39062Q24.581263 152.79688 25.003138 152.98438Q25.409388 153.15625 26.143763 153.15625L29.550013 153.15625L29.550013 154.20312ZM29.550013 147.20312L23.331263 147.20312L23.331263 146.26562L24.206263 146.26562Q23.190638 145.57812 23.190638 144.28125Q23.190638 143.71875 23.393763 143.25Q23.596888 142.76562 23.925013 142.53125Q24.253138 142.29688 24.690638 142.20312Q24.987513 142.15625 25.721888 142.15625L29.550013 142.15625L29.550013 143.20312L25.768763 143.20312Q25.112513 143.20312 24.800013 143.32812Q24.487513 143.45312 24.300013 143.76562Q24.096888 144.07812 24.096888 144.5Q24.096888 145.17188 24.534388 145.67188Q24.956263 146.15625 26.143763 146.15625L29.550013 146.15625L29.550013 147.20312ZM26.440638 140.59375Q24.706263 140.59375 23.878138 139.64062Q23.190638 138.84375 23.190638 137.6875Q23.190638 136.40625 24.034388 135.59375Q24.862513 134.76562 26.346888 134.76562Q27.550013 134.76562 28.237513 135.125Q28.925013 135.48438 29.315638 136.1875Q29.690638 136.875 29.690638 137.6875Q29.690638 138.98438 28.862513 139.79688Q28.018763 140.59375 26.440638 140.59375ZM26.440638 139.51562Q27.628138 139.51562 28.221888 139.0Q28.815638 138.46875 28.815638 137.6875Q28.815638 136.89062 28.221888 136.375Q27.628138 135.85938 26.409388 135.85938Q25.253138 135.85938 24.659388 136.39062Q24.065638 136.90625 24.065638 137.6875Q24.065638 138.46875 24.659388 139.0Q25.237513 139.51562 26.440638 139.51562ZM29.550013 133.23438L20.956263 133.23438L20.956263 132.17188L29.550013 132.17188L29.550013 133.23438ZM26.440638 130.59375Q24.706263 130.59375 23.878138 129.64062Q23.190638 128.84375 23.190638 127.6875Q23.190638 126.40625 24.034388 125.59375Q24.862513 124.765625 26.346888 124.765625Q27.550013 124.765625 28.237513 125.125Q28.925013 125.484375 29.315638 126.1875Q29.690638 126.875 29.690638 127.6875Q29.690638 128.98438 28.862513 129.79688Q28.018763 130.59375 26.440638 130.59375ZM26.440638 129.51562Q27.628138 129.51562 28.221888 129.0Q28.815638 128.46875 28.815638 127.6875Q28.815638 126.890625 28.221888 126.375Q27.628138 125.859375 26.409388 125.859375Q25.253138 125.859375 24.659388 126.390625Q24.065638 126.90625 24.065638 127.6875Q24.065638 128.46875 24.659388 129.0Q25.237513 129.51562 26.440638 129.51562ZM30.065638 123.40625L30.221888 122.375Q30.690638 122.3125 30.909388 122.015625Q31.206263 121.625 31.206263 120.953125Q31.206263 120.21875 30.909388 119.828125Q30.612513 119.421875 30.096888 119.28125Q29.768763 119.1875 28.737513 119.203125Q29.550013 119.890625 29.550013 120.921875Q29.550013 122.203125 28.628138 122.90625Q27.690638 123.609375 26.409388 123.609375Q25.518763 123.609375 24.768763 123.296875Q24.003138 122.96875 23.596888 122.359375Q23.190638 121.75 23.190638 120.921875Q23.190638 119.8125 24.081263 119.09375L23.331263 119.09375L23.331263 118.125L28.706263 118.125Q30.159388 118.125 30.768763 118.421875Q31.378138 118.71875 31.721888 119.359375Q32.08126 120.0 32.08126 120.9375Q32.08126 122.046875 31.581263 122.734375Q31.081263 123.421875 30.065638 123.40625ZM26.331263 122.53125Q27.550013 122.53125 28.112513 122.046875Q28.675013 121.5625 28.675013 120.828125Q28.675013 120.09375 28.112513 119.609375Q27.550013 119.109375 26.362513 119.109375Q25.221888 119.109375 24.643763 119.625Q24.065638 120.125 24.065638 120.84375Q24.065638 121.546875 24.643763 122.046875Q25.206263 122.53125 26.331263 122.53125ZM31.940638 116.25L30.956263 116.375Q31.050013 116.03125 31.050013 115.765625Q31.050013 115.421875 30.925013 115.21875Q30.815638 115.0 30.612513 114.859375Q30.440638 114.765625 29.815638 114.53125Q29.737513 114.515625 29.565638 114.4375L23.331263 116.8125L23.331263 115.671875L26.925013 114.375Q27.612513 114.125 28.378138 113.921875Q27.643763 113.734375 26.956263 113.484375L23.331263 112.15625L23.331263 111.109375L29.659388 113.46875Q30.675013 113.859375 31.065638 114.0625Q31.596888 114.34375 31.831263 114.71875Q32.08126 115.078125 32.08126 115.578125Q32.08126 115.875 31.940638 116.25Z" fill-rule="nonzero"/><path fill="#000000" d="M124.47188 66.293106L124.47188 57.77748L126.20625 57.77748L126.20625 64.83998L130.51875 64.83998L130.51875 66.293106L124.47188 66.293106ZM131.47188 66.293106L131.47188 57.77748L133.20625 57.77748L133.20625 64.83998L137.51875 64.83998L137.51875 66.293106L131.47188 66.293106ZM138.39375 66.293106L138.39375 57.699356L141.00313 57.699356L142.55 63.55873L144.09688 57.699356L146.69063 57.699356L146.69063 66.293106L145.08125 66.293106L145.08125 59.52748L143.37813 66.293106L141.70625 66.293106L140.01875 59.52748L140.01875 66.293106L138.39375 66.293106Z" fill-rule="nonzero"/><path fill="#000000" d="M70.425 122.50395L73.58125 122.50395Q74.65938 122.50395 75.22188 122.67583Q75.97188 122.89458 76.50313 123.4727Q77.05 124.0352 77.33125 124.86333Q77.6125 125.67583 77.6125 126.87895Q77.6125 127.94145 77.3625 128.70708Q77.03438 129.64458 76.44063 130.2227Q75.9875 130.67583 75.22188 130.9102Q74.64375 131.0977 73.675 131.0977L70.425 131.0977L70.425 122.50395ZM72.15938 123.95708L72.15938 129.64458L73.44063 129.64458Q74.175 129.64458 74.50313 129.56645Q74.925 129.45708 75.19063 129.20708Q75.47188 128.95708 75.64375 128.37895Q75.83125 127.80083 75.83125 126.80083Q75.83125 125.81645 75.64375 125.2852Q75.47188 124.73833 75.15938 124.44145Q74.84688 124.14458 74.3625 124.0352Q73.9875 123.95708 72.925 123.95708L72.15938 123.95708ZM82.01875 129.11333L83.65938 129.39458Q83.34688 130.30083 82.65938 130.76958Q81.97188 131.23833 80.95625 131.23833Q79.33125 131.23833 78.55 130.17583Q77.925 129.33208 77.925 128.0352Q77.925 126.48833 78.7375 125.61333Q79.55 124.73833 80.78438 124.73833Q82.175 124.73833 82.97188 125.6602Q83.78438 126.56645 83.7375 128.45708L79.6125 128.45708Q79.64375 129.19145 80.01875 129.5977Q80.39375 130.00395 80.97188 130.00395Q81.34688 130.00395 81.6125 129.80083Q81.87813 129.58208 82.01875 129.11333ZM82.1125 127.45708Q82.09688 126.73833 81.7375 126.36333Q81.39375 125.98833 80.87813 125.98833Q80.34688 125.98833 79.9875 126.37895Q79.64375 126.7852 79.64375 127.45708L82.1125 127.45708ZM89.01875 129.11333L90.65938 129.39458Q90.34688 130.30083 89.65938 130.76958Q88.97188 131.23833 87.95625 131.23833Q86.33125 131.23833 85.55 130.17583Q84.925 129.33208 84.925 128.0352Q84.925 126.48833 85.7375 125.61333Q86.55 124.73833 87.78438 124.73833Q89.175 124.73833 89.97188 125.6602Q90.78438 126.56645 90.7375 128.45708L86.6125 128.45708Q86.64375 129.19145 87.01875 129.5977Q87.39375 130.00395 87.97188 130.00395Q88.34688 130.00395 88.6125 129.80083Q88.87813 129.58208 89.01875 129.11333ZM89.1125 127.45708Q89.09688 126.73833 88.7375 126.36333Q88.39375 125.98833 87.87813 125.98833Q87.34688 125.98833 86.9875 126.37895Q86.64375 126.7852 86.64375 127.45708L89.1125 127.45708ZM92.3625 124.87895L93.89375 124.87895L93.89375 125.7852Q94.20625 125.31645 94.70625 125.0352Q95.22188 124.73833 95.84688 124.73833Q96.925 124.73833 97.675 125.58208Q98.44063 126.42583 98.44063 127.95708Q98.44063 129.50395 97.675 130.37895Q96.90938 131.23833 95.83125 131.23833Q95.31563 131.23833 94.89375 131.0352Q94.47188 130.83208 94.01875 130.33208L94.01875 133.4727L92.3625 133.4727L92.3625 124.87895ZM93.9875 127.87895Q93.9875 128.92583 94.40938 129.42583Q94.83125 129.92583 95.425 129.92583Q96.00313 129.92583 96.37813 129.4727Q96.75313 129.00395 96.75313 127.95708Q96.75313 126.98833 96.3625 126.51958Q95.97188 126.0352 95.39375 126.0352Q94.78438 126.0352 94.37813 126.50395Q93.9875 126.9727 93.9875 127.87895ZM102.40938 131.0977L102.40938 122.50395L104.06563 122.50395L104.06563 131.0977L102.40938 131.0977ZM109.01875 129.11333L110.65938 129.39458Q110.34688 130.30083 109.65938 130.76958Q108.97188 131.23833 107.95625 131.23833Q106.33125 131.23833 105.55 130.17583Q104.925 129.33208 104.925 128.0352Q104.925 126.48833 105.7375 125.61333Q106.55 124.73833 107.78438 124.73833Q109.175 124.73833 109.97188 125.6602Q110.78438 126.56645 110.7375 128.45708L106.6125 128.45708Q106.64375 129.19145 107.01875 129.5977Q107.39375 130.00395 107.97188 130.00395Q108.34688 130.00395 108.6125 129.80083Q108.87813 129.58208 109.01875 129.11333ZM109.1125 127.45708Q109.09688 126.73833 108.7375 126.36333Q108.39375 125.98833 107.87813 125.98833Q107.34688 125.98833 106.9875 126.37895Q106.64375 126.7852 106.64375 127.45708L109.1125 127.45708ZM113.64375 126.76958L112.14375 126.50395Q112.39375 125.5977 113.00313 125.17583Q113.62813 124.73833 114.84688 124.73833Q115.94063 124.73833 116.47188 125.00395Q117.01875 125.25395 117.2375 125.6602Q117.45625 126.05083 117.45625 127.12895L117.44063 129.05083Q117.44063 129.87895 117.51875 130.26958Q117.59688 130.64458 117.81563 131.0977L116.19063 131.0977Q116.12813 130.92583 116.03438 130.61333Q115.9875 130.45708 115.97188 130.4102Q115.55 130.83208 115.06563 131.0352Q114.59688 131.23833 114.05 131.23833Q113.08125 131.23833 112.51875 130.7227Q111.97188 130.19145 111.97188 129.39458Q111.97188 128.86333 112.22188 128.45708Q112.4875 128.05083 112.94063 127.83208Q113.39375 127.5977 114.25313 127.44145Q115.39375 127.2227 115.84688 127.0352L115.84688 126.87895Q115.84688 126.39458 115.6125 126.19145Q115.37813 125.98833 114.72188 125.98833Q114.28438 125.98833 114.03438 126.1602Q113.8 126.33208 113.64375 126.76958ZM115.84688 128.11333Q115.53438 128.20708 114.84688 128.36333Q114.15938 128.50395 113.94063 128.64458Q113.62813 128.87895 113.62813 129.2227Q113.62813 129.56645 113.87813 129.83208Q114.14375 130.08208 114.53438 130.08208Q114.9875 130.08208 115.39375 129.7852Q115.69063 129.56645 115.78438 129.23833Q115.84688 129.0352 115.84688 128.44145L115.84688 128.11333ZM120.9875 131.0977L119.34688 131.0977L119.34688 124.87895L120.87813 124.87895L120.87813 125.75395Q121.26875 125.12895 121.58125 124.94145Q121.89375 124.73833 122.28438 124.73833Q122.84688 124.73833 123.37813 125.05083L122.8625 126.4727Q122.44063 126.20708 122.09688 126.20708Q121.7375 126.20708 121.50313 126.4102Q121.26875 126.5977 121.12813 127.0977Q120.9875 127.58208 120.9875 129.17583L120.9875 131.0977ZM130.06563 131.0977L128.425 131.0977L128.425 127.92583Q128.425 126.9102 128.31563 126.61333Q128.22188 126.31645 127.97188 126.1602Q127.7375 125.98833 127.40938 125.98833Q126.97188 125.98833 126.62813 126.2227Q126.3 126.45708 126.175 126.8477Q126.05 127.23833 126.05 128.2852L126.05 131.0977L124.39375 131.0977L124.39375 124.87895L125.925 124.87895L125.925 125.7852Q126.7375 124.73833 127.9875 124.73833Q128.51875 124.73833 128.97188 124.94145Q129.425 125.12895 129.65938 125.44145Q129.89375 125.73833 129.97188 126.12895Q130.06563 126.50395 130.06563 127.2227L130.06563 131.0977ZM131.40938 124.0352L131.40938 122.50395L133.06563 122.50395L133.06563 124.0352L131.40938 124.0352ZM131.40938 131.0977L131.40938 124.87895L133.06563 124.87895L133.06563 131.0977L131.40938 131.0977ZM140.06563 131.0977L138.425 131.0977L138.425 127.92583Q138.425 126.9102 138.31563 126.61333Q138.22188 126.31645 137.97188 126.1602Q137.7375 125.98833 137.40938 125.98833Q136.97188 125.98833 136.62813 126.2227Q136.3 126.45708 136.175 126.8477Q136.05 127.23833 136.05 128.2852L136.05 131.0977L134.39375 131.0977L134.39375 124.87895L135.925 124.87895L135.925 125.7852Q136.7375 124.73833 137.9875 124.73833Q138.51875 124.73833 138.97188 124.94145Q139.425 125.12895 139.65938 125.44145Q139.89375 125.73833 139.97188 126.12895Q140.06563 126.50395 140.06563 127.2227L140.06563 131.0977ZM141.25313 131.50395L143.14375 131.73833Q143.19063 132.06645 143.3625 132.19145Q143.59688 132.36333 144.09688 132.36333Q144.7375 132.36333 145.06563 132.17583Q145.28438 132.0352 145.39375 131.75395Q145.47188 131.55083 145.47188 131.00395L145.47188 130.08208Q144.72188 131.0977 143.59688 131.0977Q142.34688 131.0977 141.6125 130.0352Q141.05 129.19145 141.05 127.95708Q141.05 126.37895 141.8 125.56645Q142.55 124.73833 143.675 124.73833Q144.81563 124.73833 145.56563 125.75395L145.56563 124.87895L147.1125 124.87895L147.1125 130.45708Q147.1125 131.56645 146.925 132.0977Q146.75313 132.64458 146.425 132.95708Q146.09688 133.26958 145.55 133.44145Q145.00313 133.62895 144.15938 133.62895Q142.58125 133.62895 141.90938 133.08208Q141.25313 132.5352 141.25313 131.70708Q141.25313 131.62895 141.25313 131.50395ZM142.7375 127.86333Q142.7375 128.8477 143.1125 129.31645Q143.50313 129.76958 144.06563 129.76958Q144.65938 129.76958 145.08125 129.30083Q145.50313 128.81645 145.50313 127.89458Q145.50313 126.92583 145.09688 126.45708Q144.70625 125.98833 144.09688 125.98833Q143.50313 125.98833 143.1125 126.45708Q142.7375 126.9102 142.7375 127.86333Z" fill-rule="nonzero"/><path fill="#000000" d="M51.39375 195.9023L51.39375 187.30855L54.003124 187.30855L55.55 193.16792L57.096874 187.30855L59.690624 187.30855L59.690624 195.9023L58.08125 195.9023L58.08125 189.13667L56.378124 195.9023L54.70625 195.9023L53.01875 189.13667L53.01875 195.9023L51.39375 195.9023ZM62.64375 191.57417L61.14375 191.30855Q61.39375 190.4023 62.003124 189.98042Q62.628124 189.54292 63.846874 189.54292Q64.94063 189.54292 65.47188 189.80855Q66.01875 190.05855 66.2375 190.4648Q66.45625 190.85542 66.45625 191.93355L66.44063 193.85542Q66.44063 194.68355 66.51875 195.07417Q66.59688 195.44917 66.81563 195.9023L65.19063 195.9023Q65.12813 195.73042 65.03438 195.41792Q64.9875 195.26167 64.97188 195.2148Q64.55 195.63667 64.06563 195.8398Q63.596874 196.04292 63.05 196.04292Q62.08125 196.04292 61.51875 195.5273Q60.971874 194.99605 60.971874 194.19917Q60.971874 193.66792 61.221874 193.26167Q61.4875 192.85542 61.940624 192.63667Q62.39375 192.4023 63.253124 192.24605Q64.39375 192.0273 64.84688 191.8398L64.84688 191.68355Q64.84688 191.19917 64.6125 190.99605Q64.37813 190.79292 63.721874 190.79292Q63.284374 190.79292 63.034374 190.9648Q62.8 191.13667 62.64375 191.57417ZM64.84688 192.91792Q64.53438 193.01167 63.846874 193.16792Q63.159374 193.30855 62.940624 193.44917Q62.628124 193.68355 62.628124 194.0273Q62.628124 194.37105 62.878124 194.63667Q63.14375 194.88667 63.534374 194.88667Q63.9875 194.88667 64.39375 194.5898Q64.69063 194.37105 64.78438 194.04292Q64.84688 193.8398 64.84688 193.24605L64.84688 192.91792ZM73.83125 191.51167L72.22188 191.80855Q72.12813 191.32417 71.83125 191.0898Q71.55 190.8398 71.09688 190.8398Q70.47188 190.8398 70.09688 191.26167Q69.7375 191.68355 69.7375 192.68355Q69.7375 193.79292 70.1125 194.24605Q70.4875 194.69917 71.1125 194.69917Q71.58125 194.69917 71.87813 194.43355Q72.175 194.16792 72.3 193.51167L73.925 193.79292Q73.675 194.9023 72.95625 195.48042Q72.2375 196.04292 71.03438 196.04292Q69.675 196.04292 68.8625 195.18355Q68.05 194.32417 68.05 192.79292Q68.05 191.26167 68.8625 190.4023Q69.675 189.54292 71.06563 189.54292Q72.20625 189.54292 72.87813 190.0273Q73.55 190.51167 73.83125 191.51167ZM77.05 187.30855L77.05 190.4648Q77.84688 189.54292 78.95625 189.54292Q79.51875 189.54292 79.97188 189.76167Q80.44063 189.9648 80.675 190.29292Q80.90938 190.62105 80.9875 191.0273Q81.06563 191.41792 81.06563 192.24605L81.06563 195.9023L79.425 195.9023L79.425 192.62105Q79.425 191.63667 79.33125 191.37105Q79.2375 191.10542 79.00313 190.94917Q78.76875 190.79292 78.40938 190.79292Q78.00313 190.79292 77.675 190.99605Q77.34688 191.19917 77.19063 191.60542Q77.05 191.99605 77.05 192.7773L77.05 195.9023L75.40938 195.9023L75.40938 187.30855L77.05 187.30855ZM82.40938 188.8398L82.40938 187.30855L84.06563 187.30855L84.06563 188.8398L82.40938 188.8398ZM82.40938 195.9023L82.40938 189.68355L84.06563 189.68355L84.06563 195.9023L82.40938 195.9023ZM91.06563 195.9023L89.425 195.9023L89.425 192.73042Q89.425 191.7148 89.31563 191.41792Q89.22188 191.12105 88.97188 190.9648Q88.7375 190.79292 88.40938 190.79292Q87.97188 190.79292 87.62813 191.0273Q87.3 191.26167 87.175 191.6523Q87.05 192.04292 87.05 193.0898L87.05 195.9023L85.39375 195.9023L85.39375 189.68355L86.925 189.68355L86.925 190.5898Q87.7375 189.54292 88.9875 189.54292Q89.51875 189.54292 89.97188 189.74605Q90.425 189.93355 90.65938 190.24605Q90.89375 190.54292 90.97188 190.93355Q91.06563 191.30855 91.06563 192.0273L91.06563 195.9023ZM96.01875 193.91792L97.65938 194.19917Q97.34688 195.10542 96.65938 195.57417Q95.97188 196.04292 94.95625 196.04292Q93.33125 196.04292 92.55 194.98042Q91.925 194.13667 91.925 192.8398Q91.925 191.29292 92.7375 190.41792Q93.55 189.54292 94.78438 189.54292Q96.175 189.54292 96.97188 190.4648Q97.78438 191.37105 97.7375 193.26167L93.6125 193.26167Q93.64375 193.99605 94.01875 194.4023Q94.39375 194.80855 94.97188 194.80855Q95.34688 194.80855 95.6125 194.60542Q95.87813 194.38667 96.01875 193.91792ZM96.1125 192.26167Q96.09688 191.54292 95.7375 191.16792Q95.39375 190.79292 94.87813 190.79292Q94.34688 190.79292 93.9875 191.18355Q93.64375 191.5898 93.64375 192.26167L96.1125 192.26167ZM102.40938 195.9023L102.40938 187.30855L104.06563 187.30855L104.06563 195.9023L102.40938 195.9023ZM109.01875 193.91792L110.65938 194.19917Q110.34688 195.10542 109.65938 195.57417Q108.97188 196.04292 107.95625 196.04292Q106.33125 196.04292 105.55 194.98042Q104.925 194.13667 104.925 192.8398Q104.925 191.29292 105.7375 190.41792Q106.55 189.54292 107.78438 189.54292Q109.175 189.54292 109.97188 190.4648Q110.78438 191.37105 110.7375 193.26167L106.6125 193.26167Q106.64375 193.99605 107.01875 194.4023Q107.39375 194.80855 107.97188 194.80855Q108.34688 194.80855 108.6125 194.60542Q108.87813 194.38667 109.01875 193.91792ZM109.1125 192.26167Q109.09688 191.54292 108.7375 191.16792Q108.39375 190.79292 107.87813 190.79292Q107.34688 190.79292 106.9875 191.18355Q106.64375 191.5898 106.64375 192.26167L109.1125 192.26167ZM113.64375 191.57417L112.14375 191.30855Q112.39375 190.4023 113.00313 189.98042Q113.62813 189.54292 114.84688 189.54292Q115.94063 189.54292 116.47188 189.80855Q117.01875 190.05855 117.2375 190.4648Q117.45625 190.85542 117.45625 191.93355L117.44063 193.85542Q117.44063 194.68355 117.51875 195.07417Q117.59688 195.44917 117.81563 195.9023L116.19063 195.9023Q116.12813 195.73042 116.03438 195.41792Q115.9875 195.26167 115.97188 195.2148Q115.55 195.63667 115.06563 195.8398Q114.59688 196.04292 114.05 196.04292Q113.08125 196.04292 112.51875 195.5273Q111.97188 194.99605 111.97188 194.19917Q111.97188 193.66792 112.22188 193.26167Q112.4875 192.85542 112.94063 192.63667Q113.39375 192.4023 114.25313 192.24605Q115.39375 192.0273 115.84688 191.8398L115.84688 191.68355Q115.84688 191.19917 115.6125 190.99605Q115.37813 190.79292 114.72188 190.79292Q114.28438 190.79292 114.03438 190.9648Q113.8 191.13667 113.64375 191.57417ZM115.84688 192.91792Q115.53438 193.01167 114.84688 193.16792Q114.15938 193.30855 113.94063 193.44917Q113.62813 193.68355 113.62813 194.0273Q113.62813 194.37105 113.87813 194.63667Q114.14375 194.88667 114.53438 194.88667Q114.9875 194.88667 115.39375 194.5898Q115.69063 194.37105 115.78438 194.04292Q115.84688 193.8398 115.84688 193.24605L115.84688 192.91792ZM120.9875 195.9023L119.34688 195.9023L119.34688 189.68355L120.87813 189.68355L120.87813 190.55855Q121.26875 189.93355 121.58125 189.74605Q121.89375 189.54292 122.28438 189.54292Q122.84688 189.54292 123.37813 189.85542L122.8625 191.2773Q122.44063 191.01167 122.09688 191.01167Q121.7375 191.01167 121.50313 191.2148Q121.26875 191.4023 121.12813 191.9023Q120.9875 192.38667 120.9875 193.98042L120.9875 195.9023ZM130.06563 195.9023L128.425 195.9023L128.425 192.73042Q128.425 191.7148 128.31563 191.41792Q128.22188 191.12105 127.97188 190.9648Q127.7375 190.79292 127.40938 190.79292Q126.97188 190.79292 126.62813 191.0273Q126.3 191.26167 126.175 191.6523Q126.05 192.04292 126.05 193.0898L126.05 195.9023L124.39375 195.9023L124.39375 189.68355L125.925 189.68355L125.925 190.5898Q126.7375 189.54292 127.9875 189.54292Q128.51875 189.54292 128.97188 189.74605Q129.425 189.93355 129.65938 190.24605Q129.89375 190.54292 129.97188 190.93355Q130.06563 191.30855 130.06563 192.0273L130.06563 195.9023ZM131.40938 188.8398L131.40938 187.30855L133.06563 187.30855L133.06563 188.8398L131.40938 188.8398ZM131.40938 195.9023L131.40938 189.68355L133.06563 189.68355L133.06563 195.9023L131.40938 195.9023ZM140.06563 195.9023L138.425 195.9023L138.425 192.73042Q138.425 191.7148 138.31563 191.41792Q138.22188 191.12105 137.97188 190.9648Q137.7375 190.79292 137.40938 190.79292Q136.97188 190.79292 136.62813 191.0273Q136.3 191.26167 136.175 191.6523Q136.05 192.04292 136.05 193.0898L136.05 195.9023L134.39375 195.9023L134.39375 189.68355L135.925 189.68355L135.925 190.5898Q136.7375 189.54292 137.9875 189.54292Q138.51875 189.54292 138.97188 189.74605Q139.425 189.93355 139.65938 190.24605Q139.89375 190.54292 139.97188 190.93355Q140.06563 191.30855 140.06563 192.0273L140.06563 195.9023ZM141.25313 196.30855L143.14375 196.54292Q143.19063 196.87105 143.3625 196.99605Q143.59688 197.16792 144.09688 197.16792Q144.7375 197.16792 145.06563 196.98042Q145.28438 196.8398 145.39375 196.55855Q145.47188 196.35542 145.47188 195.80855L145.47188 194.88667Q144.72188 195.9023 143.59688 195.9023Q142.34688 195.9023 141.6125 194.8398Q141.05 193.99605 141.05 192.76167Q141.05 191.18355 141.8 190.37105Q142.55 189.54292 143.675 189.54292Q144.81563 189.54292 145.56563 190.55855L145.56563 189.68355L147.1125 189.68355L147.1125 195.26167Q147.1125 196.37105 146.925 196.9023Q146.75313 197.44917 146.425 197.76167Q146.09688 198.07417 145.55 198.24605Q145.00313 198.43355 144.15938 198.43355Q142.58125 198.43355 141.90938 197.88667Q141.25313 197.3398 141.25313 196.51167Q141.25313 196.43355 141.25313 196.30855ZM142.7375 192.66792Q142.7375 193.6523 143.1125 194.12105Q143.50313 194.57417 144.06563 194.57417Q144.65938 194.57417 145.08125 194.10542Q145.50313 193.62105 145.50313 192.69917Q145.50313 191.73042 145.09688 191.26167Q144.70625 190.79292 144.09688 190.79292Q143.50313 190.79292 143.1125 191.26167Q142.7375 191.7148 142.7375 192.66792Z" fill-rule="nonzero"/><path fill="#000000" d="M119.44063 260.7069L119.44063 252.11316L121.12813 252.11316L124.64375 257.84753L124.64375 252.11316L126.25313 252.11316L126.25313 260.7069L124.51875 260.7069L121.05 255.09753L121.05 260.7069L119.44063 260.7069ZM127.03438 257.50378Q127.03438 256.69128 127.44063 255.92566Q127.84688 255.14441 128.58125 254.75378Q129.31563 254.34753 130.2375 254.34753Q131.64375 254.34753 132.55 255.26941Q133.45625 256.17566 133.45625 257.5819Q133.45625 258.98816 132.53438 259.92566Q131.62813 260.84753 130.25313 260.84753Q129.39375 260.84753 128.6125 260.4569Q127.84688 260.06628 127.44063 259.3319Q127.03438 258.5819 127.03438 257.50378ZM128.72188 257.59753Q128.72188 258.5194 129.15938 259.0194Q129.59688 259.50378 130.2375 259.50378Q130.89375 259.50378 131.31563 259.0194Q131.75313 258.5194 131.75313 257.5819Q131.75313 256.67566 131.31563 256.19128Q130.89375 255.69128 130.2375 255.69128Q129.59688 255.69128 129.15938 256.19128Q128.72188 256.67566 128.72188 257.59753ZM140.06563 260.7069L138.425 260.7069L138.425 257.53503Q138.425 256.5194 138.31563 256.22253Q138.22188 255.92566 137.97188 255.76941Q137.7375 255.59753 137.40938 255.59753Q136.97188 255.59753 136.62813 255.83191Q136.3 256.06628 136.175 256.4569Q136.05 256.84753 136.05 257.8944L136.05 260.7069L134.39375 260.7069L134.39375 254.48816L135.925 254.48816L135.925 255.39441Q136.7375 254.34753 137.9875 254.34753Q138.51875 254.34753 138.97188 254.55066Q139.425 254.73816 139.65938 255.05066Q139.89375 255.34753 139.97188 255.73816Q140.06563 256.11316 140.06563 256.8319L140.06563 260.7069ZM145.01875 258.72253L146.65938 259.00378Q146.34688 259.91003 145.65938 260.37878Q144.97188 260.84753 143.95625 260.84753Q142.33125 260.84753 141.55 259.78503Q140.925 258.94128 140.925 257.6444Q140.925 256.09753 141.7375 255.22253Q142.55 254.34753 143.78438 254.34753Q145.175 254.34753 145.97188 255.26941Q146.78438 256.17566 146.7375 258.06628L142.6125 258.06628Q142.64375 258.80066 143.01875 259.2069Q143.39375 259.61316 143.97188 259.61316Q144.34688 259.61316 144.6125 259.41003Q144.87813 259.19128 145.01875 258.72253ZM145.1125 257.06628Q145.09688 256.34753 144.7375 255.97253Q144.39375 255.59753 143.87813 255.59753Q143.34688 255.59753 142.9875 255.98816Q142.64375 256.3944 142.64375 257.06628L145.1125 257.06628Z" fill-rule="nonzero"/><path fill="#000000" d="M150.55 313.21564Q150.55 311.6844 150.8625 310.7625Q151.175 309.825 151.78438 309.325Q152.40938 308.825 153.34688 308.825Q154.03438 308.825 154.55 309.10626Q155.08125 309.3875 155.425 309.91876Q155.76875 310.4344 155.95625 311.1844Q156.14375 311.9344 156.14375 313.21564Q156.14375 314.73126 155.83125 315.65314Q155.53438 316.575 154.90938 317.09064Q154.3 317.59064 153.34688 317.59064Q152.1125 317.59064 151.39375 316.7Q150.55 315.6375 150.55 313.21564ZM151.62813 313.21564Q151.62813 315.325 152.12813 316.02814Q152.62813 316.73126 153.34688 316.73126Q154.08125 316.73126 154.56563 316.02814Q155.06563 315.325 155.06563 313.21564Q155.06563 311.09064 154.56563 310.40314Q154.08125 309.7 153.33125 309.7Q152.6125 309.7 152.175 310.3094Q151.62813 311.09064 151.62813 313.21564Z" fill-rule="nonzero"/><path fill="#000000" d="M293.18332 315.2L294.2927 315.10626Q294.4177 315.91876 294.8552 316.325Q295.30832 316.73126 295.94894 316.73126Q296.69894 316.73126 297.2302 316.15314Q297.76144 315.575 297.76144 314.6375Q297.76144 313.73126 297.24582 313.21564Q296.74582 312.6844 295.9177 312.6844Q295.4177 312.6844 294.99582 312.91876Q294.58957 313.15314 294.3552 313.5125L293.37082 313.3875L294.19894 308.98126L298.4802 308.98126L298.4802 309.98126L295.0427 309.98126L294.58957 312.29376Q295.3552 311.7469 296.19894 311.7469Q297.32394 311.7469 298.08957 312.52814Q298.87082 313.3094 298.87082 314.54376Q298.87082 315.7 298.19894 316.5594Q297.37082 317.59064 295.94894 317.59064Q294.77707 317.59064 294.02707 316.9344Q293.2927 316.27814 293.18332 315.2Z" fill-rule="nonzero"/><path fill="#000000" d="M436.28543 317.45L435.23856 317.45L435.23856 310.73126Q434.84793 311.09064 434.22293 311.46564Q433.61356 311.825 433.12918 311.9969L433.12918 310.98126Q434.00418 310.5594 434.66043 309.98126Q435.3323 309.3875 435.61356 308.825L436.28543 308.825L436.28543 317.45ZM439.31668 313.21564Q439.31668 311.6844 439.62918 310.7625Q439.94168 309.825 440.55106 309.325Q441.17606 308.825 442.11356 308.825Q442.80106 308.825 443.31668 309.10626Q443.84793 309.3875 444.19168 309.91876Q444.53543 310.4344 444.72293 311.1844Q444.91043 311.9344 444.91043 313.21564Q444.91043 314.73126 444.59793 315.65314Q444.30106 316.575 443.67606 317.09064Q443.06668 317.59064 442.11356 317.59064Q440.87918 317.59064 440.16043 316.7Q439.31668 315.6375 439.31668 313.21564ZM440.3948 313.21564Q440.3948 315.325 440.8948 316.02814Q441.3948 316.73126 442.11356 316.73126Q442.84793 316.73126 443.3323 316.02814Q443.8323 315.325 443.8323 313.21564Q443.8323 311.09064 443.3323 310.40314Q442.84793 309.7 442.09793 309.7Q441.37918 309.7 440.94168 310.3094Q440.3948 311.09064 440.3948 313.21564Z" fill-rule="nonzero"/><path fill="#000000" d="M578.91876 317.45L577.8719 317.45L577.8719 310.73126Q577.48126 311.09064 576.85626 311.46564Q576.2469 311.825 575.7625 311.9969L575.7625 310.98126Q576.6375 310.5594 577.29376 309.98126Q577.96564 309.3875 578.2469 308.825L578.91876 308.825L578.91876 317.45ZM581.95 315.2L583.0594 315.10626Q583.1844 315.91876 583.6219 316.325Q584.075 316.73126 584.71564 316.73126Q585.46564 316.73126 585.9969 316.15314Q586.52814 315.575 586.52814 314.6375Q586.52814 313.73126 586.0125 313.21564Q585.5125 312.6844 584.6844 312.6844Q584.1844 312.6844 583.7625 312.91876Q583.35626 313.15314 583.1219 313.5125L582.1375 313.3875L582.96564 308.98126L587.2469 308.98126L587.2469 309.98126L583.8094 309.98126L583.35626 312.29376Q584.1219 311.7469 584.96564 311.7469Q586.09064 311.7469 586.85626 312.52814Q587.6375 313.3094 587.6375 314.54376Q587.6375 315.7 586.96564 316.5594Q586.1375 317.59064 584.71564 317.59064Q583.54376 317.59064 582.79376 316.9344Q582.0594 316.27814 581.95 315.2Z" fill-rule="nonzero"/></svg>