<svg version="1.1" viewBox="0.0 0.0 585.0 371.0" fill="none" stroke="none" stroke-linecap="square" stroke-miterlimit="10" width="585" height="371" xmlns:xlink="http://www.w3.org/1999/xlink" xmlns="http://www.w3.org/2000/svg"><path fill="#ffffff" d="M0 0L585.0 0L585.0 371.0L0 371.0L0 0Z" fill-rule="nonzero"/><path fill="#0072b2" d="M292.5 18.55C371.24683 18.55 439.28653 73.57558 455.7573 150.58063C472.22803 227.58566 432.65076 305.62964 360.794 337.84247L326.647 261.67123C362.57538 245.56482 382.364 206.54283 374.12863 168.04031C365.89328 129.5378 331.8734 102.025 292.5 102.025Z" fill-rule="nonzero"/><path fill="#009f73" d="M224.206 33.15752C245.68625 23.528078 268.96008 18.55 292.5 18.55L292.5 102.025C280.73004 102.025 269.09314 104.51404 258.353 109.32876Z" fill-rule="nonzero"/><path fill="#d55f00" d="M135.37666 241.93192C105.885735 159.82034 144.59286 68.847496 224.206 33.15752L258.353 109.32876C218.54643 127.17375 199.19287 172.66017 213.93834 213.71596Z" fill-rule="nonzero"/><path fill="#e6d717" d="M360.794 337.84247C318.36386 356.86362 269.92334 357.32758 227.13663 339.12268C184.3499 320.9178 151.094 285.69363 135.37666 241.93192L213.93834 213.71596C221.797 235.59682 238.42496 253.2089 259.8183 262.31134C281.21167 271.4138 305.43192 271.1818 326.647 261.67123Z" fill-rule="nonzero"/><path fill="#ffffff" d="M418.68906 153.23532L418.68906 152.04782L425.18906 152.04782L425.18906 153.00095Q424.2203 154.01657 423.2828 155.70407Q422.3453 157.39157 421.82968 159.18845Q421.4703 160.43845 421.36093 161.93845L420.0953 161.93845Q420.11093 160.75095 420.54843 159.07907Q421.00156 157.4072 421.82968 155.86032Q422.67343 154.29782 423.61093 153.23532L418.68906 153.23532ZM431.25156 161.93845L430.01718 161.93845L430.01718 154.0947Q429.57968 154.51657 428.8453 154.95407Q428.12656 155.37595 427.56406 155.57907L427.56406 154.39157Q428.5953 153.9072 429.36093 153.2197Q430.14218 152.5322 430.45468 151.87595L431.25156 151.87595L431.25156 161.93845Z" fill-rule="nonzero"/><path fill="#ffffff" d="M236.55 313.84598L236.55 311.43973L232.19063 311.43973L232.19063 310.31473L236.76875 303.83035L237.76875 303.83035L237.76875 310.31473L239.12813 310.31473L239.12813 311.43973L237.76875 311.43973L237.76875 313.84598L236.55 313.84598ZM236.55 310.31473L236.55 305.7991L233.40938 310.31473L236.55 310.31473ZM240.6125 311.20535L241.83125 311.03348Q242.05 312.08035 242.55 312.5491Q243.06563 313.00223 243.8 313.00223Q244.675 313.00223 245.26875 312.40848Q245.8625 311.7991 245.8625 310.90848Q245.8625 310.06473 245.3 309.51785Q244.75313 308.97098 243.90938 308.97098Q243.55 308.97098 243.03438 309.09598L243.175 308.01785Q243.3 308.03348 243.3625 308.03348Q244.15938 308.03348 244.78438 307.62723Q245.40938 307.22098 245.40938 306.3616Q245.40938 305.68973 244.95625 305.25223Q244.50313 304.7991 243.76875 304.7991Q243.05 304.7991 242.56563 305.25223Q242.09688 305.68973 241.95625 306.59598L240.7375 306.37723Q240.95625 305.14285 241.75313 304.47098Q242.55 303.78348 243.7375 303.78348Q244.56563 303.78348 245.25313 304.14285Q245.94063 304.4866 246.3 305.09598Q246.675 305.70535 246.675 306.39285Q246.675 307.03348 246.33125 307.56473Q245.9875 308.09598 245.3 308.4241Q246.19063 308.62723 246.675 309.26785Q247.175 309.90848 247.175 310.89285Q247.175 312.20535 246.20625 313.1116Q245.25313 314.01785 243.8 314.01785Q242.47188 314.01785 241.59688 313.2366Q240.7375 312.45535 240.6125 311.20535Z" fill-rule="nonzero"/><path fill="#ffffff" d="M161.74777 135.37813L162.96652 135.20625Q163.18527 136.25313 163.68527 136.72188Q164.2009 137.175 164.93527 137.175Q165.81027 137.175 166.40402 136.58125Q166.99777 135.97188 166.99777 135.08125Q166.99777 134.2375 166.43527 133.69063Q165.8884 133.14375 165.04465 133.14375Q164.68527 133.14375 164.16965 133.26875L164.31027 132.19063Q164.43527 132.20625 164.49777 132.20625Q165.29465 132.20625 165.91965 131.8Q166.54465 131.39375 166.54465 130.53438Q166.54465 129.8625 166.09152 129.425Q165.6384 128.97188 164.90402 128.97188Q164.18527 128.97188 163.7009 129.425Q163.23215 129.8625 163.09152 130.76875L161.87277 130.55Q162.09152 129.31563 162.8884 128.64375Q163.68527 127.95625 164.87277 127.95625Q165.7009 127.95625 166.3884 128.31563Q167.0759 128.65938 167.43527 129.26875Q167.81027 129.87813 167.81027 130.56563Q167.81027 131.20625 167.46652 131.7375Q167.12277 132.26875 166.43527 132.59688Q167.3259 132.8 167.81027 133.44063Q168.31027 134.08125 168.31027 135.06563Q168.31027 136.37813 167.34152 137.28438Q166.3884 138.19063 164.93527 138.19063Q163.60715 138.19063 162.73215 137.40938Q161.87277 136.62813 161.74777 135.37813ZM169.91965 135.70625L171.10715 135.59688Q171.24777 136.425 171.66965 136.8Q172.10715 137.175 172.7634 137.175Q173.3259 137.175 173.74777 136.925Q174.18527 136.65938 174.4509 136.22188Q174.73215 135.78438 174.91965 135.05Q175.10715 134.31563 175.10715 133.55Q175.10715 133.47188 175.09152 133.3Q174.73215 133.89375 174.09152 134.26875Q173.4509 134.62813 172.7009 134.62813Q171.4509 134.62813 170.59152 133.72188Q169.73215 132.81563 169.73215 131.34688Q169.73215 129.81563 170.62277 128.89375Q171.52902 127.95625 172.8884 127.95625Q173.85715 127.95625 174.66965 128.4875Q175.48215 129.00313 175.90402 129.9875Q176.3259 130.95625 176.3259 132.8Q176.3259 134.72188 175.90402 135.8625Q175.49777 137.00313 174.66965 137.59688Q173.84152 138.19063 172.73215 138.19063Q171.56027 138.19063 170.81027 137.53438Q170.0759 136.87813 169.91965 135.70625ZM174.9509 131.28438Q174.9509 130.22188 174.3884 129.59688Q173.8259 128.97188 173.04465 128.97188Q172.21652 128.97188 171.60715 129.64375Q170.99777 130.31563 170.99777 131.37813Q170.99777 132.33125 171.5759 132.94063Q172.15402 133.53438 172.99777 133.53438Q173.85715 133.53438 174.40402 132.94063Q174.9509 132.33125 174.9509 131.28438Z" fill-rule="nonzero"/><path fill="#ffffff" d="M261.1572 56.967186L259.92282 56.967186L259.92282 49.123436Q259.48532 49.54531 258.75095 49.98281Q258.0322 50.404686 257.4697 50.60781L257.4697 49.42031Q258.50095 48.935936 259.26657 48.248436Q260.04782 47.560936 260.36032 46.904686L261.1572 46.904686L261.1572 56.967186ZM269.1572 56.967186L267.92282 56.967186L267.92282 49.123436Q267.48532 49.54531 266.75095 49.98281Q266.0322 50.404686 265.4697 50.60781L265.4697 49.42031Q266.50095 48.935936 267.26657 48.248436Q268.04782 47.560936 268.36032 46.904686L269.1572 46.904686L269.1572 56.967186Z" fill-rule="nonzero"/><path fill="#1a1a1a" d="M19.471874 29.55L19.471874 21.034374L21.20625 21.034374L21.20625 28.096874L25.51875 28.096874L25.51875 29.55L19.471874 29.55ZM26.471874 29.55L26.471874 21.034374L28.20625 21.034374L28.20625 28.096874L32.51875 28.096874L32.51875 29.55L26.471874 29.55ZM33.39375 29.55L33.39375 20.95625L36.003124 20.95625L37.55 26.815624L39.096874 20.95625L41.690624 20.95625L41.690624 29.55L40.08125 29.55L40.08125 22.784374L38.378124 29.55L36.70625 29.55L35.01875 22.784374L35.01875 29.55L33.39375 29.55Z" fill-rule="nonzero"/><path fill="#9e9e9e" d="M24.64375 40.065624L23.05 40.2375Q22.9875 39.753124 22.7375 39.51875Q22.4875 39.284374 22.096874 39.284374Q21.58125 39.284374 21.221874 39.753124Q20.8625 40.221874 20.76875 41.690624Q21.378124 40.971874 22.3 40.971874Q23.33125 40.971874 24.065624 41.753124Q24.8 42.534374 24.8 43.784374Q24.8 45.096874 24.01875 45.89375Q23.253124 46.690624 22.034374 46.690624Q20.7375 46.690624 19.89375 45.690624Q19.065624 44.675 19.065624 42.378124Q19.065624 40.003124 19.925 38.971874Q20.8 37.925 22.20625 37.925Q23.175 37.925 23.815624 38.471874Q24.45625 39.01875 24.64375 40.065624ZM20.909374 43.659374Q20.909374 44.45625 21.26875 44.89375Q21.64375 45.33125 22.1125 45.33125Q22.58125 45.33125 22.878124 44.971874Q23.190624 44.6125 23.190624 43.8Q23.190624 42.95625 22.8625 42.58125Q22.534374 42.190624 22.034374 42.190624Q21.565624 42.190624 21.2375 42.565624Q20.909374 42.925 20.909374 43.659374ZM26.409374 46.55L26.409374 44.909374L28.065624 44.909374L28.065624 46.55L26.409374 46.55ZM29.065624 39.6125L29.065624 38.08125L34.690624 38.08125L34.690624 39.26875Q33.9875 39.95625 33.26875 41.2375Q32.55 42.51875 32.175 43.971874Q31.8 45.409374 31.8 46.55L30.221874 46.55Q30.253124 44.76875 30.940624 42.925Q31.64375 41.065624 32.8 39.6125L29.065624 39.6125ZM36.065624 40.08125Q36.065624 38.925 36.565624 38.378124Q37.08125 37.815624 37.95625 37.815624Q38.846874 37.815624 39.346874 38.378124Q39.8625 38.925 39.8625 40.08125Q39.8625 41.2375 39.346874 41.8Q38.846874 42.346874 37.9875 42.346874Q37.08125 42.346874 36.565624 41.8Q36.065624 41.2375 36.065624 40.08125ZM37.3625 40.065624Q37.3625 40.909374 37.55 41.190624Q37.690624 41.409374 37.95625 41.409374Q38.221874 41.409374 38.3625 41.190624Q38.55 40.909374 38.55 40.065624Q38.55 39.2375 38.3625 38.95625Q38.221874 38.7375 37.95625 38.7375Q37.690624 38.7375 37.55 38.940624Q37.3625 39.2375 37.3625 40.065624ZM39.20625 46.878124L37.9875 46.878124L42.565624 37.815624L43.753124 37.815624L39.20625 46.878124ZM41.8625 44.628124Q41.8625 43.471874 42.3625 42.909374Q42.878124 42.346874 43.753124 42.346874Q44.64375 42.346874 45.14375 42.909374Q45.659374 43.471874 45.659374 44.628124Q45.659374 45.784374 45.14375 46.346874Q44.64375 46.89375 43.784374 46.89375Q42.878124 46.89375 42.3625 46.346874Q41.8625 45.784374 41.8625 44.628124ZM43.14375 44.6125Q43.14375 45.45625 43.346874 45.7375Q43.4875 45.95625 43.753124 45.95625Q44.01875 45.95625 44.159374 45.7375Q44.346874 45.45625 44.346874 44.6125Q44.346874 43.784374 44.159374 43.4875Q44.01875 43.284374 43.753124 43.284374Q43.4875 43.284374 43.346874 43.4875Q43.14375 43.784374 43.14375 44.6125Z" fill-rule="nonzero"/><path stroke="#757575" stroke-width="1.0" stroke-linecap="butt" d="M18.55 34.05L119.55 34.05L259.3266 30.405584" fill-rule="nonzero"/><path fill="#9e9e9e" d="M261.3266 30.405584C261.3266 29.301014 260.43115 28.405584 259.3266 28.405584C258.22202 28.405584 257.3266 29.301014 257.3266 30.405584C257.3266 31.510153 258.22202 32.405582 259.3266 32.405582C260.43115 32.405582 261.3266 31.510153 261.3266 30.405584" fill-rule="nonzero"/><path fill="#1a1a1a" d="M19.425 110.31104L22.58125 110.31104Q23.659374 110.31104 24.221874 110.48292Q24.971874 110.70167 25.503124 111.27979Q26.05 111.84229 26.33125 112.67042Q26.6125 113.48292 26.6125 114.68604Q26.6125 115.74854 26.3625 116.51417Q26.034374 117.45167 25.440624 118.02979Q24.9875 118.48292 24.221874 118.71729Q23.64375 118.90479 22.675 118.90479L19.425 118.90479L19.425 110.31104ZM21.159374 111.76417L21.159374 117.45167L22.440624 117.45167Q23.175 117.45167 23.503124 117.37354Q23.925 117.26417 24.190624 117.01417Q24.471874 116.76417 24.64375 116.18604Q24.83125 115.60792 24.83125 114.60792Q24.83125 113.62354 24.64375 113.09229Q24.471874 112.54542 24.159374 112.24854Q23.846874 111.95167 23.3625 111.84229Q22.9875 111.76417 21.925 111.76417L21.159374 111.76417ZM31.01875 116.92042L32.659374 117.20167Q32.346874 118.10792 31.659374 118.57667Q30.971874 119.04542 29.95625 119.04542Q28.33125 119.04542 27.55 117.98292Q26.925 117.13917 26.925 115.84229Q26.925 114.29542 27.7375 113.42042Q28.55 112.54542 29.784374 112.54542Q31.175 112.54542 31.971874 113.46729Q32.784374 114.37354 32.7375 116.26417L28.6125 116.26417Q28.64375 116.99854 29.01875 117.40479Q29.39375 117.81104 29.971874 117.81104Q30.346874 117.81104 30.6125 117.60792Q30.878124 117.38917 31.01875 116.92042ZM31.1125 115.26417Q31.096874 114.54542 30.7375 114.17042Q30.39375 113.79542 29.878124 113.79542Q29.346874 113.79542 28.9875 114.18604Q28.64375 114.59229 28.64375 115.26417L31.1125 115.26417ZM38.01875 116.92042L39.659374 117.20167Q39.346874 118.10792 38.659374 118.57667Q37.971874 119.04542 36.95625 119.04542Q35.33125 119.04542 34.55 117.98292Q33.925 117.13917 33.925 115.84229Q33.925 114.29542 34.7375 113.42042Q35.55 112.54542 36.784374 112.54542Q38.175 112.54542 38.971874 113.46729Q39.784374 114.37354 39.7375 116.26417L35.6125 116.26417Q35.64375 116.99854 36.01875 117.40479Q36.39375 117.81104 36.971874 117.81104Q37.346874 117.81104 37.6125 117.60792Q37.878124 117.38917 38.01875 116.92042ZM38.1125 115.26417Q38.096874 114.54542 37.7375 114.17042Q37.39375 113.79542 36.878124 113.79542Q36.346874 113.79542 35.9875 114.18604Q35.64375 114.59229 35.64375 115.26417L38.1125 115.26417ZM41.3625 112.68604L42.89375 112.68604L42.89375 113.59229Q43.20625 113.12354 43.70625 112.84229Q44.221874 112.54542 44.846874 112.54542Q45.925 112.54542 46.675 113.38917Q47.440624 114.23292 47.440624 115.76417Q47.440624 117.31104 46.675 118.18604Q45.909374 119.04542 44.83125 119.04542Q44.315624 119.04542 43.89375 118.84229Q43.471874 118.63917 43.01875 118.13917L43.01875 121.27979L41.3625 121.27979L41.3625 112.68604ZM42.9875 115.68604Q42.9875 116.73292 43.409374 117.23292Q43.83125 117.73292 44.425 117.73292Q45.003124 117.73292 45.378124 117.27979Q45.753124 116.81104 45.753124 115.76417Q45.753124 114.79542 45.3625 114.32667Q44.971874 113.84229 44.39375 113.84229Q43.784374 113.84229 43.378124 114.31104Q42.9875 114.77979 42.9875 115.68604ZM51.409374 118.90479L51.409374 110.31104L53.065624 110.31104L53.065624 118.90479L51.409374 118.90479ZM58.01875 116.92042L59.659374 117.20167Q59.346874 118.10792 58.659374 118.57667Q57.971874 119.04542 56.95625 119.04542Q55.33125 119.04542 54.55 117.98292Q53.925 117.13917 53.925 115.84229Q53.925 114.29542 54.7375 113.42042Q55.55 112.54542 56.784374 112.54542Q58.175 112.54542 58.971874 113.46729Q59.784374 114.37354 59.7375 116.26417L55.6125 116.26417Q55.64375 116.99854 56.01875 117.40479Q56.39375 117.81104 56.971874 117.81104Q57.346874 117.81104 57.6125 117.60792Q57.878124 117.38917 58.01875 116.92042ZM58.1125 115.26417Q58.096874 114.54542 57.7375 114.17042Q57.39375 113.79542 56.878124 113.79542Q56.346874 113.79542 55.9875 114.18604Q55.64375 114.59229 55.64375 115.26417L58.1125 115.26417ZM62.64375 114.57667L61.14375 114.31104Q61.39375 113.40479 62.003124 112.98292Q62.628124 112.54542 63.846874 112.54542Q64.94063 112.54542 65.47188 112.81104Q66.01875 113.06104 66.2375 113.46729Q66.45625 113.85792 66.45625 114.93604L66.44063 116.85792Q66.44063 117.68604 66.51875 118.07667Q66.59688 118.45167 66.81563 118.90479L65.19063 118.90479Q65.12813 118.73292 65.03438 118.42042Q64.9875 118.26417 64.97188 118.21729Q64.55 118.63917 64.06563 118.84229Q63.596874 119.04542 63.05 119.04542Q62.08125 119.04542 61.51875 118.52979Q60.971874 117.99854 60.971874 117.20167Q60.971874 116.67042 61.221874 116.26417Q61.4875 115.85792 61.940624 115.63917Q62.39375 115.40479 63.253124 115.24854Q64.39375 115.02979 64.84688 114.84229L64.84688 114.68604Q64.84688 114.20167 64.6125 113.99854Q64.37813 113.79542 63.721874 113.79542Q63.284374 113.79542 63.034374 113.96729Q62.8 114.13917 62.64375 114.57667ZM64.84688 115.92042Q64.53438 116.01417 63.846874 116.17042Q63.159374 116.31104 62.940624 116.45167Q62.628124 116.68604 62.628124 117.02979Q62.628124 117.37354 62.878124 117.63917Q63.14375 117.88917 63.534374 117.88917Q63.9875 117.88917 64.39375 117.59229Q64.69063 117.37354 64.78438 117.04542Q64.84688 116.84229 64.84688 116.24854L64.84688 115.92042ZM69.9875 118.90479L68.34688 118.90479L68.34688 112.68604L69.87813 112.68604L69.87813 113.56104Q70.26875 112.93604 70.58125 112.74854Q70.89375 112.54542 71.28438 112.54542Q71.84688 112.54542 72.37813 112.85792L71.8625 114.27979Q71.44063 114.01417 71.09688 114.01417Q70.7375 114.01417 70.50313 114.21729Q70.26875 114.40479 70.12813 114.90479Q69.9875 115.38917 69.9875 116.98292L69.9875 118.90479ZM79.06563 118.90479L77.425 118.90479L77.425 115.73292Q77.425 114.71729 77.31563 114.42042Q77.22188 114.12354 76.97188 113.96729Q76.7375 113.79542 76.40938 113.79542Q75.97188 113.79542 75.62813 114.02979Q75.3 114.26417 75.175 114.65479Q75.05 115.04542 75.05 116.09229L75.05 118.90479L73.39375 118.90479L73.39375 112.68604L74.925 112.68604L74.925 113.59229Q75.7375 112.54542 76.9875 112.54542Q77.51875 112.54542 77.97188 112.74854Q78.425 112.93604 78.65938 113.24854Q78.89375 113.54542 78.97188 113.93604Q79.06563 114.31104 79.06563 115.02979L79.06563 118.90479ZM80.40938 111.84229L80.40938 110.31104L82.06563 110.31104L82.06563 111.84229L80.40938 111.84229ZM80.40938 118.90479L80.40938 112.68604L82.06563 112.68604L82.06563 118.90479L80.40938 118.90479ZM89.06563 118.90479L87.425 118.90479L87.425 115.73292Q87.425 114.71729 87.31563 114.42042Q87.22188 114.12354 86.97188 113.96729Q86.7375 113.79542 86.40938 113.79542Q85.97188 113.79542 85.62813 114.02979Q85.3 114.26417 85.175 114.65479Q85.05 115.04542 85.05 116.09229L85.05 118.90479L83.39375 118.90479L83.39375 112.68604L84.925 112.68604L84.925 113.59229Q85.7375 112.54542 86.9875 112.54542Q87.51875 112.54542 87.97188 112.74854Q88.425 112.93604 88.65938 113.24854Q88.89375 113.54542 88.97188 113.93604Q89.06563 114.31104 89.06563 115.02979L89.06563 118.90479ZM90.25313 119.31104L92.14375 119.54542Q92.19063 119.87354 92.3625 119.99854Q92.59688 120.17042 93.09688 120.17042Q93.7375 120.17042 94.06563 119.98292Q94.28438 119.84229 94.39375 119.56104Q94.47188 119.35792 94.47188 118.81104L94.47188 117.88917Q93.72188 118.90479 92.59688 118.90479Q91.34688 118.90479 90.6125 117.84229Q90.05 116.99854 90.05 115.76417Q90.05 114.18604 90.8 113.37354Q91.55 112.54542 92.675 112.54542Q93.81563 112.54542 94.56563 113.56104L94.56563 112.68604L96.1125 112.68604L96.1125 118.26417Q96.1125 119.37354 95.925 119.90479Q95.75313 120.45167 95.425 120.76417Q95.09688 121.07667 94.55 121.24854Q94.00313 121.43604 93.15938 121.43604Q91.58125 121.43604 90.90938 120.88917Q90.25313 120.34229 90.25313 119.51417Q90.25313 119.43604 90.25313 119.31104ZM91.7375 115.67042Q91.7375 116.65479 92.1125 117.12354Q92.50313 117.57667 93.06563 117.57667Q93.65938 117.57667 94.08125 117.10792Q94.50313 116.62354 94.50313 115.70167Q94.50313 114.73292 94.09688 114.26417Q93.70625 113.79542 93.09688 113.79542Q92.50313 113.79542 92.1125 114.26417Q91.7375 114.71729 91.7375 115.67042Z" fill-rule="nonzero"/><path fill="#9e9e9e" d="M24.628124 134.37354L24.628124 135.90479L18.846874 135.90479Q18.940624 135.02979 19.409374 134.26416Q19.878124 133.48291 21.26875 132.20166Q22.378124 131.17041 22.628124 130.79541Q22.971874 130.27979 22.971874 129.77979Q22.971874 129.23291 22.675 128.93604Q22.378124 128.63916 21.8625 128.63916Q21.346874 128.63916 21.034374 128.95166Q20.7375 129.26416 20.690624 129.98291L19.05 129.82666Q19.190624 128.46729 19.95625 127.873535Q20.7375 127.279785 21.89375 127.279785Q23.175 127.279785 23.89375 127.967285Q24.628124 128.65479 24.628124 129.67041Q24.628124 130.24854 24.409374 130.77979Q24.20625 131.29541 23.753124 131.87354Q23.45625 132.24854 22.675 132.96729Q21.89375 133.68604 21.690624 133.92041Q21.4875 134.15479 21.346874 134.37354L24.628124 134.37354ZM26.003124 133.62354L27.596874 133.43604Q27.675 134.04541 28.003124 134.37354Q28.346874 134.68604 28.815624 134.68604Q29.33125 134.68604 29.675 134.29541Q30.01875 133.90479 30.01875 133.24854Q30.01875 132.63916 29.675 132.27979Q29.346874 131.90479 28.878124 131.90479Q28.55 131.90479 28.1125 132.02979L28.3 130.68604Q28.971874 130.70166 29.315624 130.40479Q29.675 130.09229 29.675 129.57666Q29.675 129.15479 29.409374 128.90479Q29.159374 128.63916 28.721874 128.63916Q28.3 128.63916 28.003124 128.93604Q27.70625 129.21729 27.64375 129.77979L26.128124 129.52979Q26.284374 128.74854 26.596874 128.27979Q26.925 127.811035 27.4875 127.54541Q28.065624 127.279785 28.76875 127.279785Q29.9875 127.279785 30.721874 128.04541Q31.315624 128.68604 31.315624 129.48291Q31.315624 130.60791 30.08125 131.27979Q30.83125 131.45166 31.26875 131.99854Q31.70625 132.54541 31.70625 133.32666Q31.70625 134.45166 30.878124 135.24854Q30.05 136.04541 28.83125 136.04541Q27.659374 136.04541 26.89375 135.37354Q26.128124 134.70166 26.003124 133.62354ZM33.409374 135.90479L33.409374 134.26416L35.065624 134.26416L35.065624 135.90479L33.409374 135.90479ZM37.471874 131.26416Q36.83125 130.99854 36.534374 130.52979Q36.253124 130.06104 36.253124 129.49854Q36.253124 128.52979 36.925 127.904785Q37.596874 127.279785 38.83125 127.279785Q40.05 127.279785 40.721874 127.904785Q41.409374 128.52979 41.409374 129.49854Q41.409374 130.09229 41.096874 130.56104Q40.784374 131.02979 40.221874 131.26416Q40.940624 131.56104 41.315624 132.10791Q41.690624 132.65479 41.690624 133.37354Q41.690624 134.56104 40.925 135.31104Q40.175 136.06104 38.909374 136.06104Q37.7375 136.06104 36.95625 135.43604Q36.034374 134.71729 36.034374 133.45166Q36.034374 132.74854 36.378124 132.17041Q36.721874 131.59229 37.471874 131.26416ZM37.815624 129.60791Q37.815624 130.10791 38.08125 130.38916Q38.3625 130.65479 38.83125 130.65479Q39.3 130.65479 39.58125 130.37354Q39.8625 130.09229 39.8625 129.60791Q39.8625 129.13916 39.58125 128.87354Q39.3 128.59229 38.846874 128.59229Q38.378124 128.59229 38.096874 128.87354Q37.815624 129.15479 37.815624 129.60791ZM37.659374 133.29541Q37.659374 133.96729 38.003124 134.35791Q38.3625 134.73291 38.878124 134.73291Q39.39375 134.73291 39.721874 134.37354Q40.05 133.99854 40.05 133.31104Q40.05 132.70166 39.70625 132.34229Q39.378124 131.96729 38.8625 131.96729Q38.253124 131.96729 37.95625 132.38916Q37.659374 132.81104 37.659374 133.29541ZM43.065624 129.43604Q43.065624 128.27979 43.565624 127.73291Q44.08125 127.17041 44.95625 127.17041Q45.846874 127.17041 46.346874 127.73291Q46.8625 128.27979 46.8625 129.43604Q46.8625 130.59229 46.346874 131.15479Q45.846874 131.70166 44.9875 131.70166Q44.08125 131.70166 43.565624 131.15479Q43.065624 130.59229 43.065624 129.43604ZM44.3625 129.42041Q44.3625 130.26416 44.55 130.54541Q44.690624 130.76416 44.95625 130.76416Q45.221874 130.76416 45.3625 130.54541Q45.55 130.26416 45.55 129.42041Q45.55 128.59229 45.3625 128.31104Q45.221874 128.09229 44.95625 128.09229Q44.690624 128.09229 44.55 128.29541Q44.3625 128.59229 44.3625 129.42041ZM46.20625 136.23291L44.9875 136.23291L49.565624 127.17041L50.753124 127.17041L46.20625 136.23291ZM48.8625 133.98291Q48.8625 132.82666 49.3625 132.26416Q49.878124 131.70166 50.753124 131.70166Q51.64375 131.70166 52.14375 132.26416Q52.659374 132.82666 52.659374 133.98291Q52.659374 135.13916 52.14375 135.70166Q51.64375 136.24854 50.784374 136.24854Q49.878124 136.24854 49.3625 135.70166Q48.8625 135.13916 48.8625 133.98291ZM50.14375 133.96729Q50.14375 134.81104 50.346874 135.09229Q50.4875 135.31104 50.753124 135.31104Q51.01875 135.31104 51.159374 135.09229Q51.346874 134.81104 51.346874 133.96729Q51.346874 133.13916 51.159374 132.84229Q51.01875 132.63916 50.753124 132.63916Q50.4875 132.63916 50.346874 132.84229Q50.14375 133.13916 50.14375 133.96729Z" fill-rule="nonzero"/><path stroke="#757575" stroke-width="1.0" stroke-linecap="butt" d="M18.55 123.40479L119.55 123.40479L146.55844 123.40479" fill-rule="nonzero"/><path fill="#9e9e9e" d="M148.55844 123.40479C148.55844 122.300224 147.66301 121.40479 146.55844 121.40479C145.45387 121.40479 144.55844 122.300224 144.55844 123.40479C144.55844 124.50936 145.45387 125.40479 146.55844 125.40479C147.66301 125.40479 148.55844 124.50936 148.55844 123.40479" fill-rule="nonzero"/><path fill="#1a1a1a" d="M19.39375 326.94156L19.39375 318.3478L22.003124 318.3478L23.55 324.20718L25.096874 318.3478L27.690624 318.3478L27.690624 326.94156L26.08125 326.94156L26.08125 320.17593L24.378124 326.94156L22.70625 326.94156L21.01875 320.17593L21.01875 326.94156L19.39375 326.94156ZM30.64375 322.61343L29.14375 322.3478Q29.39375 321.44156 30.003124 321.01968Q30.628124 320.58218 31.846874 320.58218Q32.940624 320.58218 33.471874 320.8478Q34.01875 321.0978 34.2375 321.50406Q34.45625 321.89468 34.45625 322.9728L34.440624 324.89468Q34.440624 325.7228 34.51875 326.11343Q34.596874 326.48843 34.815624 326.94156L33.190624 326.94156Q33.128124 326.76968 33.034374 326.45718Q32.9875 326.30093 32.971874 326.25406Q32.55 326.67593 32.065624 326.87906Q31.596874 327.08218 31.05 327.08218Q30.08125 327.08218 29.51875 326.56656Q28.971874 326.0353 28.971874 325.23843Q28.971874 324.70718 29.221874 324.30093Q29.4875 323.89468 29.940624 323.67593Q30.39375 323.44156 31.253124 323.2853Q32.39375 323.06656 32.846874 322.87906L32.846874 322.7228Q32.846874 322.23843 32.6125 322.0353Q32.378124 321.83218 31.721874 321.83218Q31.284374 321.83218 31.034374 322.00406Q30.8 322.17593 30.64375 322.61343ZM32.846874 323.95718Q32.534374 324.05093 31.846874 324.20718Q31.159374 324.3478 30.940624 324.48843Q30.628124 324.7228 30.628124 325.06656Q30.628124 325.4103 30.878124 325.67593Q31.14375 325.92593 31.534374 325.92593Q31.9875 325.92593 32.39375 325.62906Q32.690624 325.4103 32.784374 325.08218Q32.846874 324.87906 32.846874 324.2853L32.846874 323.95718ZM41.83125 322.55093L40.221874 322.8478Q40.128124 322.36343 39.83125 322.12906Q39.55 321.87906 39.096874 321.87906Q38.471874 321.87906 38.096874 322.30093Q37.7375 322.7228 37.7375 323.7228Q37.7375 324.83218 38.1125 325.2853Q38.4875 325.73843 39.1125 325.73843Q39.58125 325.73843 39.878124 325.4728Q40.175 325.20718 40.3 324.55093L41.925 324.83218Q41.675 325.94156 40.95625 326.51968Q40.2375 327.08218 39.034374 327.08218Q37.675 327.08218 36.8625 326.2228Q36.05 325.36343 36.05 323.83218Q36.05 322.30093 36.8625 321.44156Q37.675 320.58218 39.065624 320.58218Q40.20625 320.58218 40.878124 321.06656Q41.55 321.55093 41.83125 322.55093ZM45.05 318.3478L45.05 321.50406Q45.846874 320.58218 46.95625 320.58218Q47.51875 320.58218 47.971874 320.80093Q48.440624 321.00406 48.675 321.33218Q48.909374 321.6603 48.9875 322.06656Q49.065624 322.45718 49.065624 323.2853L49.065624 326.94156L47.425 326.94156L47.425 323.6603Q47.425 322.67593 47.33125 322.4103Q47.2375 322.14468 47.003124 321.98843Q46.76875 321.83218 46.409374 321.83218Q46.003124 321.83218 45.675 322.0353Q45.346874 322.23843 45.190624 322.64468Q45.05 323.0353 45.05 323.81656L45.05 326.94156L43.409374 326.94156L43.409374 318.3478L45.05 318.3478ZM50.409374 319.87906L50.409374 318.3478L52.065624 318.3478L52.065624 319.87906L50.409374 319.87906ZM50.409374 326.94156L50.409374 320.7228L52.065624 320.7228L52.065624 326.94156L50.409374 326.94156ZM59.065624 326.94156L57.425 326.94156L57.425 323.76968Q57.425 322.75406 57.315624 322.45718Q57.221874 322.1603 56.971874 322.00406Q56.7375 321.83218 56.409374 321.83218Q55.971874 321.83218 55.628124 322.06656Q55.3 322.30093 55.175 322.69156Q55.05 323.08218 55.05 324.12906L55.05 326.94156L53.39375 326.94156L53.39375 320.7228L54.925 320.7228L54.925 321.62906Q55.7375 320.58218 56.9875 320.58218Q57.51875 320.58218 57.971874 320.7853Q58.425 320.9728 58.659374 321.2853Q58.89375 321.58218 58.971874 321.9728Q59.065624 322.3478 59.065624 323.06656L59.065624 326.94156ZM64.01875 324.95718L65.65938 325.23843Q65.34688 326.14468 64.65938 326.61343Q63.971874 327.08218 62.95625 327.08218Q61.33125 327.08218 60.55 326.01968Q59.925 325.17593 59.925 323.87906Q59.925 322.33218 60.7375 321.45718Q61.55 320.58218 62.784374 320.58218Q64.175 320.58218 64.97188 321.50406Q65.78438 322.4103 65.7375 324.30093L61.6125 324.30093Q61.64375 325.0353 62.01875 325.44156Q62.39375 325.8478 62.971874 325.8478Q63.346874 325.8478 63.6125 325.64468Q63.878124 325.42593 64.01875 324.95718ZM64.1125 323.30093Q64.09688 322.58218 63.7375 322.20718Q63.39375 321.83218 62.878124 321.83218Q62.346874 321.83218 61.9875 322.2228Q61.64375 322.62906 61.64375 323.30093L64.1125 323.30093ZM70.40938 326.94156L70.40938 318.3478L72.06563 318.3478L72.06563 326.94156L70.40938 326.94156ZM77.01875 324.95718L78.65938 325.23843Q78.34688 326.14468 77.65938 326.61343Q76.97188 327.08218 75.95625 327.08218Q74.33125 327.08218 73.55 326.01968Q72.925 325.17593 72.925 323.87906Q72.925 322.33218 73.7375 321.45718Q74.55 320.58218 75.78438 320.58218Q77.175 320.58218 77.97188 321.50406Q78.78438 322.4103 78.7375 324.30093L74.6125 324.30093Q74.64375 325.0353 75.01875 325.44156Q75.39375 325.8478 75.97188 325.8478Q76.34688 325.8478 76.6125 325.64468Q76.87813 325.42593 77.01875 324.95718ZM77.1125 323.30093Q77.09688 322.58218 76.7375 322.20718Q76.39375 321.83218 75.87813 321.83218Q75.34688 321.83218 74.9875 322.2228Q74.64375 322.62906 74.64375 323.30093L77.1125 323.30093ZM81.64375 322.61343L80.14375 322.3478Q80.39375 321.44156 81.00313 321.01968Q81.62813 320.58218 82.84688 320.58218Q83.94063 320.58218 84.47188 320.8478Q85.01875 321.0978 85.2375 321.50406Q85.45625 321.89468 85.45625 322.9728L85.44063 324.89468Q85.44063 325.7228 85.51875 326.11343Q85.59688 326.48843 85.81563 326.94156L84.19063 326.94156Q84.12813 326.76968 84.03438 326.45718Q83.9875 326.30093 83.97188 326.25406Q83.55 326.67593 83.06563 326.87906Q82.59688 327.08218 82.05 327.08218Q81.08125 327.08218 80.51875 326.56656Q79.97188 326.0353 79.97188 325.23843Q79.97188 324.70718 80.22188 324.30093Q80.4875 323.89468 80.94063 323.67593Q81.39375 323.44156 82.25313 323.2853Q83.39375 323.06656 83.84688 322.87906L83.84688 322.7228Q83.84688 322.23843 83.6125 322.0353Q83.37813 321.83218 82.72188 321.83218Q82.28438 321.83218 82.03438 322.00406Q81.8 322.17593 81.64375 322.61343ZM83.84688 323.95718Q83.53438 324.05093 82.84688 324.20718Q82.15938 324.3478 81.94063 324.48843Q81.62813 324.7228 81.62813 325.06656Q81.62813 325.4103 81.87813 325.67593Q82.14375 325.92593 82.53438 325.92593Q82.9875 325.92593 83.39375 325.62906Q83.69063 325.4103 83.78438 325.08218Q83.84688 324.87906 83.84688 324.2853L83.84688 323.95718ZM88.9875 326.94156L87.34688 326.94156L87.34688 320.7228L88.87813 320.7228L88.87813 321.5978Q89.26875 320.9728 89.58125 320.7853Q89.89375 320.58218 90.28438 320.58218Q90.84688 320.58218 91.37813 320.89468L90.8625 322.31656Q90.44063 322.05093 90.09688 322.05093Q89.7375 322.05093 89.50313 322.25406Q89.26875 322.44156 89.12813 322.94156Q88.9875 323.42593 88.9875 325.01968L88.9875 326.94156ZM98.06563 326.94156L96.425 326.94156L96.425 323.76968Q96.425 322.75406 96.31563 322.45718Q96.22188 322.1603 95.97188 322.00406Q95.7375 321.83218 95.40938 321.83218Q94.97188 321.83218 94.62813 322.06656Q94.3 322.30093 94.175 322.69156Q94.05 323.08218 94.05 324.12906L94.05 326.94156L92.39375 326.94156L92.39375 320.7228L93.925 320.7228L93.925 321.62906Q94.7375 320.58218 95.9875 320.58218Q96.51875 320.58218 96.97188 320.7853Q97.425 320.9728 97.65938 321.2853Q97.89375 321.58218 97.97188 321.9728Q98.06563 322.3478 98.06563 323.06656L98.06563 326.94156ZM99.40938 319.87906L99.40938 318.3478L101.06563 318.3478L101.06563 319.87906L99.40938 319.87906ZM99.40938 326.94156L99.40938 320.7228L101.06563 320.7228L101.06563 326.94156L99.40938 326.94156ZM108.06563 326.94156L106.425 326.94156L106.425 323.76968Q106.425 322.75406 106.31563 322.45718Q106.22188 322.1603 105.97188 322.00406Q105.7375 321.83218 105.40938 321.83218Q104.97188 321.83218 104.62813 322.06656Q104.3 322.30093 104.175 322.69156Q104.05 323.08218 104.05 324.12906L104.05 326.94156L102.39375 326.94156L102.39375 320.7228L103.925 320.7228L103.925 321.62906Q104.7375 320.58218 105.9875 320.58218Q106.51875 320.58218 106.97188 320.7853Q107.425 320.9728 107.65938 321.2853Q107.89375 321.58218 107.97188 321.9728Q108.06563 322.3478 108.06563 323.06656L108.06563 326.94156ZM109.25313 327.3478L111.14375 327.58218Q111.19063 327.9103 111.3625 328.0353Q111.59688 328.20718 112.09688 328.20718Q112.7375 328.20718 113.06563 328.01968Q113.28438 327.87906 113.39375 327.5978Q113.47188 327.39468 113.47188 326.8478L113.47188 325.92593Q112.72188 326.94156 111.59688 326.94156Q110.34688 326.94156 109.6125 325.87906Q109.05 325.0353 109.05 323.80093Q109.05 322.2228 109.8 321.4103Q110.55 320.58218 111.675 320.58218Q112.81563 320.58218 113.56563 321.5978L113.56563 320.7228L115.1125 320.7228L115.1125 326.30093Q115.1125 327.4103 114.925 327.94156Q114.75313 328.48843 114.425 328.80093Q114.09688 329.11343 113.55 329.2853Q113.00313 329.4728 112.15938 329.4728Q110.58125 329.4728 109.90938 328.92593Q109.25313 328.37906 109.25313 327.55093Q109.25313 327.4728 109.25313 327.3478ZM110.7375 323.70718Q110.7375 324.69156 111.1125 325.1603Q111.50313 325.61343 112.06563 325.61343Q112.65938 325.61343 113.08125 325.14468Q113.50313 324.6603 113.50313 323.73843Q113.50313 322.76968 113.09688 322.30093Q112.70625 321.83218 112.09688 321.83218Q111.50313 321.83218 111.1125 322.30093Q110.7375 322.75406 110.7375 323.70718Z" fill-rule="nonzero"/><path fill="#9e9e9e" d="M24.628124 342.4103L24.628124 343.94156L18.846874 343.94156Q18.940624 343.06656 19.409374 342.30093Q19.878124 341.51968 21.26875 340.23843Q22.378124 339.20718 22.628124 338.83218Q22.971874 338.31656 22.971874 337.81656Q22.971874 337.26968 22.675 336.9728Q22.378124 336.67593 21.8625 336.67593Q21.346874 336.67593 21.034374 336.98843Q20.7375 337.30093 20.690624 338.01968L19.05 337.86343Q19.190624 336.50406 19.95625 335.9103Q20.7375 335.31656 21.89375 335.31656Q23.175 335.31656 23.89375 336.00406Q24.628124 336.69156 24.628124 337.70718Q24.628124 338.2853 24.409374 338.81656Q24.20625 339.33218 23.753124 339.9103Q23.45625 340.2853 22.675 341.00406Q21.89375 341.7228 21.690624 341.95718Q21.4875 342.19156 21.346874 342.4103L24.628124 342.4103ZM31.64375 337.45718L30.05 337.62906Q29.9875 337.14468 29.7375 336.9103Q29.4875 336.67593 29.096874 336.67593Q28.58125 336.67593 28.221874 337.14468Q27.8625 337.61343 27.76875 339.08218Q28.378124 338.36343 29.3 338.36343Q30.33125 338.36343 31.065624 339.14468Q31.8 339.92593 31.8 341.17593Q31.8 342.48843 31.01875 343.2853Q30.253124 344.08218 29.034374 344.08218Q27.7375 344.08218 26.89375 343.08218Q26.065624 342.06656 26.065624 339.76968Q26.065624 337.39468 26.925 336.36343Q27.8 335.31656 29.20625 335.31656Q30.175 335.31656 30.815624 335.86343Q31.45625 336.4103 31.64375 337.45718ZM27.909374 341.05093Q27.909374 341.8478 28.26875 342.2853Q28.64375 342.7228 29.1125 342.7228Q29.58125 342.7228 29.878124 342.36343Q30.190624 342.00406 30.190624 341.19156Q30.190624 340.3478 29.8625 339.9728Q29.534374 339.58218 29.034374 339.58218Q28.565624 339.58218 28.2375 339.95718Q27.909374 340.31656 27.909374 341.05093ZM33.409374 343.94156L33.409374 342.30093L35.065624 342.30093L35.065624 343.94156L33.409374 343.94156ZM41.628124 342.4103L41.628124 343.94156L35.846874 343.94156Q35.940624 343.06656 36.409374 342.30093Q36.878124 341.51968 38.26875 340.23843Q39.378124 339.20718 39.628124 338.83218Q39.971874 338.31656 39.971874 337.81656Q39.971874 337.26968 39.675 336.9728Q39.378124 336.67593 38.8625 336.67593Q38.346874 336.67593 38.034374 336.98843Q37.7375 337.30093 37.690624 338.01968L36.05 337.86343Q36.190624 336.50406 36.95625 335.9103Q37.7375 335.31656 38.89375 335.31656Q40.175 335.31656 40.89375 336.00406Q41.628124 336.69156 41.628124 337.70718Q41.628124 338.2853 41.409374 338.81656Q41.20625 339.33218 40.753124 339.9103Q40.45625 340.2853 39.675 341.00406Q38.89375 341.7228 38.690624 341.95718Q38.4875 342.19156 38.346874 342.4103L41.628124 342.4103ZM43.065624 337.4728Q43.065624 336.31656 43.565624 335.76968Q44.08125 335.20718 44.95625 335.20718Q45.846874 335.20718 46.346874 335.76968Q46.8625 336.31656 46.8625 337.4728Q46.8625 338.62906 46.346874 339.19156Q45.846874 339.73843 44.9875 339.73843Q44.08125 339.73843 43.565624 339.19156Q43.065624 338.62906 43.065624 337.4728ZM44.3625 337.45718Q44.3625 338.30093 44.55 338.58218Q44.690624 338.80093 44.95625 338.80093Q45.221874 338.80093 45.3625 338.58218Q45.55 338.30093 45.55 337.45718Q45.55 336.62906 45.3625 336.3478Q45.221874 336.12906 44.95625 336.12906Q44.690624 336.12906 44.55 336.33218Q44.3625 336.62906 44.3625 337.45718ZM46.20625 344.26968L44.9875 344.26968L49.565624 335.20718L50.753124 335.20718L46.20625 344.26968ZM48.8625 342.01968Q48.8625 340.86343 49.3625 340.30093Q49.878124 339.73843 50.753124 339.73843Q51.64375 339.73843 52.14375 340.30093Q52.659374 340.86343 52.659374 342.01968Q52.659374 343.17593 52.14375 343.73843Q51.64375 344.2853 50.784374 344.2853Q49.878124 344.2853 49.3625 343.73843Q48.8625 343.17593 48.8625 342.01968ZM50.14375 342.00406Q50.14375 342.8478 50.346874 343.12906Q50.4875 343.3478 50.753124 343.3478Q51.01875 343.3478 51.159374 343.12906Q51.346874 342.8478 51.346874 342.00406Q51.346874 341.17593 51.159374 340.87906Q51.01875 340.67593 50.753124 340.67593Q50.4875 340.67593 50.346874 340.87906Q50.14375 341.17593 50.14375 342.00406Z" fill-rule="nonzero"/><path stroke="#757575" stroke-width="1.0" stroke-linecap="butt" d="M18.55 331.44156L119.55 331.44156L230.40479 331.44156" fill-rule="nonzero"/><path fill="#9e9e9e" d="M232.40479 331.44156C232.40479 330.33698 231.50937 329.44156 230.40479 329.44156C229.30022 329.44156 228.40479 330.33698 228.40479 331.44156C228.40479 332.5461 229.30022 333.44156 230.40479 333.44156C231.50937 333.44156 232.40479 332.5461 232.40479 331.44156" fill-rule="nonzero"/><path fill="#1a1a1a" d="M538.34064 147.8266L538.34064 139.23285L540.02814 139.23285L543.54376 144.96722L543.54376 139.23285L545.15314 139.23285L545.15314 147.8266L543.41876 147.8266L539.95 142.21722L539.95 147.8266L538.34064 147.8266ZM545.9344 144.62347Q545.9344 143.81097 546.34064 143.04535Q546.7469 142.2641 547.48126 141.87347Q548.21564 141.46722 549.1375 141.46722Q550.54376 141.46722 551.45 142.3891Q552.35626 143.29535 552.35626 144.7016Q552.35626 146.10785 551.4344 147.04535Q550.52814 147.96722 549.15314 147.96722Q548.29376 147.96722 547.5125 147.5766Q546.7469 147.18597 546.34064 146.4516Q545.9344 145.7016 545.9344 144.62347ZM547.6219 144.71722Q547.6219 145.6391 548.0594 146.1391Q548.4969 146.62347 549.1375 146.62347Q549.79376 146.62347 550.21564 146.1391Q550.65314 145.6391 550.65314 144.7016Q550.65314 143.79535 550.21564 143.31097Q549.79376 142.81097 549.1375 142.81097Q548.4969 142.81097 548.0594 143.31097Q547.6219 143.79535 547.6219 144.71722ZM558.96564 147.8266L557.325 147.8266L557.325 144.65472Q557.325 143.6391 557.21564 143.34222Q557.1219 143.04535 556.8719 142.8891Q556.6375 142.71722 556.3094 142.71722Q555.8719 142.71722 555.52814 142.9516Q555.2 143.18597 555.075 143.5766Q554.95 143.96722 554.95 145.0141L554.95 147.8266L553.29376 147.8266L553.29376 141.60785L554.825 141.60785L554.825 142.5141Q555.6375 141.46722 556.8875 141.46722Q557.41876 141.46722 557.8719 141.67035Q558.325 141.85785 558.5594 142.17035Q558.79376 142.46722 558.8719 142.85785Q558.96564 143.23285 558.96564 143.9516L558.96564 147.8266ZM563.91876 145.84222L565.5594 146.12347Q565.2469 147.02972 564.5594 147.49847Q563.8719 147.96722 562.85626 147.96722Q561.23126 147.96722 560.45 146.90472Q559.825 146.06097 559.825 144.7641Q559.825 143.21722 560.6375 142.34222Q561.45 141.46722 562.6844 141.46722Q564.075 141.46722 564.8719 142.3891Q565.6844 143.29535 565.6375 145.18597L561.5125 145.18597Q561.54376 145.92035 561.91876 146.3266Q562.29376 146.73285 562.8719 146.73285Q563.2469 146.73285 563.5125 146.52972Q563.77814 146.31097 563.91876 145.84222ZM564.0125 144.18597Q563.9969 143.46722 563.6375 143.09222Q563.29376 142.71722 562.77814 142.71722Q562.2469 142.71722 561.8875 143.10785Q561.54376 143.5141 561.54376 144.18597L564.0125 144.18597Z" fill-rule="nonzero"/><path fill="#9e9e9e" d="M537.1844 164.8266L537.1844 163.09222L533.66876 163.09222L533.66876 161.65472L537.40314 156.2016L538.77814 156.2016L538.77814 161.65472L539.85626 161.65472L539.85626 163.09222L538.77814 163.09222L538.77814 164.8266L537.1844 164.8266ZM537.1844 161.65472L537.1844 158.71722L535.21564 161.65472L537.1844 161.65472ZM540.90314 162.54535L542.4969 162.35785Q542.575 162.96722 542.90314 163.29535Q543.2469 163.60785 543.71564 163.60785Q544.23126 163.60785 544.575 163.21722Q544.91876 162.8266 544.91876 162.17035Q544.91876 161.56097 544.575 161.2016Q544.2469 160.8266 543.77814 160.8266Q543.45 160.8266 543.0125 160.9516L543.2 159.60785Q543.8719 159.62347 544.21564 159.3266Q544.575 159.0141 544.575 158.49847Q544.575 158.0766 544.3094 157.8266Q544.0594 157.56097 543.6219 157.56097Q543.2 157.56097 542.90314 157.85785Q542.60626 158.1391 542.54376 158.7016L541.02814 158.4516Q541.1844 157.67035 541.4969 157.2016Q541.825 156.73285 542.3875 156.46722Q542.96564 156.2016 543.66876 156.2016Q544.8875 156.2016 545.6219 156.96722Q546.21564 157.60785 546.21564 158.40472Q546.21564 159.52972 544.98126 160.2016Q545.73126 160.37347 546.16876 160.92035Q546.60626 161.46722 546.60626 162.24847Q546.60626 163.37347 545.77814 164.17035Q544.95 164.96722 543.73126 164.96722Q542.5594 164.96722 541.79376 164.29535Q541.02814 163.62347 540.90314 162.54535ZM548.3094 164.8266L548.3094 163.18597L549.96564 163.18597L549.96564 164.8266L548.3094 164.8266ZM550.90314 162.54535L552.4969 162.35785Q552.575 162.96722 552.90314 163.29535Q553.2469 163.60785 553.71564 163.60785Q554.23126 163.60785 554.575 163.21722Q554.91876 162.8266 554.91876 162.17035Q554.91876 161.56097 554.575 161.2016Q554.2469 160.8266 553.77814 160.8266Q553.45 160.8266 553.0125 160.9516L553.2 159.60785Q553.8719 159.62347 554.21564 159.3266Q554.575 159.0141 554.575 158.49847Q554.575 158.0766 554.3094 157.8266Q554.0594 157.56097 553.6219 157.56097Q553.2 157.56097 552.90314 157.85785Q552.60626 158.1391 552.54376 158.7016L551.02814 158.4516Q551.1844 157.67035 551.4969 157.2016Q551.825 156.73285 552.3875 156.46722Q552.96564 156.2016 553.66876 156.2016Q554.8875 156.2016 555.6219 156.96722Q556.21564 157.60785 556.21564 158.40472Q556.21564 159.52972 554.98126 160.2016Q555.73126 160.37347 556.16876 160.92035Q556.60626 161.46722 556.60626 162.24847Q556.60626 163.37347 555.77814 164.17035Q554.95 164.96722 553.73126 164.96722Q552.5594 164.96722 551.79376 164.29535Q551.02814 163.62347 550.90314 162.54535ZM557.96564 158.35785Q557.96564 157.2016 558.46564 156.65472Q558.98126 156.09222 559.85626 156.09222Q560.7469 156.09222 561.2469 156.65472Q561.7625 157.2016 561.7625 158.35785Q561.7625 159.5141 561.2469 160.0766Q560.7469 160.62347 559.8875 160.62347Q558.98126 160.62347 558.46564 160.0766Q557.96564 159.5141 557.96564 158.35785ZM559.2625 158.34222Q559.2625 159.18597 559.45 159.46722Q559.59064 159.68597 559.85626 159.68597Q560.1219 159.68597 560.2625 159.46722Q560.45 159.18597 560.45 158.34222Q560.45 157.5141 560.2625 157.23285Q560.1219 157.0141 559.85626 157.0141Q559.59064 157.0141 559.45 157.21722Q559.2625 157.5141 559.2625 158.34222ZM561.10626 165.15472L559.8875 165.15472L564.46564 156.09222L565.65314 156.09222L561.10626 165.15472ZM563.7625 162.90472Q563.7625 161.74847 564.2625 161.18597Q564.77814 160.62347 565.65314 160.62347Q566.54376 160.62347 567.04376 161.18597Q567.5594 161.74847 567.5594 162.90472Q567.5594 164.06097 567.04376 164.62347Q566.54376 165.17035 565.6844 165.17035Q564.77814 165.17035 564.2625 164.62347Q563.7625 164.06097 563.7625 162.90472ZM565.04376 162.8891Q565.04376 163.73285 565.2469 164.0141Q565.3875 164.23285 565.65314 164.23285Q565.91876 164.23285 566.0594 164.0141Q566.2469 163.73285 566.2469 162.8891Q566.2469 162.06097 566.0594 161.7641Q565.91876 161.56097 565.65314 161.56097Q565.3875 161.56097 565.2469 161.7641Q565.04376 162.06097 565.04376 162.8891Z" fill-rule="nonzero"/><path stroke="#757575" stroke-width="1.0" stroke-linecap="butt" d="M566.45 152.3266L465.45 152.3266L447.59442 152.3266" fill-rule="nonzero"/><path fill="#9e9e9e" d="M449.59442 152.3266C449.59442 151.22203 448.69897 150.3266 447.59442 150.3266C446.48984 150.3266 445.59442 151.22203 445.59442 152.3266C445.59442 153.43117 446.48984 154.3266 447.59442 154.3266C448.69897 154.3266 449.59442 153.43117 449.59442 152.3266" fill-rule="nonzero"/></svg>