<svg version="1.1" viewBox="0.0 0.0 557.0 371.0" fill="none" stroke="none" stroke-linecap="square" stroke-miterlimit="10" width="557" height="371" xmlns:xlink="http://www.w3.org/1999/xlink" xmlns="http://www.w3.org/2000/svg"><path fill="#ffffff" d="M0 0L557.0 0L557.0 371.0L0 371.0L0 0Z" fill-rule="nonzero"/><path stroke="#333333" stroke-width="1.0" stroke-linecap="butt" d="M84.5 44.5L84.5 300.5" fill-rule="nonzero"/><path stroke="#cccccc" stroke-width="1.0" stroke-linecap="butt" d="M198.5 44.5L198.5 300.5" fill-rule="nonzero"/><path stroke="#cccccc" stroke-width="1.0" stroke-linecap="butt" d="M311.5 44.5L311.5 300.5" fill-rule="nonzero"/><path stroke="#cccccc" stroke-width="1.0" stroke-linecap="butt" d="M424.5 44.5L424.5 300.5" fill-rule="nonzero"/><path stroke="#cccccc" stroke-width="1.0" stroke-linecap="butt" d="M538.5 44.5L538.5 300.5" fill-rule="nonzero"/><clipPath id="id_0"><path d="M84.55 44.916668L538.45 44.916668L538.45 300.45L84.55 300.45L84.55 44.916668Z" clip-rule="nonzero"/></clipPath><path stroke="#000000" stroke-width="2.0" stroke-linecap="butt" stroke-opacity="0.0" clip-path="url(#id_0)" d="M85.0 68.0L85.0 53.0L175.0 53.0L175.0 68.0Z" fill-rule="nonzero"/><path fill="#0072b2" clip-path="url(#id_0)" d="M85.0 68.0L85.0 53.0L175.0 53.0L175.0 68.0Z" fill-rule="nonzero"/><path stroke="#000000" stroke-width="2.0" stroke-linecap="butt" stroke-opacity="0.0" clip-path="url(#id_0)" d="M85.0 91.0L85.0 76.0L153.0 76.0L153.0 91.0Z" fill-rule="nonzero"/><path fill="#0072b2" clip-path="url(#id_0)" d="M85.0 91.0L85.0 76.0L153.0 76.0L153.0 91.0Z" fill-rule="nonzero"/><path stroke="#000000" stroke-width="2.0" stroke-linecap="butt" stroke-opacity="0.0" clip-path="url(#id_0)" d="M85.0 113.0L85.0 98.0L402.0 98.0L402.0 113.0Z" fill-rule="nonzero"/><path fill="#0072b2" clip-path="url(#id_0)" d="M85.0 113.0L85.0 98.0L402.0 98.0L402.0 113.0Z" fill-rule="nonzero"/><path stroke="#000000" stroke-width="2.0" stroke-linecap="butt" stroke-opacity="0.0" clip-path="url(#id_0)" d="M85.0 136.0L85.0 121.0L243.0 121.0L243.0 136.0Z" fill-rule="nonzero"/><path fill="#0072b2" clip-path="url(#id_0)" d="M85.0 136.0L85.0 121.0L243.0 121.0L243.0 136.0Z" fill-rule="nonzero"/><path stroke="#000000" stroke-width="2.0" stroke-linecap="butt" stroke-opacity="0.0" clip-path="url(#id_0)" d="M85.0 158.0L85.0 143.0L266.0 143.0L266.0 158.0Z" fill-rule="nonzero"/><path fill="#0072b2" clip-path="url(#id_0)" d="M85.0 158.0L85.0 143.0L266.0 143.0L266.0 158.0Z" fill-rule="nonzero"/><path stroke="#000000" stroke-width="2.0" stroke-linecap="butt" stroke-opacity="0.0" clip-path="url(#id_0)" d="M85.0 181.0L85.0 166.0L425.0 166.0L425.0 181.0Z" fill-rule="nonzero"/><path fill="#0072b2" clip-path="url(#id_0)" d="M85.0 181.0L85.0 166.0L425.0 166.0L425.0 181.0Z" fill-rule="nonzero"/><path stroke="#000000" stroke-width="2.0" stroke-linecap="butt" stroke-opacity="0.0" clip-path="url(#id_0)" d="M85.0 203.0L85.0 188.0L402.0 188.0L402.0 203.0Z" fill-rule="nonzero"/><path fill="#0072b2" clip-path="url(#id_0)" d="M85.0 203.0L85.0 188.0L402.0 188.0L402.0 203.0Z" fill-rule="nonzero"/><path stroke="#000000" stroke-width="2.0" stroke-linecap="butt" stroke-opacity="0.0" clip-path="url(#id_0)" d="M85.0 226.0L85.0 211.0L357.0 211.0L357.0 226.0Z" fill-rule="nonzero"/><path fill="#0072b2" clip-path="url(#id_0)" d="M85.0 226.0L85.0 211.0L357.0 211.0L357.0 226.0Z" fill-rule="nonzero"/><path stroke="#000000" stroke-width="2.0" stroke-linecap="butt" stroke-opacity="0.0" clip-path="url(#id_0)" d="M85.0 248.0L85.0 233.0L243.0 233.0L243.0 248.0Z" fill-rule="nonzero"/><path fill="#0072b2" clip-path="url(#id_0)" d="M85.0 248.0L85.0 233.0L243.0 233.0L243.0 248.0Z" fill-rule="nonzero"/><path stroke="#000000" stroke-width="2.0" stroke-linecap="butt" stroke-opacity="0.0" clip-path="url(#id_0)" d="M85.0 271.0L85.0 256.0L311.0 256.0L311.0 271.0Z" fill-rule="nonzero"/><path fill="#0072b2" clip-path="url(#id_0)" d="M85.0 271.0L85.0 256.0L311.0 256.0L311.0 271.0Z" fill-rule="nonzero"/><path stroke="#000000" stroke-width="2.0" stroke-linecap="butt" stroke-opacity="0.0" clip-path="url(#id_0)" d="M85.0 293.0L85.0 278.0L243.0 278.0L243.0 293.0Z" fill-rule="nonzero"/><path fill="#0072b2" clip-path="url(#id_0)" d="M85.0 293.0L85.0 278.0L243.0 278.0L243.0 293.0Z" fill-rule="nonzero"/><path stroke="#000000" stroke-width="2.0" stroke-linecap="butt" stroke-opacity="0.0" clip-path="url(#id_0)" d="M175.0 68.0L175.0 53.0L266.0 53.0L266.0 68.0Z" fill-rule="nonzero"/><path fill="#e6d717" clip-path="url(#id_0)" d="M175.0 68.0L175.0 53.0L266.0 53.0L266.0 68.0Z" fill-rule="nonzero"/><path stroke="#000000" stroke-width="2.0" stroke-linecap="butt" stroke-opacity="0.0" clip-path="url(#id_0)" d="M153.0 91.0L153.0 76.0L153.0 76.0L153.0 91.0Z" fill-rule="nonzero"/><path fill="#e6d717" clip-path="url(#id_0)" d="M153.0 91.0L153.0 76.0L153.0 76.0L153.0 91.0Z" fill-rule="nonzero"/><path stroke="#000000" stroke-width="2.0" stroke-linecap="butt" stroke-opacity="0.0" clip-path="url(#id_0)" d="M402.0 113.0L402.0 98.0L448.0 98.0L448.0 113.0Z" fill-rule="nonzero"/><path fill="#e6d717" clip-path="url(#id_0)" d="M402.0 113.0L402.0 98.0L448.0 98.0L448.0 113.0Z" fill-rule="nonzero"/><path stroke="#000000" stroke-width="2.0" stroke-linecap="butt" stroke-opacity="0.0" clip-path="url(#id_0)" d="M243.0 136.0L243.0 121.0L357.0 121.0L357.0 136.0Z" fill-rule="nonzero"/><path fill="#e6d717" clip-path="url(#id_0)" d="M243.0 136.0L243.0 121.0L357.0 121.0L357.0 136.0Z" fill-rule="nonzero"/><path stroke="#000000" stroke-width="2.0" stroke-linecap="butt" stroke-opacity="0.0" clip-path="url(#id_0)" d="M266.0 158.0L266.0 143.0L380.0 143.0L380.0 158.0Z" fill-rule="nonzero"/><path fill="#e6d717" clip-path="url(#id_0)" d="M266.0 158.0L266.0 143.0L380.0 143.0L380.0 158.0Z" fill-rule="nonzero"/><path stroke="#000000" stroke-width="2.0" stroke-linecap="butt" stroke-opacity="0.0" clip-path="url(#id_0)" d="M425.0 181.0L425.0 166.0L448.0 166.0L448.0 181.0Z" fill-rule="nonzero"/><path fill="#e6d717" clip-path="url(#id_0)" d="M425.0 181.0L425.0 166.0L448.0 166.0L448.0 181.0Z" fill-rule="nonzero"/><path stroke="#000000" stroke-width="2.0" stroke-linecap="butt" stroke-opacity="0.0" clip-path="url(#id_0)" d="M402.0 203.0L402.0 188.0L470.0 188.0L470.0 203.0Z" fill-rule="nonzero"/><path fill="#e6d717" clip-path="url(#id_0)" d="M402.0 203.0L402.0 188.0L470.0 188.0L470.0 203.0Z" fill-rule="nonzero"/><path stroke="#000000" stroke-width="2.0" stroke-linecap="butt" stroke-opacity="0.0" clip-path="url(#id_0)" d="M357.0 226.0L357.0 211.0L402.0 211.0L402.0 226.0Z" fill-rule="nonzero"/><path fill="#e6d717" clip-path="url(#id_0)" d="M357.0 226.0L357.0 211.0L402.0 211.0L402.0 226.0Z" fill-rule="nonzero"/><path stroke="#000000" stroke-width="2.0" stroke-linecap="butt" stroke-opacity="0.0" clip-path="url(#id_0)" d="M243.0 248.0L243.0 233.0L334.0 233.0L334.0 248.0Z" fill-rule="nonzero"/><path fill="#e6d717" clip-path="url(#id_0)" d="M243.0 248.0L243.0 233.0L334.0 233.0L334.0 248.0Z" fill-rule="nonzero"/><path stroke="#000000" stroke-width="2.0" stroke-linecap="butt" stroke-opacity="0.0" clip-path="url(#id_0)" d="M311.0 271.0L311.0 256.0L402.0 256.0L402.0 271.0Z" fill-rule="nonzero"/><path fill="#e6d717" clip-path="url(#id_0)" d="M311.0 271.0L311.0 256.0L402.0 256.0L402.0 271.0Z" fill-rule="nonzero"/><path stroke="#000000" stroke-width="2.0" stroke-linecap="butt" stroke-opacity="0.0" clip-path="url(#id_0)" d="M243.0 293.0L243.0 278.0L357.0 278.0L357.0 293.0Z" fill-rule="nonzero"/><path fill="#e6d717" clip-path="url(#id_0)" d="M243.0 293.0L243.0 278.0L357.0 278.0L357.0 293.0Z" fill-rule="nonzero"/><path stroke="#000000" stroke-width="2.0" stroke-linecap="butt" stroke-opacity="0.0" clip-path="url(#id_0)" d="M266.0 68.0L266.0 53.0L266.0 53.0L266.0 68.0Z" fill-rule="nonzero"/><path fill="#d55f00" clip-path="url(#id_0)" d="M266.0 68.0L266.0 53.0L266.0 53.0L266.0 68.0Z" fill-rule="nonzero"/><path stroke="#000000" stroke-width="2.0" stroke-linecap="butt" stroke-opacity="0.0" clip-path="url(#id_0)" d="M153.0 91.0L153.0 76.0L175.0 76.0L175.0 91.0Z" fill-rule="nonzero"/><path fill="#d55f00" clip-path="url(#id_0)" d="M153.0 91.0L153.0 76.0L175.0 76.0L175.0 91.0Z" fill-rule="nonzero"/><path stroke="#000000" stroke-width="2.0" stroke-linecap="butt" stroke-opacity="0.0" clip-path="url(#id_0)" d="M448.0 113.0L448.0 98.0L470.0 98.0L470.0 113.0Z" fill-rule="nonzero"/><path fill="#d55f00" clip-path="url(#id_0)" d="M448.0 113.0L448.0 98.0L470.0 98.0L470.0 113.0Z" fill-rule="nonzero"/><path stroke="#000000" stroke-width="2.0" stroke-linecap="butt" stroke-opacity="0.0" clip-path="url(#id_0)" d="M357.0 136.0L357.0 121.0L425.0 121.0L425.0 136.0Z" fill-rule="nonzero"/><path fill="#d55f00" clip-path="url(#id_0)" d="M357.0 136.0L357.0 121.0L425.0 121.0L425.0 136.0Z" fill-rule="nonzero"/><path stroke="#000000" stroke-width="2.0" stroke-linecap="butt" stroke-opacity="0.0" clip-path="url(#id_0)" d="M380.0 158.0L380.0 143.0L402.0 143.0L402.0 158.0Z" fill-rule="nonzero"/><path fill="#d55f00" clip-path="url(#id_0)" d="M380.0 158.0L380.0 143.0L402.0 143.0L402.0 158.0Z" fill-rule="nonzero"/><path stroke="#000000" stroke-width="2.0" stroke-linecap="butt" stroke-opacity="0.0" clip-path="url(#id_0)" d="M448.0 181.0L448.0 166.0L470.0 166.0L470.0 181.0Z" fill-rule="nonzero"/><path fill="#d55f00" clip-path="url(#id_0)" d="M448.0 181.0L448.0 166.0L470.0 166.0L470.0 181.0Z" fill-rule="nonzero"/><path stroke="#000000" stroke-width="2.0" stroke-linecap="butt" stroke-opacity="0.0" clip-path="url(#id_0)" d="M470.0 203.0L470.0 188.0L516.0 188.0L516.0 203.0Z" fill-rule="nonzero"/><path fill="#d55f00" clip-path="url(#id_0)" d="M470.0 203.0L470.0 188.0L516.0 188.0L516.0 203.0Z" fill-rule="nonzero"/><path stroke="#000000" stroke-width="2.0" stroke-linecap="butt" stroke-opacity="0.0" clip-path="url(#id_0)" d="M402.0 226.0L402.0 211.0L470.0 211.0L470.0 226.0Z" fill-rule="nonzero"/><path fill="#d55f00" clip-path="url(#id_0)" d="M402.0 226.0L402.0 211.0L470.0 211.0L470.0 226.0Z" fill-rule="nonzero"/><path stroke="#000000" stroke-width="2.0" stroke-linecap="butt" stroke-opacity="0.0" clip-path="url(#id_0)" d="M334.0 248.0L334.0 233.0L334.0 233.0L334.0 248.0Z" fill-rule="nonzero"/><path fill="#d55f00" clip-path="url(#id_0)" d="M334.0 248.0L334.0 233.0L334.0 233.0L334.0 248.0Z" fill-rule="nonzero"/><path stroke="#000000" stroke-width="2.0" stroke-linecap="butt" stroke-opacity="0.0" clip-path="url(#id_0)" d="M402.0 271.0L402.0 256.0L425.0 256.0L425.0 271.0Z" fill-rule="nonzero"/><path fill="#d55f00" clip-path="url(#id_0)" d="M402.0 271.0L402.0 256.0L425.0 256.0L425.0 271.0Z" fill-rule="nonzero"/><path stroke="#000000" stroke-width="2.0" stroke-linecap="butt" stroke-opacity="0.0" clip-path="url(#id_0)" d="M357.0 293.0L357.0 278.0L402.0 278.0L402.0 293.0Z" fill-rule="nonzero"/><path fill="#d55f00" clip-path="url(#id_0)" d="M357.0 293.0L357.0 278.0L402.0 278.0L402.0 293.0Z" fill-rule="nonzero"/><path stroke="#000000" stroke-width="2.0" stroke-linecap="butt" stroke-opacity="0.0" clip-path="url(#id_0)" d="M266.0 68.0L266.0 53.0L266.0 53.0L266.0 68.0Z" fill-rule="nonzero"/><path fill="#009f73" clip-path="url(#id_0)" d="M266.0 68.0L266.0 53.0L266.0 53.0L266.0 68.0Z" fill-rule="nonzero"/><path stroke="#000000" stroke-width="2.0" stroke-linecap="butt" stroke-opacity="0.0" clip-path="url(#id_0)" d="M175.0 91.0L175.0 76.0L175.0 76.0L175.0 91.0Z" fill-rule="nonzero"/><path fill="#009f73" clip-path="url(#id_0)" d="M175.0 91.0L175.0 76.0L175.0 76.0L175.0 91.0Z" fill-rule="nonzero"/><path stroke="#000000" stroke-width="2.0" stroke-linecap="butt" stroke-opacity="0.0" clip-path="url(#id_0)" d="M470.0 113.0L470.0 98.0L470.0 98.0L470.0 113.0Z" fill-rule="nonzero"/><path fill="#009f73" clip-path="url(#id_0)" d="M470.0 113.0L470.0 98.0L470.0 98.0L470.0 113.0Z" fill-rule="nonzero"/><path stroke="#000000" stroke-width="2.0" stroke-linecap="butt" stroke-opacity="0.0" clip-path="url(#id_0)" d="M425.0 136.0L425.0 121.0L425.0 121.0L425.0 136.0Z" fill-rule="nonzero"/><path fill="#009f73" clip-path="url(#id_0)" d="M425.0 136.0L425.0 121.0L425.0 121.0L425.0 136.0Z" fill-rule="nonzero"/><path stroke="#000000" stroke-width="2.0" stroke-linecap="butt" stroke-opacity="0.0" clip-path="url(#id_0)" d="M402.0 158.0L402.0 143.0L402.0 143.0L402.0 158.0Z" fill-rule="nonzero"/><path fill="#009f73" clip-path="url(#id_0)" d="M402.0 158.0L402.0 143.0L402.0 143.0L402.0 158.0Z" fill-rule="nonzero"/><path stroke="#000000" stroke-width="2.0" stroke-linecap="butt" stroke-opacity="0.0" clip-path="url(#id_0)" d="M470.0 181.0L470.0 166.0L470.0 166.0L470.0 181.0Z" fill-rule="nonzero"/><path fill="#009f73" clip-path="url(#id_0)" d="M470.0 181.0L470.0 166.0L470.0 166.0L470.0 181.0Z" fill-rule="nonzero"/><path stroke="#000000" stroke-width="2.0" stroke-linecap="butt" stroke-opacity="0.0" clip-path="url(#id_0)" d="M516.0 203.0L516.0 188.0L536.0 188.0C537.10455 188.0 538.0 188.89543 538.0 190.0L538.0 201.0C538.0 202.10457 537.10455 203.0 536.0 203.0Z" fill-rule="nonzero"/><path fill="#009f73" clip-path="url(#id_0)" d="M516.0 203.0L516.0 188.0L536.0 188.0C537.10455 188.0 538.0 188.89543 538.0 190.0L538.0 201.0C538.0 202.10457 537.10455 203.0 536.0 203.0Z" fill-rule="nonzero"/><path stroke="#000000" stroke-width="2.0" stroke-linecap="butt" stroke-opacity="0.0" clip-path="url(#id_0)" d="M470.0 226.0L470.0 211.0L470.0 211.0L470.0 226.0Z" fill-rule="nonzero"/><path fill="#009f73" clip-path="url(#id_0)" d="M470.0 226.0L470.0 211.0L470.0 211.0L470.0 226.0Z" fill-rule="nonzero"/><path stroke="#000000" stroke-width="2.0" stroke-linecap="butt" stroke-opacity="0.0" clip-path="url(#id_0)" d="M334.0 248.0L334.0 233.0L378.0 233.0C379.10458 233.0 380.0 233.89543 380.0 235.0L380.0 246.0C380.0 247.10457 379.10458 248.0 378.0 248.0Z" fill-rule="nonzero"/><path fill="#009f73" clip-path="url(#id_0)" d="M334.0 248.0L334.0 233.0L378.0 233.0C379.10458 233.0 380.0 233.89543 380.0 235.0L380.0 246.0C380.0 247.10457 379.10458 248.0 378.0 248.0Z" fill-rule="nonzero"/><path stroke="#000000" stroke-width="2.0" stroke-linecap="butt" stroke-opacity="0.0" clip-path="url(#id_0)" d="M425.0 271.0L425.0 256.0L446.0 256.0C447.10458 256.0 448.0 256.89542 448.0 258.0L448.0 269.0C448.0 270.10458 447.10458 271.0 446.0 271.0Z" fill-rule="nonzero"/><path fill="#009f73" clip-path="url(#id_0)" d="M425.0 271.0L425.0 256.0L446.0 256.0C447.10458 256.0 448.0 256.89542 448.0 258.0L448.0 269.0C448.0 270.10458 447.10458 271.0 446.0 271.0Z" fill-rule="nonzero"/><path stroke="#000000" stroke-width="2.0" stroke-linecap="butt" stroke-opacity="0.0" clip-path="url(#id_0)" d="M402.0 293.0L402.0 278.0L402.0 278.0L402.0 293.0Z" fill-rule="nonzero"/><path fill="#009f73" clip-path="url(#id_0)" d="M402.0 293.0L402.0 278.0L402.0 278.0L402.0 293.0Z" fill-rule="nonzero"/><path fill="#000000" d="M248.42188 349.45L248.42188 340.85626L249.57812 340.85626L254.09375 347.60626L254.09375 340.85626L255.1875 340.85626L255.1875 349.45L254.01562 349.45L249.5 342.7L249.5 349.45L248.42188 349.45ZM261.375 349.45L261.375 348.52814Q260.64062 349.59064 259.39062 349.59064Q258.84375 349.59064 258.35938 349.3875Q257.89062 349.16876 257.65625 348.85626Q257.42188 348.52814 257.32812 348.0594Q257.26562 347.7625 257.26562 347.075L257.26562 343.23126L258.32812 343.23126L258.32812 346.6844Q258.32812 347.4969 258.39062 347.79376Q258.48438 348.2 258.79688 348.45Q259.125 348.6844 259.60938 348.6844Q260.07812 348.6844 260.48438 348.45Q260.90625 348.2 261.07812 347.77814Q261.26562 347.35626 261.26562 346.5594L261.26562 343.23126L262.3125 343.23126L262.3125 349.45L261.375 349.45ZM264.29688 349.45L264.29688 343.23126L265.23438 343.23126L265.23438 344.10626Q265.53125 343.6375 266.01562 343.3719Q266.5 343.09064 267.125 343.09064Q267.8125 343.09064 268.25 343.3719Q268.70312 343.65314 268.875 344.16876Q269.625 343.09064 270.79688 343.09064Q271.73438 343.09064 272.21875 343.60626Q272.71875 344.10626 272.71875 345.1844L272.71875 349.45L271.67188 349.45L271.67188 345.52814Q271.67188 344.90314 271.5625 344.6219Q271.46875 344.34064 271.20312 344.16876Q270.9375 343.9969 270.5625 343.9969Q269.90625 343.9969 269.46875 344.4344Q269.04688 344.8719 269.04688 345.84064L269.04688 349.45L267.98438 349.45L267.98438 345.40314Q267.98438 344.7 267.71875 344.35626Q267.46875 343.9969 266.89062 343.9969Q266.4375 343.9969 266.0625 344.23126Q265.6875 344.46564 265.51562 344.91876Q265.34375 345.3719 265.34375 346.21564L265.34375 349.45L264.29688 349.45ZM276.26562 349.45L275.28125 349.45L275.28125 340.85626L276.34375 340.85626L276.34375 343.91876Q277.01562 343.09064 278.04688 343.09064Q278.625 343.09064 279.125 343.325Q279.64062 343.54376 279.96875 343.96564Q280.3125 344.3875 280.5 344.98126Q280.6875 345.575 280.6875 346.2469Q280.6875 347.84064 279.89062 348.71564Q279.09375 349.59064 278.0 349.59064Q276.89062 349.59064 276.26562 348.66876L276.26562 349.45ZM276.25 346.29376Q276.25 347.40314 276.5625 347.90314Q277.0625 348.71564 277.90625 348.71564Q278.59375 348.71564 279.09375 348.1219Q279.60938 347.52814 279.60938 346.325Q279.60938 345.10626 279.125 344.52814Q278.64062 343.95 277.95312 343.95Q277.26562 343.95 276.75 344.5594Q276.25 345.15314 276.25 346.29376ZM286.54688 347.45L287.64062 347.575Q287.39062 348.52814 286.6875 349.0594Q285.98438 349.59064 284.90625 349.59064Q283.54688 349.59064 282.73438 348.7469Q281.9375 347.90314 281.9375 346.3875Q281.9375 344.825 282.75 343.96564Q283.5625 343.09064 284.84375 343.09064Q286.09375 343.09064 286.875 343.9344Q287.67188 344.77814 287.67188 346.325Q287.67188 346.41876 287.67188 346.60626L283.03125 346.60626Q283.09375 347.6375 283.60938 348.1844Q284.125 348.71564 284.90625 348.71564Q285.48438 348.71564 285.89062 348.41876Q286.3125 348.10626 286.54688 347.45ZM283.09375 345.7469L286.5625 345.7469Q286.5 344.95 286.17188 344.5594Q285.65625 343.95 284.85938 343.95Q284.125 343.95 283.625 344.4344Q283.14062 344.91876 283.09375 345.7469ZM289.28125 349.45L289.28125 343.23126L290.23438 343.23126L290.23438 344.16876Q290.59375 343.5125 290.89062 343.3094Q291.20312 343.09064 291.57812 343.09064Q292.10938 343.09064 292.65625 343.41876L292.29688 344.40314Q291.90625 344.16876 291.53125 344.16876Q291.17188 344.16876 290.89062 344.3875Q290.625 344.59064 290.51562 344.96564Q290.32812 345.52814 290.32812 346.1844L290.32812 349.45L289.28125 349.45ZM295.90625 346.34064Q295.90625 344.60626 296.85938 343.77814Q297.65625 343.09064 298.8125 343.09064Q300.09375 343.09064 300.90625 343.9344Q301.73438 344.7625 301.73438 346.2469Q301.73438 347.45 301.375 348.1375Q301.01562 348.825 300.3125 349.21564Q299.625 349.59064 298.8125 349.59064Q297.51562 349.59064 296.70312 348.7625Q295.90625 347.91876 295.90625 346.34064ZM296.98438 346.34064Q296.98438 347.52814 297.5 348.1219Q298.03125 348.71564 298.8125 348.71564Q299.60938 348.71564 300.125 348.1219Q300.64062 347.52814 300.64062 346.3094Q300.64062 345.15314 300.10938 344.5594Q299.59375 343.96564 298.8125 343.96564Q298.03125 343.96564 297.5 344.5594Q296.98438 345.1375 296.98438 346.34064ZM303.54688 349.45L303.54688 344.04376L302.60938 344.04376L302.60938 343.23126L303.54688 343.23126L303.54688 342.5594Q303.54688 341.9344 303.65625 341.6375Q303.8125 341.21564 304.1875 340.96564Q304.57812 340.71564 305.26562 340.71564Q305.71875 340.71564 306.25 340.825L306.09375 341.73126Q305.76562 341.6844 305.46875 341.6844Q304.98438 341.6844 304.78125 341.8875Q304.59375 342.09064 304.59375 342.65314L304.59375 343.23126L305.8125 343.23126L305.8125 344.04376L304.59375 344.04376L304.59375 349.45L303.54688 349.45ZM309.29688 351.84064L309.29688 343.23126L310.25 343.23126L310.25 344.02814Q310.59375 343.5594 311.01562 343.325Q311.45312 343.09064 312.0625 343.09064Q312.85938 343.09064 313.46875 343.4969Q314.07812 343.90314 314.375 344.65314Q314.6875 345.40314 314.6875 346.29376Q314.6875 347.2469 314.34375 348.0125Q314.01562 348.77814 313.35938 349.1844Q312.70312 349.59064 311.98438 349.59064Q311.45312 349.59064 311.03125 349.3719Q310.60938 349.1375 310.34375 348.8094L310.34375 351.84064L309.29688 351.84064ZM310.25 346.3719Q310.25 347.575 310.73438 348.15314Q311.21875 348.71564 311.90625 348.71564Q312.60938 348.71564 313.10938 348.1219Q313.60938 347.52814 313.60938 346.27814Q313.60938 345.09064 313.125 344.5125Q312.64062 343.91876 311.95312 343.91876Q311.28125 343.91876 310.76562 344.54376Q310.25 345.16876 310.25 346.3719ZM320.375 349.45L320.375 348.52814Q319.64062 349.59064 318.39062 349.59064Q317.84375 349.59064 317.35938 349.3875Q316.89062 349.16876 316.65625 348.85626Q316.42188 348.52814 316.32812 348.0594Q316.26562 347.7625 316.26562 347.075L316.26562 343.23126L317.32812 343.23126L317.32812 346.6844Q317.32812 347.4969 317.39062 347.79376Q317.48438 348.2 317.79688 348.45Q318.125 348.6844 318.60938 348.6844Q319.07812 348.6844 319.48438 348.45Q319.90625 348.2 320.07812 347.77814Q320.26562 347.35626 320.26562 346.5594L320.26562 343.23126L321.3125 343.23126L321.3125 349.45L320.375 349.45ZM324.26562 349.45L323.28125 349.45L323.28125 340.85626L324.34375 340.85626L324.34375 343.91876Q325.01562 343.09064 326.04688 343.09064Q326.625 343.09064 327.125 343.325Q327.64062 343.54376 327.96875 343.96564Q328.3125 344.3875 328.5 344.98126Q328.6875 345.575 328.6875 346.2469Q328.6875 347.84064 327.89062 348.71564Q327.09375 349.59064 326.0 349.59064Q324.89062 349.59064 324.26562 348.66876L324.26562 349.45ZM324.25 346.29376Q324.25 347.40314 324.5625 347.90314Q325.0625 348.71564 325.90625 348.71564Q326.59375 348.71564 327.09375 348.1219Q327.60938 347.52814 327.60938 346.325Q327.60938 345.10626 327.125 344.52814Q326.64062 343.95 325.95312 343.95Q325.26562 343.95 324.75 344.5594Q324.25 345.15314 324.25 346.29376ZM330.26562 349.45L330.26562 340.85626L331.32812 340.85626L331.32812 349.45L330.26562 349.45ZM333.29688 342.075L333.29688 340.85626L334.35938 340.85626L334.35938 342.075L333.29688 342.075ZM333.29688 349.45L333.29688 343.23126L334.35938 343.23126L334.35938 349.45L333.29688 349.45ZM340.35938 347.16876L341.39062 347.3094Q341.21875 348.3719 340.51562 348.98126Q339.8125 349.59064 338.79688 349.59064Q337.51562 349.59064 336.73438 348.7625Q335.96875 347.91876 335.96875 346.35626Q335.96875 345.35626 336.29688 344.60626Q336.64062 343.84064 337.3125 343.46564Q338.0 343.09064 338.8125 343.09064Q339.8125 343.09064 340.45312 343.60626Q341.10938 344.10626 341.29688 345.0594L340.26562 345.21564Q340.125 344.59064 339.75 344.27814Q339.375 343.95 338.84375 343.95Q338.04688 343.95 337.54688 344.52814Q337.04688 345.09064 337.04688 346.325Q337.04688 347.59064 337.53125 348.15314Q338.01562 348.71564 338.78125 348.71564Q339.40625 348.71564 339.8125 348.34064Q340.23438 347.96564 340.35938 347.16876ZM346.35938 348.6844Q345.76562 349.1844 345.21875 349.3875Q344.6875 349.59064 344.0625 349.59064Q343.03125 349.59064 342.48438 349.09064Q341.9375 348.59064 341.9375 347.8094Q341.9375 347.35626 342.14062 346.98126Q342.34375 346.59064 342.6875 346.3719Q343.03125 346.1375 343.45312 346.02814Q343.75 345.9344 344.39062 345.85626Q345.65625 345.71564 346.26562 345.4969Q346.26562 345.27814 346.26562 345.23126Q346.26562 344.575 345.96875 344.3094Q345.5625 343.96564 344.76562 343.96564Q344.03125 343.96564 343.67188 344.23126Q343.3125 344.48126 343.14062 345.1375L342.10938 344.9969Q342.25 344.34064 342.57812 343.9344Q342.90625 343.52814 343.51562 343.3094Q344.125 343.09064 344.92188 343.09064Q345.71875 343.09064 346.21875 343.27814Q346.71875 343.46564 346.95312 343.7469Q347.1875 344.02814 347.28125 344.46564Q347.32812 344.73126 347.32812 345.4344L347.32812 346.84064Q347.32812 348.3094 347.39062 348.7Q347.46875 349.09064 347.67188 349.45L346.5625 349.45Q346.40625 349.1219 346.35938 348.6844ZM346.26562 346.325Q345.6875 346.5594 344.54688 346.73126Q343.89062 346.825 343.625 346.95Q343.35938 347.0594 343.20312 347.27814Q343.0625 347.4969 343.0625 347.77814Q343.0625 348.2 343.375 348.48126Q343.70312 348.7625 344.3125 348.7625Q344.92188 348.7625 345.39062 348.4969Q345.875 348.23126 346.09375 347.7625Q346.26562 347.40314 346.26562 346.71564L346.26562 346.325ZM351.59375 348.5125L351.75 349.4344Q351.29688 349.52814 350.95312 349.52814Q350.375 349.52814 350.0625 349.35626Q349.75 349.16876 349.60938 348.8719Q349.48438 348.575 349.48438 347.6219L349.48438 344.04376L348.71875 344.04376L348.71875 343.23126L349.48438 343.23126L349.48438 341.6844L350.53125 341.0594L350.53125 343.23126L351.59375 343.23126L351.59375 344.04376L350.53125 344.04376L350.53125 347.6844Q350.53125 348.1375 350.57812 348.2625Q350.64062 348.3875 350.76562 348.46564Q350.89062 348.54376 351.125 348.54376Q351.3125 348.54376 351.59375 348.5125ZM352.29688 342.075L352.29688 340.85626L353.35938 340.85626L353.35938 342.075L352.29688 342.075ZM352.29688 349.45L352.29688 343.23126L353.35938 343.23126L353.35938 349.45L352.29688 349.45ZM354.90625 346.34064Q354.90625 344.60626 355.85938 343.77814Q356.65625 343.09064 357.8125 343.09064Q359.09375 343.09064 359.90625 343.9344Q360.73438 344.7625 360.73438 346.2469Q360.73438 347.45 360.375 348.1375Q360.01562 348.825 359.3125 349.21564Q358.625 349.59064 357.8125 349.59064Q356.51562 349.59064 355.70312 348.7625Q354.90625 347.91876 354.90625 346.34064ZM355.98438 346.34064Q355.98438 347.52814 356.5 348.1219Q357.03125 348.71564 357.8125 348.71564Q358.60938 348.71564 359.125 348.1219Q359.64062 347.52814 359.64062 346.3094Q359.64062 345.15314 359.10938 344.5594Q358.59375 343.96564 357.8125 343.96564Q357.03125 343.96564 356.5 344.5594Q355.98438 345.1375 355.98438 346.34064ZM362.29688 349.45L362.29688 343.23126L363.23438 343.23126L363.23438 344.10626Q363.92188 343.09064 365.21875 343.09064Q365.78125 343.09064 366.25 343.29376Q366.73438 343.4969 366.96875 343.825Q367.20312 344.15314 367.29688 344.59064Q367.34375 344.8875 367.34375 345.6219L367.34375 349.45L366.29688 349.45L366.29688 345.66876Q366.29688 345.0125 366.17188 344.7Q366.04688 344.3875 365.73438 344.2Q365.42188 343.9969 365.0 343.9969Q364.32812 343.9969 363.82812 344.4344Q363.34375 344.85626 363.34375 346.04376L363.34375 349.45L362.29688 349.45ZM368.875 347.59064L369.90625 347.4344Q370.0 348.0594 370.39062 348.3875Q370.79688 348.71564 371.53125 348.71564Q372.25 348.71564 372.59375 348.4344Q372.95312 348.1375 372.95312 347.73126Q372.95312 347.3719 372.64062 347.16876Q372.42188 347.02814 371.5625 346.8094Q370.40625 346.5125 369.95312 346.3094Q369.51562 346.09064 369.28125 345.71564Q369.04688 345.34064 369.04688 344.8719Q369.04688 344.46564 369.23438 344.10626Q369.42188 343.7469 369.75 343.5125Q370.0 343.34064 370.42188 343.21564Q370.84375 343.09064 371.34375 343.09064Q372.0625 343.09064 372.60938 343.3094Q373.17188 343.5125 373.4375 343.8719Q373.70312 344.23126 373.79688 344.825L372.76562 344.96564Q372.70312 344.4969 372.35938 344.23126Q372.03125 343.95 371.40625 343.95Q370.6875 343.95 370.375 344.2Q370.0625 344.4344 370.0625 344.7625Q370.0625 344.96564 370.1875 345.1219Q370.32812 345.29376 370.59375 345.40314Q370.75 345.46564 371.53125 345.66876Q372.65625 345.98126 373.09375 346.16876Q373.53125 346.35626 373.78125 346.71564Q374.03125 347.075 374.03125 347.6219Q374.03125 348.15314 373.71875 348.6219Q373.42188 349.075 372.84375 349.34064Q372.26562 349.59064 371.53125 349.59064Q370.3125 349.59064 369.67188 349.09064Q369.04688 348.575 368.875 347.59064Z" fill-rule="nonzero"/><path fill="#000000" d="M29.550013 225.26146L20.956263 225.26146L20.956263 222.01146Q20.956263 221.16771 21.034388 220.71458Q21.143763 220.07396 21.440638 219.65208Q21.737513 219.21458 22.268763 218.96458Q22.800013 218.69896 23.440638 218.69896Q24.534388 218.69896 25.300013 219.40208Q26.050013 220.08958 26.050013 221.91771L26.050013 224.12083L29.550013 224.12083L29.550013 225.26146ZM25.050013 224.12083L25.050013 221.90208Q25.050013 220.79271 24.643763 220.33958Q24.221888 219.87083 23.471888 219.87083Q22.940638 219.87083 22.565638 220.15208Q22.175013 220.41771 22.050013 220.85521Q21.971888 221.15208 21.971888 221.91771L21.971888 224.12083L25.050013 224.12083ZM29.550013 213.30833L28.628138 213.30833Q29.690638 214.04271 29.690638 215.29271Q29.690638 215.83958 29.487513 216.32396Q29.268763 216.79271 28.956263 217.02708Q28.628138 217.26146 28.159388 217.35521Q27.862513 217.41771 27.175013 217.41771L23.331263 217.41771L23.331263 216.35521L26.784388 216.35521Q27.596888 216.35521 27.893763 216.29271Q28.300013 216.19896 28.550013 215.88646Q28.784388 215.55833 28.784388 215.07396Q28.784388 214.60521 28.550013 214.19896Q28.300013 213.77708 27.878138 213.60521Q27.456263 213.41771 26.659388 213.41771L23.331263 213.41771L23.331263 212.37083L29.550013 212.37083L29.550013 213.30833ZM29.550013 209.41771L29.550013 210.40208L20.956263 210.40208L20.956263 209.33958L24.018763 209.33958Q23.190638 208.66771 23.190638 207.63646Q23.190638 207.05833 23.425013 206.55833Q23.643763 206.04271 24.065638 205.71458Q24.487513 205.37083 25.081263 205.18333Q25.675013 204.99583 26.346888 204.99583Q27.940638 204.99583 28.815638 205.79271Q29.690638 206.58958 29.690638 207.68333Q29.690638 208.79271 28.768763 209.41771L29.550013 209.41771ZM26.393763 209.43333Q27.503138 209.43333 28.003138 209.12083Q28.815638 208.62083 28.815638 207.77708Q28.815638 207.08958 28.221888 206.58958Q27.628138 206.07396 26.425013 206.07396Q25.206263 206.07396 24.628138 206.55833Q24.050013 207.04271 24.050013 207.73021Q24.050013 208.41771 24.659388 208.93333Q25.253138 209.43333 26.393763 209.43333ZM29.550013 203.41771L20.956263 203.41771L20.956263 202.35521L29.550013 202.35521L29.550013 203.41771ZM22.175013 200.38646L20.956263 200.38646L20.956263 199.32396L22.175013 199.32396L22.175013 200.38646ZM29.550013 200.38646L23.331263 200.38646L23.331263 199.32396L29.550013 199.32396L29.550013 200.38646ZM27.268763 193.32396L27.409388 192.29271Q28.471888 192.46458 29.081263 193.16771Q29.690638 193.87083 29.690638 194.88646Q29.690638 196.16771 28.862513 196.94896Q28.018763 197.71458 26.456263 197.71458Q25.456263 197.71458 24.706263 197.38646Q23.940638 197.04271 23.565638 196.37083Q23.190638 195.68333 23.190638 194.87083Q23.190638 193.87083 23.706263 193.23021Q24.206263 192.57396 25.159388 192.38646L25.315638 193.41771Q24.690638 193.55833 24.378138 193.93333Q24.050013 194.30833 24.050013 194.83958Q24.050013 195.63646 24.628138 196.13646Q25.190638 196.63646 26.425013 196.63646Q27.690638 196.63646 28.253138 196.15208Q28.815638 195.66771 28.815638 194.90208Q28.815638 194.27708 28.440638 193.87083Q28.065638 193.44896 27.268763 193.32396ZM28.784388 187.32396Q29.284388 187.91771 29.487513 188.46458Q29.690638 188.99583 29.690638 189.62083Q29.690638 190.65208 29.190638 191.19896Q28.690638 191.74583 27.909388 191.74583Q27.456263 191.74583 27.081263 191.54271Q26.690638 191.33958 26.471888 190.99583Q26.237513 190.65208 26.128138 190.23021Q26.034388 189.93333 25.956263 189.29271Q25.815638 188.02708 25.596888 187.41771Q25.378138 187.41771 25.331263 187.41771Q24.675013 187.41771 24.409388 187.71458Q24.065638 188.12083 24.065638 188.91771Q24.065638 189.65208 24.331263 190.01146Q24.581263 190.37083 25.237513 190.54271L25.096888 191.57396Q24.440638 191.43333 24.034388 191.10521Q23.628138 190.77708 23.409388 190.16771Q23.190638 189.55833 23.190638 188.76146Q23.190638 187.96458 23.378138 187.46458Q23.565638 186.96458 23.846888 186.73021Q24.128138 186.49583 24.565638 186.40208Q24.831263 186.35521 25.534388 186.35521L26.940638 186.35521Q28.409388 186.35521 28.800013 186.29271Q29.190638 186.21458 29.550013 186.01146L29.550013 187.12083Q29.221888 187.27708 28.784388 187.32396ZM26.425013 187.41771Q26.659388 187.99583 26.831263 189.13646Q26.925013 189.79271 27.050013 190.05833Q27.159388 190.32396 27.378138 190.48021Q27.596888 190.62083 27.878138 190.62083Q28.300013 190.62083 28.581263 190.30833Q28.862513 189.98021 28.862513 189.37083Q28.862513 188.76146 28.596888 188.29271Q28.331263 187.80833 27.862513 187.58958Q27.503138 187.41771 26.815638 187.41771L26.425013 187.41771ZM28.612513 182.08958L29.534388 181.93333Q29.628138 182.38646 29.628138 182.73021Q29.628138 183.30833 29.456263 183.62083Q29.268763 183.93333 28.971888 184.07396Q28.675013 184.19896 27.721888 184.19896L24.143763 184.19896L24.143763 184.96458L23.331263 184.96458L23.331263 184.19896L21.784388 184.19896L21.159388 183.15208L23.331263 183.15208L23.331263 182.08958L24.143763 182.08958L24.143763 183.15208L27.784388 183.15208Q28.237513 183.15208 28.362513 183.10521Q28.487513 183.04271 28.565638 182.91771Q28.643763 182.79271 28.643763 182.55833Q28.643763 182.37083 28.612513 182.08958ZM22.175013 181.38646L20.956263 181.38646L20.956263 180.32396L22.175013 180.32396L22.175013 181.38646ZM29.550013 181.38646L23.331263 181.38646L23.331263 180.32396L29.550013 180.32396L29.550013 181.38646ZM26.440638 178.77708Q24.706263 178.77708 23.878138 177.82396Q23.190638 177.02708 23.190638 175.87083Q23.190638 174.58958 24.034388 173.77708Q24.862513 172.94896 26.346888 172.94896Q27.550013 172.94896 28.237513 173.30833Q28.925013 173.66771 29.315638 174.37083Q29.690638 175.05833 29.690638 175.87083Q29.690638 177.16771 28.862513 177.98021Q28.018763 178.77708 26.440638 178.77708ZM26.440638 177.69896Q27.628138 177.69896 28.221888 177.18333Q28.815638 176.65208 28.815638 175.87083Q28.815638 175.07396 28.221888 174.55833Q27.628138 174.04271 26.409388 174.04271Q25.253138 174.04271 24.659388 174.57396Q24.065638 175.08958 24.065638 175.87083Q24.065638 176.65208 24.659388 177.18333Q25.237513 177.69896 26.440638 177.69896ZM29.550013 171.38646L23.331263 171.38646L23.331263 170.44896L24.206263 170.44896Q23.190638 169.76146 23.190638 168.46458Q23.190638 167.90208 23.393763 167.43333Q23.596888 166.94896 23.925013 166.71458Q24.253138 166.48021 24.690638 166.38646Q24.987513 166.33958 25.721888 166.33958L29.550013 166.33958L29.550013 167.38646L25.768763 167.38646Q25.112513 167.38646 24.800013 167.51146Q24.487513 167.63646 24.300013 167.94896Q24.096888 168.26146 24.096888 168.68333Q24.096888 169.35521 24.534388 169.85521Q24.956263 170.33958 26.143763 170.33958L29.550013 170.33958L29.550013 171.38646ZM31.940638 161.43333L30.956263 161.55833Q31.050013 161.21458 31.050013 160.94896Q31.050013 160.60521 30.925013 160.40208Q30.815638 160.18333 30.612513 160.04271Q30.440638 159.94896 29.815638 159.71458Q29.737513 159.69896 29.565638 159.62083L23.331263 161.99583L23.331263 160.85521L26.925013 159.55833Q27.612513 159.30833 28.378138 159.10521Q27.643763 158.91771 26.956263 158.66771L23.331263 157.33958L23.331263 156.29271L29.659388 158.65208Q30.675013 159.04271 31.065638 159.24583Q31.596888 159.52708 31.831263 159.90208Q32.08126 160.26146 32.08126 160.76146Q32.08126 161.05833 31.940638 161.43333ZM27.550013 152.13646L27.675013 151.04271Q28.628138 151.29271 29.159388 151.99583Q29.690638 152.69896 29.690638 153.77708Q29.690638 155.13646 28.846888 155.94896Q28.003138 156.74583 26.487513 156.74583Q24.925013 156.74583 24.065638 155.93333Q23.190638 155.12083 23.190638 153.83958Q23.190638 152.58958 24.034388 151.80833Q24.878138 151.01146 26.425013 151.01146Q26.518763 151.01146 26.706263 151.01146L26.706263 155.65208Q27.737513 155.58958 28.284388 155.07396Q28.815638 154.55833 28.815638 153.77708Q28.815638 153.19896 28.518763 152.79271Q28.206263 152.37083 27.550013 152.13646ZM25.846888 155.58958L25.846888 152.12083Q25.050013 152.18333 24.659388 152.51146Q24.050013 153.02708 24.050013 153.82396Q24.050013 154.55833 24.534388 155.05833Q25.018763 155.54271 25.846888 155.58958ZM28.784388 145.32396Q29.284388 145.91771 29.487513 146.46458Q29.690638 146.99583 29.690638 147.62083Q29.690638 148.65208 29.190638 149.19896Q28.690638 149.74583 27.909388 149.74583Q27.456263 149.74583 27.081263 149.54271Q26.690638 149.33958 26.471888 148.99583Q26.237513 148.65208 26.128138 148.23021Q26.034388 147.93333 25.956263 147.29271Q25.815638 146.02708 25.596888 145.41771Q25.378138 145.41771 25.331263 145.41771Q24.675013 145.41771 24.409388 145.71458Q24.065638 146.12083 24.065638 146.91771Q24.065638 147.65208 24.331263 148.01146Q24.581263 148.37083 25.237513 148.54271L25.096888 149.57396Q24.440638 149.43333 24.034388 149.10521Q23.628138 148.77708 23.409388 148.16771Q23.190638 147.55833 23.190638 146.76146Q23.190638 145.96458 23.378138 145.46458Q23.565638 144.96458 23.846888 144.73021Q24.128138 144.49583 24.565638 144.40208Q24.831263 144.35521 25.534388 144.35521L26.940638 144.35521Q28.409388 144.35521 28.800013 144.29271Q29.190638 144.21458 29.550013 144.01146L29.550013 145.12083Q29.221888 145.27708 28.784388 145.32396ZM26.425013 145.41771Q26.659388 145.99583 26.831263 147.13646Q26.925013 147.79271 27.050013 148.05833Q27.159388 148.32396 27.378138 148.48021Q27.596888 148.62083 27.878138 148.62083Q28.300013 148.62083 28.581263 148.30833Q28.862513 147.98021 28.862513 147.37083Q28.862513 146.76146 28.596888 146.29271Q28.331263 145.80833 27.862513 145.58958Q27.503138 145.41771 26.815638 145.41771L26.425013 145.41771ZM29.550013 142.40208L23.331263 142.40208L23.331263 141.44896L24.268763 141.44896Q23.612513 141.08958 23.409388 140.79271Q23.190638 140.48021 23.190638 140.10521Q23.190638 139.57396 23.518763 139.02708L24.503138 139.38646Q24.268763 139.77708 24.268763 140.15208Q24.268763 140.51146 24.487513 140.79271Q24.690638 141.05833 25.065638 141.16771Q25.628138 141.35521 26.284388 141.35521L29.550013 141.35521L29.550013 142.40208Z" fill-rule="nonzero"/><path fill="#000000" d="M56.596874 63.09796L56.596874 64.11359L50.909374 64.11359Q50.909374 63.738586 51.034374 63.37921Q51.253124 62.801086 51.721874 62.238586Q52.20625 61.676086 53.1125 60.94171Q54.51875 59.78546 55.003124 59.113586Q55.503124 58.44171 55.503124 57.84796Q55.503124 57.22296 55.05 56.801086Q54.596874 56.363586 53.878124 56.363586Q53.1125 56.363586 52.659374 56.81671Q52.20625 57.269836 52.190624 58.082336L51.1125 57.97296Q51.221874 56.75421 51.940624 56.12921Q52.675 55.488586 53.909374 55.488586Q55.14375 55.488586 55.8625 56.176086Q56.58125 56.863586 56.58125 57.87921Q56.58125 58.394836 56.3625 58.894836Q56.159374 59.37921 55.659374 59.94171Q55.175 60.488586 54.05 61.44171Q53.096874 62.238586 52.815624 62.53546Q52.55 62.81671 52.378124 63.09796L56.596874 63.09796ZM58.05 59.87921Q58.05 58.34796 58.3625 57.426086Q58.675 56.488586 59.284374 55.988586Q59.909374 55.488586 60.846874 55.488586Q61.534374 55.488586 62.05 55.769836Q62.58125 56.051086 62.925 56.582336Q63.26875 57.09796 63.45625 57.84796Q63.64375 58.59796 63.64375 59.87921Q63.64375 61.394836 63.33125 62.31671Q63.034374 63.238586 62.409374 63.75421Q61.8 64.25421 60.846874 64.25421Q59.6125 64.25421 58.89375 63.363586Q58.05 62.301086 58.05 59.87921ZM59.128124 59.87921Q59.128124 61.988586 59.628124 62.69171Q60.128124 63.394836 60.846874 63.394836Q61.58125 63.394836 62.065624 62.69171Q62.565624 61.988586 62.565624 59.87921Q62.565624 57.75421 62.065624 57.06671Q61.58125 56.363586 60.83125 56.363586Q60.1125 56.363586 59.675 56.97296Q59.128124 57.75421 59.128124 59.87921ZM69.01875 64.11359L67.97188 64.11359L67.97188 57.394836Q67.58125 57.75421 66.95625 58.12921Q66.34688 58.488586 65.8625 58.66046L65.8625 57.644836Q66.7375 57.22296 67.39375 56.644836Q68.06563 56.051086 68.34688 55.488586L69.01875 55.488586L69.01875 64.11359ZM75.425 64.11359L75.425 62.051086L71.70625 62.051086L71.70625 61.082336L75.62813 55.519836L76.4875 55.519836L76.4875 61.082336L77.64375 61.082336L77.64375 62.051086L76.4875 62.051086L76.4875 64.11359L75.425 64.11359ZM75.425 61.082336L75.425 57.22296L72.7375 61.082336L75.425 61.082336Z" fill-rule="nonzero"/><path fill="#000000" d="M56.596874 85.61191L56.596874 86.62753L50.909374 86.62753Q50.909374 86.25253 51.034374 85.89316Q51.253124 85.31503 51.721874 84.75253Q52.20625 84.19003 53.1125 83.45566Q54.51875 82.29941 55.003124 81.62753Q55.503124 80.95566 55.503124 80.36191Q55.503124 79.73691 55.05 79.31503Q54.596874 78.87753 53.878124 78.87753Q53.1125 78.87753 52.659374 79.33066Q52.20625 79.78378 52.190624 80.59628L51.1125 80.48691Q51.221874 79.26816 51.940624 78.64316Q52.675 78.00253 53.909374 78.00253Q55.14375 78.00253 55.8625 78.69003Q56.58125 79.37753 56.58125 80.39316Q56.58125 80.90878 56.3625 81.40878Q56.159374 81.89316 55.659374 82.45566Q55.175 83.00253 54.05 83.95566Q53.096874 84.75253 52.815624 85.04941Q52.55 85.33066 52.378124 85.61191L56.596874 85.61191ZM58.05 82.39316Q58.05 80.86191 58.3625 79.94003Q58.675 79.00253 59.284374 78.50253Q59.909374 78.00253 60.846874 78.00253Q61.534374 78.00253 62.05 78.28378Q62.58125 78.56503 62.925 79.09628Q63.26875 79.61191 63.45625 80.36191Q63.64375 81.11191 63.64375 82.39316Q63.64375 83.90878 63.33125 84.83066Q63.034374 85.75253 62.409374 86.26816Q61.8 86.76816 60.846874 86.76816Q59.6125 86.76816 58.89375 85.87753Q58.05 84.81503 58.05 82.39316ZM59.128124 82.39316Q59.128124 84.50253 59.628124 85.20566Q60.128124 85.90878 60.846874 85.90878Q61.58125 85.90878 62.065624 85.20566Q62.565624 84.50253 62.565624 82.39316Q62.565624 80.26816 62.065624 79.58066Q61.58125 78.87753 60.83125 78.87753Q60.1125 78.87753 59.675 79.48691Q59.128124 80.26816 59.128124 82.39316ZM69.01875 86.62753L67.97188 86.62753L67.97188 79.90878Q67.58125 80.26816 66.95625 80.64316Q66.34688 81.00253 65.8625 81.17441L65.8625 80.15878Q66.7375 79.73691 67.39375 79.15878Q68.06563 78.56503 68.34688 78.00253L69.01875 78.00253L69.01875 86.62753ZM72.05 84.37753L73.15938 84.28378Q73.28438 85.09628 73.72188 85.50253Q74.175 85.90878 74.81563 85.90878Q75.56563 85.90878 76.09688 85.33066Q76.62813 84.75253 76.62813 83.81503Q76.62813 82.90878 76.1125 82.39316Q75.6125 81.86191 74.78438 81.86191Q74.28438 81.86191 73.8625 82.09628Q73.45625 82.33066 73.22188 82.69003L72.2375 82.56503L73.06563 78.15878L77.34688 78.15878L77.34688 79.15878L73.90938 79.15878L73.45625 81.47128Q74.22188 80.92441 75.06563 80.92441Q76.19063 80.92441 76.95625 81.70566Q77.7375 82.48691 77.7375 83.72128Q77.7375 84.87753 77.06563 85.73691Q76.2375 86.76816 74.81563 86.76816Q73.64375 86.76816 72.89375 86.11191Q72.15938 85.45566 72.05 84.37753Z" fill-rule="nonzero"/><path fill="#000000" d="M56.596874 108.125854L56.596874 109.14148L50.909374 109.14148Q50.909374 108.76648 51.034374 108.407104Q51.253124 107.82898 51.721874 107.26648Q52.20625 106.70398 53.1125 105.969604Q54.51875 104.813354 55.003124 104.14148Q55.503124 103.469604 55.503124 102.875854Q55.503124 102.250854 55.05 101.82898Q54.596874 101.39148 53.878124 101.39148Q53.1125 101.39148 52.659374 101.844604Q52.20625 102.29773 52.190624 103.11023L51.1125 103.000854Q51.221874 101.782104 51.940624 101.157104Q52.675 100.51648 53.909374 100.51648Q55.14375 100.51648 55.8625 101.20398Q56.58125 101.89148 56.58125 102.907104Q56.58125 103.42273 56.3625 103.92273Q56.159374 104.407104 55.659374 104.969604Q55.175 105.51648 54.05 106.469604Q53.096874 107.26648 52.815624 107.563354Q52.55 107.844604 52.378124 108.125854L56.596874 108.125854ZM58.05 104.907104Q58.05 103.375854 58.3625 102.45398Q58.675 101.51648 59.284374 101.01648Q59.909374 100.51648 60.846874 100.51648Q61.534374 100.51648 62.05 100.79773Q62.58125 101.07898 62.925 101.61023Q63.26875 102.125854 63.45625 102.875854Q63.64375 103.625854 63.64375 104.907104Q63.64375 106.42273 63.33125 107.344604Q63.034374 108.26648 62.409374 108.782104Q61.8 109.282104 60.846874 109.282104Q59.6125 109.282104 58.89375 108.39148Q58.05 107.32898 58.05 104.907104ZM59.128124 104.907104Q59.128124 107.01648 59.628124 107.719604Q60.128124 108.42273 60.846874 108.42273Q61.58125 108.42273 62.065624 107.719604Q62.565624 107.01648 62.565624 104.907104Q62.565624 102.782104 62.065624 102.094604Q61.58125 101.39148 60.83125 101.39148Q60.1125 101.39148 59.675 102.000854Q59.128124 102.782104 59.128124 104.907104ZM69.01875 109.14148L67.97188 109.14148L67.97188 102.42273Q67.58125 102.782104 66.95625 103.157104Q66.34688 103.51648 65.8625 103.688354L65.8625 102.67273Q66.7375 102.250854 67.39375 101.67273Q68.06563 101.07898 68.34688 100.51648L69.01875 100.51648L69.01875 109.14148ZM77.51875 102.657104L76.47188 102.73523Q76.33125 102.11023 76.08125 101.82898Q75.64375 101.375854 75.01875 101.375854Q74.51875 101.375854 74.12813 101.657104Q73.64375 102.032104 73.34688 102.73523Q73.06563 103.42273 73.05 104.70398Q73.425 104.125854 73.97188 103.844604Q74.53438 103.563354 75.14375 103.563354Q76.19063 103.563354 76.925 104.344604Q77.675 105.125854 77.675 106.344604Q77.675 107.157104 77.31563 107.86023Q76.97188 108.54773 76.3625 108.92273Q75.75313 109.282104 74.9875 109.282104Q73.65938 109.282104 72.83125 108.313354Q72.00313 107.344604 72.00313 105.125854Q72.00313 102.625854 72.925 101.500854Q73.72188 100.51648 75.08125 100.51648Q76.09688 100.51648 76.7375 101.094604Q77.39375 101.657104 77.51875 102.657104ZM73.22188 106.36023Q73.22188 106.907104 73.44063 107.407104Q73.675 107.89148 74.08125 108.157104Q74.50313 108.42273 74.97188 108.42273Q75.62813 108.42273 76.1125 107.89148Q76.59688 107.344604 76.59688 106.42273Q76.59688 105.532104 76.1125 105.01648Q75.64375 104.500854 74.925 104.500854Q74.20625 104.500854 73.70625 105.01648Q73.22188 105.532104 73.22188 106.36023Z" fill-rule="nonzero"/><path fill="#000000" d="M56.596874 130.6398L56.596874 131.65543L50.909374 131.65543Q50.909374 131.28043 51.034374 130.92105Q51.253124 130.34293 51.721874 129.78043Q52.20625 129.21793 53.1125 128.48355Q54.51875 127.3273 55.003124 126.655426Q55.503124 125.98355 55.503124 125.3898Q55.503124 124.7648 55.05 124.342926Q54.596874 123.905426 53.878124 123.905426Q53.1125 123.905426 52.659374 124.35855Q52.20625 124.811676 52.190624 125.624176L51.1125 125.5148Q51.221874 124.29605 51.940624 123.67105Q52.675 123.030426 53.909374 123.030426Q55.14375 123.030426 55.8625 123.717926Q56.58125 124.405426 56.58125 125.42105Q56.58125 125.936676 56.3625 126.436676Q56.159374 126.92105 55.659374 127.48355Q55.175 128.03043 54.05 128.98355Q53.096874 129.78043 52.815624 130.0773Q52.55 130.35855 52.378124 130.6398L56.596874 130.6398ZM58.05 127.42105Q58.05 125.8898 58.3625 124.967926Q58.675 124.030426 59.284374 123.530426Q59.909374 123.030426 60.846874 123.030426Q61.534374 123.030426 62.05 123.311676Q62.58125 123.592926 62.925 124.124176Q63.26875 124.6398 63.45625 125.3898Q63.64375 126.1398 63.64375 127.42105Q63.64375 128.93668 63.33125 129.85855Q63.034374 130.78043 62.409374 131.29605Q61.8 131.79605 60.846874 131.79605Q59.6125 131.79605 58.89375 130.90543Q58.05 129.84293 58.05 127.42105ZM59.128124 127.42105Q59.128124 129.53043 59.628124 130.23355Q60.128124 130.93668 60.846874 130.93668Q61.58125 130.93668 62.065624 130.23355Q62.565624 129.53043 62.565624 127.42105Q62.565624 125.29605 62.065624 124.60855Q61.58125 123.905426 60.83125 123.905426Q60.1125 123.905426 59.675 124.5148Q59.128124 125.29605 59.128124 127.42105ZM69.01875 131.65543L67.97188 131.65543L67.97188 124.936676Q67.58125 125.29605 66.95625 125.67105Q66.34688 126.030426 65.8625 126.2023L65.8625 125.186676Q66.7375 124.7648 67.39375 124.186676Q68.06563 123.592926 68.34688 123.030426L69.01875 123.030426L69.01875 131.65543ZM72.1125 124.186676L72.1125 123.17105L77.675 123.17105L77.675 123.999176Q76.8625 124.874176 76.05 126.3273Q75.25313 127.7648 74.81563 129.29605Q74.4875 130.37418 74.40938 131.65543L73.31563 131.65543Q73.33125 130.6398 73.70625 129.2023Q74.09688 127.7648 74.8 126.436676Q75.51875 125.10855 76.33125 124.186676L72.1125 124.186676Z" fill-rule="nonzero"/><path fill="#000000" d="M56.596874 153.15376L56.596874 154.16939L50.909374 154.16939Q50.909374 153.79439 51.034374 153.43501Q51.253124 152.85689 51.721874 152.29439Q52.20625 151.73189 53.1125 150.99751Q54.51875 149.84126 55.003124 149.16939Q55.503124 148.49751 55.503124 147.90376Q55.503124 147.27876 55.05 146.85689Q54.596874 146.41939 53.878124 146.41939Q53.1125 146.41939 52.659374 146.87251Q52.20625 147.32564 52.190624 148.13814L51.1125 148.02876Q51.221874 146.81001 51.940624 146.18501Q52.675 145.54439 53.909374 145.54439Q55.14375 145.54439 55.8625 146.23189Q56.58125 146.91939 56.58125 147.93501Q56.58125 148.45064 56.3625 148.95064Q56.159374 149.43501 55.659374 149.99751Q55.175 150.54439 54.05 151.49751Q53.096874 152.29439 52.815624 152.59126Q52.55 152.87251 52.378124 153.15376L56.596874 153.15376ZM58.05 149.93501Q58.05 148.40376 58.3625 147.48189Q58.675 146.54439 59.284374 146.04439Q59.909374 145.54439 60.846874 145.54439Q61.534374 145.54439 62.05 145.82564Q62.58125 146.10689 62.925 146.63814Q63.26875 147.15376 63.45625 147.90376Q63.64375 148.65376 63.64375 149.93501Q63.64375 151.45064 63.33125 152.37251Q63.034374 153.29439 62.409374 153.81001Q61.8 154.31001 60.846874 154.31001Q59.6125 154.31001 58.89375 153.41939Q58.05 152.35689 58.05 149.93501ZM59.128124 149.93501Q59.128124 152.04439 59.628124 152.74751Q60.128124 153.45064 60.846874 153.45064Q61.58125 153.45064 62.065624 152.74751Q62.565624 152.04439 62.565624 149.93501Q62.565624 147.81001 62.065624 147.12251Q61.58125 146.41939 60.83125 146.41939Q60.1125 146.41939 59.675 147.02876Q59.128124 147.81001 59.128124 149.93501ZM69.01875 154.16939L67.97188 154.16939L67.97188 147.45064Q67.58125 147.81001 66.95625 148.18501Q66.34688 148.54439 65.8625 148.71626L65.8625 147.70064Q66.7375 147.27876 67.39375 146.70064Q68.06563 146.10689 68.34688 145.54439L69.01875 145.54439L69.01875 154.16939ZM73.675 149.51314Q73.01875 149.26314 72.69063 148.82564Q72.37813 148.37251 72.37813 147.76314Q72.37813 146.82564 73.05 146.18501Q73.7375 145.54439 74.84688 145.54439Q75.97188 145.54439 76.65938 146.20064Q77.34688 146.85689 77.34688 147.79439Q77.34688 148.38814 77.03438 148.82564Q76.72188 149.26314 76.08125 149.51314Q76.87813 149.76314 77.28438 150.34126Q77.69063 150.91939 77.69063 151.71626Q77.69063 152.81001 76.90938 153.56001Q76.14375 154.31001 74.8625 154.31001Q73.59688 154.31001 72.81563 153.56001Q72.03438 152.81001 72.03438 151.68501Q72.03438 150.84126 72.45625 150.27876Q72.89375 149.71626 73.675 149.51314ZM73.45625 147.71626Q73.45625 148.32564 73.84688 148.71626Q74.25313 149.10689 74.87813 149.10689Q75.4875 149.10689 75.87813 148.73189Q76.26875 148.34126 76.26875 147.77876Q76.26875 147.20064 75.8625 146.81001Q75.45625 146.40376 74.8625 146.40376Q74.25313 146.40376 73.84688 146.79439Q73.45625 147.18501 73.45625 147.71626ZM73.12813 151.68501Q73.12813 152.13814 73.33125 152.56001Q73.55 152.98189 73.97188 153.21626Q74.39375 153.45064 74.87813 153.45064Q75.62813 153.45064 76.1125 152.96626Q76.6125 152.48189 76.6125 151.73189Q76.6125 150.96626 76.1125 150.46626Q75.6125 149.96626 74.84688 149.96626Q74.09688 149.96626 73.6125 150.46626Q73.12813 150.95064 73.12813 151.68501Z" fill-rule="nonzero"/><path fill="#000000" d="M56.596874 175.66771L56.596874 176.68333L50.909374 176.68333Q50.909374 176.30833 51.034374 175.94896Q51.253124 175.37083 51.721874 174.80833Q52.20625 174.24583 53.1125 173.51146Q54.51875 172.35521 55.003124 171.68333Q55.503124 171.01146 55.503124 170.41771Q55.503124 169.79271 55.05 169.37083Q54.596874 168.93333 53.878124 168.93333Q53.1125 168.93333 52.659374 169.38646Q52.20625 169.83958 52.190624 170.65208L51.1125 170.54271Q51.221874 169.32396 51.940624 168.69896Q52.675 168.05833 53.909374 168.05833Q55.14375 168.05833 55.8625 168.74583Q56.58125 169.43333 56.58125 170.44896Q56.58125 170.96458 56.3625 171.46458Q56.159374 171.94896 55.659374 172.51146Q55.175 173.05833 54.05 174.01146Q53.096874 174.80833 52.815624 175.10521Q52.55 175.38646 52.378124 175.66771L56.596874 175.66771ZM58.05 172.44896Q58.05 170.91771 58.3625 169.99583Q58.675 169.05833 59.284374 168.55833Q59.909374 168.05833 60.846874 168.05833Q61.534374 168.05833 62.05 168.33958Q62.58125 168.62083 62.925 169.15208Q63.26875 169.66771 63.45625 170.41771Q63.64375 171.16771 63.64375 172.44896Q63.64375 173.96458 63.33125 174.88646Q63.034374 175.80833 62.409374 176.32396Q61.8 176.82396 60.846874 176.82396Q59.6125 176.82396 58.89375 175.93333Q58.05 174.87083 58.05 172.44896ZM59.128124 172.44896Q59.128124 174.55833 59.628124 175.26146Q60.128124 175.96458 60.846874 175.96458Q61.58125 175.96458 62.065624 175.26146Q62.565624 174.55833 62.565624 172.44896Q62.565624 170.32396 62.065624 169.63646Q61.58125 168.93333 60.83125 168.93333Q60.1125 168.93333 59.675 169.54271Q59.128124 170.32396 59.128124 172.44896ZM69.01875 176.68333L67.97188 176.68333L67.97188 169.96458Q67.58125 170.32396 66.95625 170.69896Q66.34688 171.05833 65.8625 171.23021L65.8625 170.21458Q66.7375 169.79271 67.39375 169.21458Q68.06563 168.62083 68.34688 168.05833L69.01875 168.05833L69.01875 176.68333ZM72.20625 174.69896L73.22188 174.60521Q73.34688 175.32396 73.70625 175.65208Q74.08125 175.96458 74.64375 175.96458Q75.12813 175.96458 75.4875 175.74583Q75.8625 175.51146 76.09688 175.15208Q76.33125 174.77708 76.4875 174.15208Q76.64375 173.51146 76.64375 172.85521Q76.64375 172.77708 76.64375 172.63646Q76.33125 173.13646 75.78438 173.46458Q75.2375 173.77708 74.59688 173.77708Q73.51875 173.77708 72.78438 173.01146Q72.05 172.23021 72.05 170.96458Q72.05 169.65208 72.81563 168.85521Q73.59688 168.05833 74.75313 168.05833Q75.58125 168.05833 76.26875 168.51146Q76.97188 168.96458 77.33125 169.80833Q77.69063 170.63646 77.69063 172.21458Q77.69063 173.85521 77.33125 174.83958Q76.9875 175.80833 76.26875 176.32396Q75.56563 176.82396 74.62813 176.82396Q73.6125 176.82396 72.97188 176.27708Q72.33125 175.71458 72.20625 174.69896ZM76.51875 170.90208Q76.51875 169.99583 76.03438 169.46458Q75.56563 168.93333 74.87813 168.93333Q74.175 168.93333 73.64375 169.51146Q73.12813 170.07396 73.12813 170.99583Q73.12813 171.80833 73.62813 172.32396Q74.12813 172.83958 74.84688 172.83958Q75.58125 172.83958 76.05 172.32396Q76.51875 171.80833 76.51875 170.90208Z" fill-rule="nonzero"/><path fill="#000000" d="M56.596874 198.18166L56.596874 199.19728L50.909374 199.19728Q50.909374 198.82228 51.034374 198.4629Q51.253124 197.88478 51.721874 197.32228Q52.20625 196.75978 53.1125 196.0254Q54.51875 194.86916 55.003124 194.19728Q55.503124 193.5254 55.503124 192.93166Q55.503124 192.30666 55.05 191.88478Q54.596874 191.44728 53.878124 191.44728Q53.1125 191.44728 52.659374 191.9004Q52.20625 192.35353 52.190624 193.16603L51.1125 193.05666Q51.221874 191.8379 51.940624 191.2129Q52.675 190.57228 53.909374 190.57228Q55.14375 190.57228 55.8625 191.25978Q56.58125 191.94728 56.58125 192.9629Q56.58125 193.47853 56.3625 193.97853Q56.159374 194.4629 55.659374 195.0254Q55.175 195.57228 54.05 196.5254Q53.096874 197.32228 52.815624 197.61916Q52.55 197.9004 52.378124 198.18166L56.596874 198.18166ZM58.05 194.9629Q58.05 193.43166 58.3625 192.50978Q58.675 191.57228 59.284374 191.07228Q59.909374 190.57228 60.846874 190.57228Q61.534374 190.57228 62.05 190.85353Q62.58125 191.13478 62.925 191.66603Q63.26875 192.18166 63.45625 192.93166Q63.64375 193.68166 63.64375 194.9629Q63.64375 196.47853 63.33125 197.4004Q63.034374 198.32228 62.409374 198.8379Q61.8 199.3379 60.846874 199.3379Q59.6125 199.3379 58.89375 198.44728Q58.05 197.38478 58.05 194.9629ZM59.128124 194.9629Q59.128124 197.07228 59.628124 197.7754Q60.128124 198.47853 60.846874 198.47853Q61.58125 198.47853 62.065624 197.7754Q62.565624 197.07228 62.565624 194.9629Q62.565624 192.8379 62.065624 192.1504Q61.58125 191.44728 60.83125 191.44728Q60.1125 191.44728 59.675 192.05666Q59.128124 192.8379 59.128124 194.9629ZM70.59688 198.18166L70.59688 199.19728L64.90938 199.19728Q64.90938 198.82228 65.03438 198.4629Q65.25313 197.88478 65.72188 197.32228Q66.20625 196.75978 67.1125 196.0254Q68.51875 194.86916 69.00313 194.19728Q69.50313 193.5254 69.50313 192.93166Q69.50313 192.30666 69.05 191.88478Q68.59688 191.44728 67.87813 191.44728Q67.1125 191.44728 66.65938 191.9004Q66.20625 192.35353 66.19063 193.16603L65.1125 193.05666Q65.22188 191.8379 65.94063 191.2129Q66.675 190.57228 67.90938 190.57228Q69.14375 190.57228 69.8625 191.25978Q70.58125 191.94728 70.58125 192.9629Q70.58125 193.47853 70.3625 193.97853Q70.15938 194.4629 69.65938 195.0254Q69.175 195.57228 68.05 196.5254Q67.09688 197.32228 66.81563 197.61916Q66.55 197.9004 66.37813 198.18166L70.59688 198.18166ZM72.05 194.9629Q72.05 193.43166 72.3625 192.50978Q72.675 191.57228 73.28438 191.07228Q73.90938 190.57228 74.84688 190.57228Q75.53438 190.57228 76.05 190.85353Q76.58125 191.13478 76.925 191.66603Q77.26875 192.18166 77.45625 192.93166Q77.64375 193.68166 77.64375 194.9629Q77.64375 196.47853 77.33125 197.4004Q77.03438 198.32228 76.40938 198.8379Q75.8 199.3379 74.84688 199.3379Q73.6125 199.3379 72.89375 198.44728Q72.05 197.38478 72.05 194.9629ZM73.12813 194.9629Q73.12813 197.07228 73.62813 197.7754Q74.12813 198.47853 74.84688 198.47853Q75.58125 198.47853 76.06563 197.7754Q76.56563 197.07228 76.56563 194.9629Q76.56563 192.8379 76.06563 192.1504Q75.58125 191.44728 74.83125 191.44728Q74.1125 191.44728 73.675 192.05666Q73.12813 192.8379 73.12813 194.9629Z" fill-rule="nonzero"/><path fill="#000000" d="M56.596874 220.6956L56.596874 221.71123L50.909374 221.71123Q50.909374 221.33623 51.034374 220.97685Q51.253124 220.39873 51.721874 219.83623Q52.20625 219.27373 53.1125 218.53935Q54.51875 217.3831 55.003124 216.71123Q55.503124 216.03935 55.503124 215.4456Q55.503124 214.8206 55.05 214.39873Q54.596874 213.96123 53.878124 213.96123Q53.1125 213.96123 52.659374 214.41435Q52.20625 214.86748 52.190624 215.67998L51.1125 215.5706Q51.221874 214.35185 51.940624 213.72685Q52.675 213.08623 53.909374 213.08623Q55.14375 213.08623 55.8625 213.77373Q56.58125 214.46123 56.58125 215.47685Q56.58125 215.99248 56.3625 216.49248Q56.159374 216.97685 55.659374 217.53935Q55.175 218.08623 54.05 219.03935Q53.096874 219.83623 52.815624 220.1331Q52.55 220.41435 52.378124 220.6956L56.596874 220.6956ZM58.05 217.47685Q58.05 215.9456 58.3625 215.02373Q58.675 214.08623 59.284374 213.58623Q59.909374 213.08623 60.846874 213.08623Q61.534374 213.08623 62.05 213.36748Q62.58125 213.64873 62.925 214.17998Q63.26875 214.6956 63.45625 215.4456Q63.64375 216.1956 63.64375 217.47685Q63.64375 218.99248 63.33125 219.91435Q63.034374 220.83623 62.409374 221.35185Q61.8 221.85185 60.846874 221.85185Q59.6125 221.85185 58.89375 220.96123Q58.05 219.89873 58.05 217.47685ZM59.128124 217.47685Q59.128124 219.58623 59.628124 220.28935Q60.128124 220.99248 60.846874 220.99248Q61.58125 220.99248 62.065624 220.28935Q62.565624 219.58623 62.565624 217.47685Q62.565624 215.35185 62.065624 214.66435Q61.58125 213.96123 60.83125 213.96123Q60.1125 213.96123 59.675 214.5706Q59.128124 215.35185 59.128124 217.47685ZM70.59688 220.6956L70.59688 221.71123L64.90938 221.71123Q64.90938 221.33623 65.03438 220.97685Q65.25313 220.39873 65.72188 219.83623Q66.20625 219.27373 67.1125 218.53935Q68.51875 217.3831 69.00313 216.71123Q69.50313 216.03935 69.50313 215.4456Q69.50313 214.8206 69.05 214.39873Q68.59688 213.96123 67.87813 213.96123Q67.1125 213.96123 66.65938 214.41435Q66.20625 214.86748 66.19063 215.67998L65.1125 215.5706Q65.22188 214.35185 65.94063 213.72685Q66.675 213.08623 67.90938 213.08623Q69.14375 213.08623 69.8625 213.77373Q70.58125 214.46123 70.58125 215.47685Q70.58125 215.99248 70.3625 216.49248Q70.15938 216.97685 69.65938 217.53935Q69.175 218.08623 68.05 219.03935Q67.09688 219.83623 66.81563 220.1331Q66.55 220.41435 66.37813 220.6956L70.59688 220.6956ZM76.01875 221.71123L74.97188 221.71123L74.97188 214.99248Q74.58125 215.35185 73.95625 215.72685Q73.34688 216.08623 72.8625 216.2581L72.8625 215.24248Q73.7375 214.8206 74.39375 214.24248Q75.06563 213.64873 75.34688 213.08623L76.01875 213.08623L76.01875 221.71123Z" fill-rule="nonzero"/><path fill="#000000" d="M56.596874 243.20956L56.596874 244.22519L50.909374 244.22519Q50.909374 243.85019 51.034374 243.49081Q51.253124 242.91269 51.721874 242.35019Q52.20625 241.78769 53.1125 241.05331Q54.51875 239.89706 55.003124 239.22519Q55.503124 238.55331 55.503124 237.95956Q55.503124 237.33456 55.05 236.91269Q54.596874 236.47519 53.878124 236.47519Q53.1125 236.47519 52.659374 236.92831Q52.20625 237.38144 52.190624 238.19394L51.1125 238.08456Q51.221874 236.86581 51.940624 236.24081Q52.675 235.60019 53.909374 235.60019Q55.14375 235.60019 55.8625 236.28769Q56.58125 236.97519 56.58125 237.99081Q56.58125 238.50644 56.3625 239.00644Q56.159374 239.49081 55.659374 240.05331Q55.175 240.60019 54.05 241.55331Q53.096874 242.35019 52.815624 242.64706Q52.55 242.92831 52.378124 243.20956L56.596874 243.20956ZM58.05 239.99081Q58.05 238.45956 58.3625 237.53769Q58.675 236.60019 59.284374 236.10019Q59.909374 235.60019 60.846874 235.60019Q61.534374 235.60019 62.05 235.88144Q62.58125 236.16269 62.925 236.69394Q63.26875 237.20956 63.45625 237.95956Q63.64375 238.70956 63.64375 239.99081Q63.64375 241.50644 63.33125 242.42831Q63.034374 243.35019 62.409374 243.86581Q61.8 244.36581 60.846874 244.36581Q59.6125 244.36581 58.89375 243.47519Q58.05 242.41269 58.05 239.99081ZM59.128124 239.99081Q59.128124 242.10019 59.628124 242.80331Q60.128124 243.50644 60.846874 243.50644Q61.58125 243.50644 62.065624 242.80331Q62.565624 242.10019 62.565624 239.99081Q62.565624 237.86581 62.065624 237.17831Q61.58125 236.47519 60.83125 236.47519Q60.1125 236.47519 59.675 237.08456Q59.128124 237.86581 59.128124 239.99081ZM70.59688 243.20956L70.59688 244.22519L64.90938 244.22519Q64.90938 243.85019 65.03438 243.49081Q65.25313 242.91269 65.72188 242.35019Q66.20625 241.78769 67.1125 241.05331Q68.51875 239.89706 69.00313 239.22519Q69.50313 238.55331 69.50313 237.95956Q69.50313 237.33456 69.05 236.91269Q68.59688 236.47519 67.87813 236.47519Q67.1125 236.47519 66.65938 236.92831Q66.20625 237.38144 66.19063 238.19394L65.1125 238.08456Q65.22188 236.86581 65.94063 236.24081Q66.675 235.60019 67.90938 235.60019Q69.14375 235.60019 69.8625 236.28769Q70.58125 236.97519 70.58125 237.99081Q70.58125 238.50644 70.3625 239.00644Q70.15938 239.49081 69.65938 240.05331Q69.175 240.60019 68.05 241.55331Q67.09688 242.35019 66.81563 242.64706Q66.55 242.92831 66.37813 243.20956L70.59688 243.20956ZM77.59688 243.20956L77.59688 244.22519L71.90938 244.22519Q71.90938 243.85019 72.03438 243.49081Q72.25313 242.91269 72.72188 242.35019Q73.20625 241.78769 74.1125 241.05331Q75.51875 239.89706 76.00313 239.22519Q76.50313 238.55331 76.50313 237.95956Q76.50313 237.33456 76.05 236.91269Q75.59688 236.47519 74.87813 236.47519Q74.1125 236.47519 73.65938 236.92831Q73.20625 237.38144 73.19063 238.19394L72.1125 238.08456Q72.22188 236.86581 72.94063 236.24081Q73.675 235.60019 74.90938 235.60019Q76.14375 235.60019 76.8625 236.28769Q77.58125 236.97519 77.58125 237.99081Q77.58125 238.50644 77.3625 239.00644Q77.15938 239.49081 76.65938 240.05331Q76.175 240.60019 75.05 241.55331Q74.09688 242.35019 73.81563 242.64706Q73.55 242.92831 73.37813 243.20956L77.59688 243.20956Z" fill-rule="nonzero"/><path fill="#000000" d="M56.596874 265.7235L56.596874 266.73914L50.909374 266.73914Q50.909374 266.36414 51.034374 266.00476Q51.253124 265.42664 51.721874 264.86414Q52.20625 264.30164 53.1125 263.56726Q54.51875 262.411 55.003124 261.73914Q55.503124 261.06726 55.503124 260.4735Q55.503124 259.8485 55.05 259.42664Q54.596874 258.98914 53.878124 258.98914Q53.1125 258.98914 52.659374 259.44226Q52.20625 259.8954 52.190624 260.7079L51.1125 260.5985Q51.221874 259.37976 51.940624 258.75476Q52.675 258.11414 53.909374 258.11414Q55.14375 258.11414 55.8625 258.80164Q56.58125 259.48914 56.58125 260.50476Q56.58125 261.0204 56.3625 261.5204Q56.159374 262.00476 55.659374 262.56726Q55.175 263.11414 54.05 264.06726Q53.096874 264.86414 52.815624 265.161Q52.55 265.44226 52.378124 265.7235L56.596874 265.7235ZM58.05 262.50476Q58.05 260.9735 58.3625 260.05164Q58.675 259.11414 59.284374 258.61414Q59.909374 258.11414 60.846874 258.11414Q61.534374 258.11414 62.05 258.3954Q62.58125 258.67664 62.925 259.2079Q63.26875 259.7235 63.45625 260.4735Q63.64375 261.2235 63.64375 262.50476Q63.64375 264.0204 63.33125 264.94226Q63.034374 265.86414 62.409374 266.37976Q61.8 266.87976 60.846874 266.87976Q59.6125 266.87976 58.89375 265.98914Q58.05 264.92664 58.05 262.50476ZM59.128124 262.50476Q59.128124 264.61414 59.628124 265.31726Q60.128124 266.0204 60.846874 266.0204Q61.58125 266.0204 62.065624 265.31726Q62.565624 264.61414 62.565624 262.50476Q62.565624 260.37976 62.065624 259.69226Q61.58125 258.98914 60.83125 258.98914Q60.1125 258.98914 59.675 259.5985Q59.128124 260.37976 59.128124 262.50476ZM70.59688 265.7235L70.59688 266.73914L64.90938 266.73914Q64.90938 266.36414 65.03438 266.00476Q65.25313 265.42664 65.72188 264.86414Q66.20625 264.30164 67.1125 263.56726Q68.51875 262.411 69.00313 261.73914Q69.50313 261.06726 69.50313 260.4735Q69.50313 259.8485 69.05 259.42664Q68.59688 258.98914 67.87813 258.98914Q67.1125 258.98914 66.65938 259.44226Q66.20625 259.8954 66.19063 260.7079L65.1125 260.5985Q65.22188 259.37976 65.94063 258.75476Q66.675 258.11414 67.90938 258.11414Q69.14375 258.11414 69.8625 258.80164Q70.58125 259.48914 70.58125 260.50476Q70.58125 261.0204 70.3625 261.5204Q70.15938 262.00476 69.65938 262.56726Q69.175 263.11414 68.05 264.06726Q67.09688 264.86414 66.81563 265.161Q66.55 265.44226 66.37813 265.7235L70.59688 265.7235ZM72.05 264.4735L73.1125 264.3329Q73.28438 265.2235 73.72188 265.62976Q74.15938 266.0204 74.78438 266.0204Q75.53438 266.0204 76.05 265.50476Q76.56563 264.98914 76.56563 264.2235Q76.56563 263.50476 76.08125 263.036Q75.6125 262.55164 74.87813 262.55164Q74.58125 262.55164 74.12813 262.67664L74.25313 261.73914Q74.3625 261.75476 74.425 261.75476Q75.09688 261.75476 75.62813 261.411Q76.175 261.05164 76.175 260.31726Q76.175 259.73914 75.78438 259.36414Q75.39375 258.9735 74.76875 258.9735Q74.15938 258.9735 73.7375 259.36414Q73.33125 259.75476 73.22188 260.5204L72.15938 260.3329Q72.34688 259.286 73.03438 258.7079Q73.72188 258.11414 74.7375 258.11414Q75.44063 258.11414 76.03438 258.42664Q76.62813 258.7235 76.94063 259.23914Q77.25313 259.75476 77.25313 260.3485Q77.25313 260.8954 76.95625 261.36414Q76.65938 261.81726 76.08125 262.0829Q76.83125 262.25476 77.25313 262.81726Q77.675 263.36414 77.675 264.2079Q77.675 265.3329 76.84688 266.11414Q76.03438 266.8954 74.78438 266.8954Q73.65938 266.8954 72.90938 266.2235Q72.15938 265.536 72.05 264.4735Z" fill-rule="nonzero"/><path fill="#000000" d="M56.596874 288.23746L56.596874 289.25308L50.909374 289.25308Q50.909374 288.87808 51.034374 288.5187Q51.253124 287.94058 51.721874 287.37808Q52.20625 286.81558 53.1125 286.0812Q54.51875 284.92496 55.003124 284.25308Q55.503124 283.5812 55.503124 282.98746Q55.503124 282.36246 55.05 281.94058Q54.596874 281.50308 53.878124 281.50308Q53.1125 281.50308 52.659374 281.9562Q52.20625 282.40933 52.190624 283.22183L51.1125 283.11246Q51.221874 281.8937 51.940624 281.2687Q52.675 280.62808 53.909374 280.62808Q55.14375 280.62808 55.8625 281.31558Q56.58125 282.00308 56.58125 283.0187Q56.58125 283.53433 56.3625 284.03433Q56.159374 284.5187 55.659374 285.0812Q55.175 285.62808 54.05 286.5812Q53.096874 287.37808 52.815624 287.67496Q52.55 287.9562 52.378124 288.23746L56.596874 288.23746ZM58.05 285.0187Q58.05 283.48746 58.3625 282.56558Q58.675 281.62808 59.284374 281.12808Q59.909374 280.62808 60.846874 280.62808Q61.534374 280.62808 62.05 280.90933Q62.58125 281.19058 62.925 281.72183Q63.26875 282.23746 63.45625 282.98746Q63.64375 283.73746 63.64375 285.0187Q63.64375 286.53433 63.33125 287.4562Q63.034374 288.37808 62.409374 288.8937Q61.8 289.3937 60.846874 289.3937Q59.6125 289.3937 58.89375 288.50308Q58.05 287.44058 58.05 285.0187ZM59.128124 285.0187Q59.128124 287.12808 59.628124 287.8312Q60.128124 288.53433 60.846874 288.53433Q61.58125 288.53433 62.065624 287.8312Q62.565624 287.12808 62.565624 285.0187Q62.565624 282.8937 62.065624 282.2062Q61.58125 281.50308 60.83125 281.50308Q60.1125 281.50308 59.675 282.11246Q59.128124 282.8937 59.128124 285.0187ZM70.59688 288.23746L70.59688 289.25308L64.90938 289.25308Q64.90938 288.87808 65.03438 288.5187Q65.25313 287.94058 65.72188 287.37808Q66.20625 286.81558 67.1125 286.0812Q68.51875 284.92496 69.00313 284.25308Q69.50313 283.5812 69.50313 282.98746Q69.50313 282.36246 69.05 281.94058Q68.59688 281.50308 67.87813 281.50308Q67.1125 281.50308 66.65938 281.9562Q66.20625 282.40933 66.19063 283.22183L65.1125 283.11246Q65.22188 281.8937 65.94063 281.2687Q66.675 280.62808 67.90938 280.62808Q69.14375 280.62808 69.8625 281.31558Q70.58125 282.00308 70.58125 283.0187Q70.58125 283.53433 70.3625 284.03433Q70.15938 284.5187 69.65938 285.0812Q69.175 285.62808 68.05 286.5812Q67.09688 287.37808 66.81563 287.67496Q66.55 287.9562 66.37813 288.23746L70.59688 288.23746ZM75.425 289.25308L75.425 287.19058L71.70625 287.19058L71.70625 286.22183L75.62813 280.65933L76.4875 280.65933L76.4875 286.22183L77.64375 286.22183L77.64375 287.19058L76.4875 287.19058L76.4875 289.25308L75.425 289.25308ZM75.425 286.22183L75.425 282.36246L72.7375 286.22183L75.425 286.22183Z" fill-rule="nonzero"/><path fill="#000000" d="M81.55 313.21564Q81.55 311.6844 81.8625 310.7625Q82.175 309.825 82.78438 309.325Q83.40938 308.825 84.34688 308.825Q85.03438 308.825 85.55 309.10626Q86.08125 309.3875 86.425 309.91876Q86.76875 310.4344 86.95625 311.1844Q87.14375 311.9344 87.14375 313.21564Q87.14375 314.73126 86.83125 315.65314Q86.53438 316.575 85.90938 317.09064Q85.3 317.59064 84.34688 317.59064Q83.1125 317.59064 82.39375 316.7Q81.55 315.6375 81.55 313.21564ZM82.62813 313.21564Q82.62813 315.325 83.12813 316.02814Q83.62813 316.73126 84.34688 316.73126Q85.08125 316.73126 85.56563 316.02814Q86.06563 315.325 86.06563 313.21564Q86.06563 311.09064 85.56563 310.40314Q85.08125 309.7 84.33125 309.7Q83.6125 309.7 83.175 310.3094Q82.62813 311.09064 82.62813 313.21564Z" fill-rule="nonzero"/><path fill="#000000" d="M195.025 315.2L196.13437 315.10626Q196.25937 315.91876 196.69687 316.325Q197.15 316.73126 197.79062 316.73126Q198.54062 316.73126 199.07187 316.15314Q199.60312 315.575 199.60312 314.6375Q199.60312 313.73126 199.0875 313.21564Q198.5875 312.6844 197.75937 312.6844Q197.25937 312.6844 196.8375 312.91876Q196.43124 313.15314 196.19687 313.5125L195.2125 313.3875L196.04062 308.98126L200.32187 308.98126L200.32187 309.98126L196.88437 309.98126L196.43124 312.29376Q197.19687 311.7469 198.04062 311.7469Q199.16562 311.7469 199.93124 312.52814Q200.7125 313.3094 200.7125 314.54376Q200.7125 315.7 200.04062 316.5594Q199.2125 317.59064 197.79062 317.59064Q196.61874 317.59064 195.86874 316.9344Q195.13437 316.27814 195.025 315.2Z" fill-rule="nonzero"/><path fill="#000000" d="M308.96875 317.45L307.92188 317.45L307.92188 310.73126Q307.53125 311.09064 306.90625 311.46564Q306.29688 311.825 305.8125 311.9969L305.8125 310.98126Q306.6875 310.5594 307.34375 309.98126Q308.01562 309.3875 308.29688 308.825L308.96875 308.825L308.96875 317.45ZM312.0 313.21564Q312.0 311.6844 312.3125 310.7625Q312.625 309.825 313.23438 309.325Q313.85938 308.825 314.79688 308.825Q315.48438 308.825 316.0 309.10626Q316.53125 309.3875 316.875 309.91876Q317.21875 310.4344 317.40625 311.1844Q317.59375 311.9344 317.59375 313.21564Q317.59375 314.73126 317.28125 315.65314Q316.98438 316.575 316.35938 317.09064Q315.75 317.59064 314.79688 317.59064Q313.5625 317.59064 312.84375 316.7Q312.0 315.6375 312.0 313.21564ZM313.07812 313.21564Q313.07812 315.325 313.57812 316.02814Q314.07812 316.73126 314.79688 316.73126Q315.53125 316.73126 316.01562 316.02814Q316.51562 315.325 316.51562 313.21564Q316.51562 311.09064 316.01562 310.40314Q315.53125 309.7 314.78125 309.7Q314.0625 309.7 313.625 310.3094Q313.07812 311.09064 313.07812 313.21564Z" fill-rule="nonzero"/><path fill="#000000" d="M422.44376 317.45L421.39688 317.45L421.39688 310.73126Q421.00626 311.09064 420.38126 311.46564Q419.77188 311.825 419.2875 311.9969L419.2875 310.98126Q420.1625 310.5594 420.81876 309.98126Q421.49063 309.3875 421.77188 308.825L422.44376 308.825L422.44376 317.45ZM425.475 315.2L426.58438 315.10626Q426.70938 315.91876 427.14688 316.325Q427.6 316.73126 428.24063 316.73126Q428.99063 316.73126 429.52188 316.15314Q430.05313 315.575 430.05313 314.6375Q430.05313 313.73126 429.5375 313.21564Q429.0375 312.6844 428.20938 312.6844Q427.70938 312.6844 427.2875 312.91876Q426.88126 313.15314 426.64688 313.5125L425.6625 313.3875L426.49063 308.98126L430.77188 308.98126L430.77188 309.98126L427.33438 309.98126L426.88126 312.29376Q427.64688 311.7469 428.49063 311.7469Q429.61563 311.7469 430.38126 312.52814Q431.1625 313.3094 431.1625 314.54376Q431.1625 315.7 430.49063 316.5594Q429.6625 317.59064 428.24063 317.59064Q427.06876 317.59064 426.31876 316.9344Q425.58438 316.27814 425.475 315.2Z" fill-rule="nonzero"/><path fill="#000000" d="M537.4969 316.4344L537.4969 317.45L531.8094 317.45Q531.8094 317.075 531.9344 316.71564Q532.15314 316.1375 532.6219 315.575Q533.10626 315.0125 534.0125 314.27814Q535.41876 313.1219 535.90314 312.45Q536.40314 311.77814 536.40314 311.1844Q536.40314 310.5594 535.95 310.1375Q535.4969 309.7 534.77814 309.7Q534.0125 309.7 533.5594 310.15314Q533.10626 310.60626 533.09064 311.41876L532.0125 311.3094Q532.1219 310.09064 532.84064 309.46564Q533.575 308.825 534.8094 308.825Q536.04376 308.825 536.7625 309.5125Q537.48126 310.2 537.48126 311.21564Q537.48126 311.73126 537.2625 312.23126Q537.0594 312.71564 536.5594 313.27814Q536.075 313.825 534.95 314.77814Q533.9969 315.575 533.71564 315.8719Q533.45 316.15314 533.27814 316.4344L537.4969 316.4344ZM538.95 313.21564Q538.95 311.6844 539.2625 310.7625Q539.575 309.825 540.1844 309.325Q540.8094 308.825 541.7469 308.825Q542.4344 308.825 542.95 309.10626Q543.48126 309.3875 543.825 309.91876Q544.16876 310.4344 544.35626 311.1844Q544.54376 311.9344 544.54376 313.21564Q544.54376 314.73126 544.23126 315.65314Q543.9344 316.575 543.3094 317.09064Q542.7 317.59064 541.7469 317.59064Q540.5125 317.59064 539.79376 316.7Q538.95 315.6375 538.95 313.21564ZM540.02814 313.21564Q540.02814 315.325 540.52814 316.02814Q541.02814 316.73126 541.7469 316.73126Q542.48126 316.73126 542.96564 316.02814Q543.46564 315.325 543.46564 313.21564Q543.46564 311.09064 542.96564 310.40314Q542.48126 309.7 541.73126 309.7Q541.0125 309.7 540.575 310.3094Q540.02814 311.09064 540.02814 313.21564Z" fill-rule="nonzero"/><path fill="#0072b2" d="M94.5 20.55C94.5 19.997715 94.947716 19.55 95.5 19.55L105.5 19.55C106.052284 19.55 106.5 19.997715 106.5 20.55L106.5 30.55C106.5 31.102285 106.052284 31.55 105.5 31.55L95.5 31.55C94.947716 31.55 94.5 31.102285 94.5 30.55Z" fill-rule="nonzero"/><path fill="#1a1a1a" d="M115.375 29.55L115.375 20.95625L118.15625 20.95625Q119.734375 20.95625 120.21875 21.08125Q120.953125 21.284374 121.453125 21.940624Q121.953125 22.58125 121.953125 23.596874Q121.953125 24.39375 121.65625 24.940624Q121.375 25.471874 120.9375 25.784374Q120.5 26.08125 120.03125 26.190624Q119.421875 26.315624 118.234375 26.315624L117.109375 26.315624L117.109375 29.55L115.375 29.55ZM117.109375 22.409374L117.109375 24.846874L118.0625 24.846874Q119.078125 24.846874 119.421875 24.721874Q119.78125 24.58125 119.96875 24.3Q120.171875 24.003124 120.171875 23.628124Q120.171875 23.159374 119.890625 22.8625Q119.609375 22.55 119.1875 22.471874Q118.890625 22.409374 117.953125 22.409374L117.109375 22.409374ZM124.9375 29.55L123.296875 29.55L123.296875 23.33125L124.828125 23.33125L124.828125 24.20625Q125.21875 23.58125 125.53125 23.39375Q125.84375 23.190624 126.234375 23.190624Q126.796875 23.190624 127.328125 23.503124L126.8125 24.925Q126.390625 24.659374 126.046875 24.659374Q125.6875 24.659374 125.453125 24.8625Q125.21875 25.05 125.078125 25.55Q124.9375 26.034374 124.9375 27.628124L124.9375 29.55ZM127.984375 26.346874Q127.984375 25.534374 128.39062 24.76875Q128.79688 23.9875 129.53125 23.596874Q130.26562 23.190624 131.1875 23.190624Q132.59375 23.190624 133.5 24.1125Q134.40625 25.01875 134.40625 26.425Q134.40625 27.83125 133.48438 28.76875Q132.57812 29.690624 131.20312 29.690624Q130.34375 29.690624 129.5625 29.3Q128.79688 28.909374 128.39062 28.175Q127.984375 27.425 127.984375 26.346874ZM129.67188 26.440624Q129.67188 27.3625 130.10938 27.8625Q130.54688 28.346874 131.1875 28.346874Q131.84375 28.346874 132.26562 27.8625Q132.70312 27.3625 132.70312 26.425Q132.70312 25.51875 132.26562 25.034374Q131.84375 24.534374 131.1875 24.534374Q130.54688 24.534374 130.10938 25.034374Q129.67188 25.51875 129.67188 26.440624ZM138.21875 23.33125L138.21875 24.64375L137.09375 24.64375L137.09375 27.14375Q137.09375 27.909374 137.125 28.034374Q137.15625 28.159374 137.26562 28.253124Q137.39062 28.33125 137.54688 28.33125Q137.78125 28.33125 138.20312 28.159374L138.34375 29.440624Q137.78125 29.690624 137.04688 29.690624Q136.60938 29.690624 136.25 29.55Q135.89062 29.39375 135.71875 29.159374Q135.5625 28.909374 135.48438 28.51875Q135.4375 28.221874 135.4375 27.346874L135.4375 24.64375L134.6875 24.64375L134.6875 23.33125L135.4375 23.33125L135.4375 22.096874L137.09375 21.128124L137.09375 23.33125L138.21875 23.33125ZM138.98438 26.346874Q138.98438 25.534374 139.39062 24.76875Q139.79688 23.9875 140.53125 23.596874Q141.26562 23.190624 142.1875 23.190624Q143.59375 23.190624 144.5 24.1125Q145.40625 25.01875 145.40625 26.425Q145.40625 27.83125 144.48438 28.76875Q143.57812 29.690624 142.20312 29.690624Q141.34375 29.690624 140.5625 29.3Q139.79688 28.909374 139.39062 28.175Q138.98438 27.425 138.98438 26.346874ZM140.67188 26.440624Q140.67188 27.3625 141.10938 27.8625Q141.54688 28.346874 142.1875 28.346874Q142.84375 28.346874 143.26562 27.8625Q143.70312 27.3625 143.70312 26.425Q143.70312 25.51875 143.26562 25.034374Q142.84375 24.534374 142.1875 24.534374Q141.54688 24.534374 141.10938 25.034374Q140.67188 25.51875 140.67188 26.440624ZM149.21875 23.33125L149.21875 24.64375L148.09375 24.64375L148.09375 27.14375Q148.09375 27.909374 148.125 28.034374Q148.15625 28.159374 148.26562 28.253124Q148.39062 28.33125 148.54688 28.33125Q148.78125 28.33125 149.20312 28.159374L149.34375 29.440624Q148.78125 29.690624 148.04688 29.690624Q147.60938 29.690624 147.25 29.55Q146.89062 29.39375 146.71875 29.159374Q146.5625 28.909374 146.48438 28.51875Q146.4375 28.221874 146.4375 27.346874L146.4375 24.64375L145.6875 24.64375L145.6875 23.33125L146.4375 23.33125L146.4375 22.096874L148.09375 21.128124L148.09375 23.33125L149.21875 23.33125ZM149.57812 23.33125L151.32812 23.33125L152.82812 27.7375L154.28125 23.33125L155.98438 23.33125L153.78125 29.315624L153.39062 30.39375Q153.17188 30.940624 152.96875 31.221874Q152.78125 31.51875 152.51562 31.690624Q152.26562 31.878124 151.89062 31.971874Q151.53125 32.08125 151.0625 32.08125Q150.57812 32.08125 150.125 31.971874L149.98438 30.690624Q150.375 30.76875 150.67188 30.76875Q151.25 30.76875 151.51562 30.425Q151.79688 30.096874 151.95312 29.565624L149.57812 23.33125ZM156.3125 23.33125L157.84375 23.33125L157.84375 24.2375Q158.15625 23.76875 158.65625 23.4875Q159.17188 23.190624 159.79688 23.190624Q160.875 23.190624 161.625 24.034374Q162.39062 24.878124 162.39062 26.409374Q162.39062 27.95625 161.625 28.83125Q160.85938 29.690624 159.78125 29.690624Q159.26562 29.690624 158.84375 29.4875Q158.42188 29.284374 157.96875 28.784374L157.96875 31.925L156.3125 31.925L156.3125 23.33125ZM157.9375 26.33125Q157.9375 27.378124 158.35938 27.878124Q158.78125 28.378124 159.375 28.378124Q159.95312 28.378124 160.32812 27.925Q160.70312 27.45625 160.70312 26.409374Q160.70312 25.440624 160.3125 24.971874Q159.92188 24.4875 159.34375 24.4875Q158.73438 24.4875 158.32812 24.95625Q157.9375 25.425 157.9375 26.33125ZM166.96875 27.565624L168.60938 27.846874Q168.29688 28.753124 167.60938 29.221874Q166.92188 29.690624 165.90625 29.690624Q164.28125 29.690624 163.5 28.628124Q162.875 27.784374 162.875 26.4875Q162.875 24.940624 163.6875 24.065624Q164.5 23.190624 165.73438 23.190624Q167.125 23.190624 167.92188 24.1125Q168.73438 25.01875 168.6875 26.909374L164.5625 26.909374Q164.59375 27.64375 164.96875 28.05Q165.34375 28.45625 165.92188 28.45625Q166.29688 28.45625 166.5625 28.253124Q166.82812 28.034374 166.96875 27.565624ZM167.0625 25.909374Q167.04688 25.190624 166.6875 24.815624Q166.34375 24.440624 165.82812 24.440624Q165.29688 24.440624 164.9375 24.83125Q164.59375 25.2375 164.59375 25.909374L167.0625 25.909374Z" fill-rule="nonzero"/><path fill="#e6d717" d="M185.5 20.55C185.5 19.997715 185.94771 19.55 186.5 19.55L196.5 19.55C197.05229 19.55 197.5 19.997715 197.5 20.55L197.5 30.55C197.5 31.102285 197.05229 31.55 196.5 31.55L186.5 31.55C185.94771 31.55 185.5 31.102285 185.5 30.55Z" fill-rule="nonzero"/><path fill="#1a1a1a" d="M208.3125 29.55L208.3125 22.409374L205.76562 22.409374L205.76562 20.95625L212.57812 20.95625L212.57812 22.409374L210.04688 22.409374L210.04688 29.55L208.3125 29.55ZM212.98438 26.346874Q212.98438 25.534374 213.39062 24.76875Q213.79688 23.9875 214.53125 23.596874Q215.26562 23.190624 216.1875 23.190624Q217.59375 23.190624 218.5 24.1125Q219.40625 25.01875 219.40625 26.425Q219.40625 27.83125 218.48438 28.76875Q217.57812 29.690624 216.20312 29.690624Q215.34375 29.690624 214.5625 29.3Q213.79688 28.909374 213.39062 28.175Q212.98438 27.425 212.98438 26.346874ZM214.67188 26.440624Q214.67188 27.3625 215.10938 27.8625Q215.54688 28.346874 216.1875 28.346874Q216.84375 28.346874 217.26562 27.8625Q217.70312 27.3625 217.70312 26.425Q217.70312 25.51875 217.26562 25.034374Q216.84375 24.534374 216.1875 24.534374Q215.54688 24.534374 215.10938 25.034374Q214.67188 25.51875 214.67188 26.440624ZM219.98438 26.346874Q219.98438 25.534374 220.39062 24.76875Q220.79688 23.9875 221.53125 23.596874Q222.26562 23.190624 223.1875 23.190624Q224.59375 23.190624 225.5 24.1125Q226.40625 25.01875 226.40625 26.425Q226.40625 27.83125 225.48438 28.76875Q224.57812 29.690624 223.20312 29.690624Q222.34375 29.690624 221.5625 29.3Q220.79688 28.909374 220.39062 28.175Q219.98438 27.425 219.98438 26.346874ZM221.67188 26.440624Q221.67188 27.3625 222.10938 27.8625Q222.54688 28.346874 223.1875 28.346874Q223.84375 28.346874 224.26562 27.8625Q224.70312 27.3625 224.70312 26.425Q224.70312 25.51875 224.26562 25.034374Q223.84375 24.534374 223.1875 24.534374Q222.54688 24.534374 222.10938 25.034374Q221.67188 25.51875 221.67188 26.440624ZM227.35938 29.55L227.35938 20.95625L229.01562 20.95625L229.01562 29.55L227.35938 29.55Z" fill-rule="nonzero"/><path fill="#d55f00" d="M245.5 20.55C245.5 19.997715 245.94771 19.55 246.5 19.55L256.5 19.55C257.05228 19.55 257.5 19.997715 257.5 20.55L257.5 30.55C257.5 31.102285 257.05228 31.55 256.5 31.55L246.5 31.55C245.94771 31.55 245.5 31.102285 245.5 30.55Z" fill-rule="nonzero"/><path fill="#1a1a1a" d="M266.375 29.55L266.375 20.95625L272.75 20.95625L272.75 22.409374L268.10938 22.409374L268.10938 24.315624L272.42188 24.315624L272.42188 25.76875L268.10938 25.76875L268.10938 28.096874L272.90625 28.096874L272.90625 29.55L266.375 29.55ZM272.57812 29.55L274.8125 26.346874L272.67188 23.33125L274.67188 23.33125L275.78125 25.034374L276.9375 23.33125L278.875 23.33125L276.76562 26.26875L279.0625 29.55L277.04688 29.55L275.78125 27.628124L274.5 29.55L272.57812 29.55ZM280.35938 22.4875L280.35938 20.95625L282.01562 20.95625L282.01562 22.4875L280.35938 22.4875ZM280.35938 29.55L280.35938 23.33125L282.01562 23.33125L282.01562 29.55L280.35938 29.55ZM282.78125 27.76875L284.4375 27.51875Q284.54688 28.003124 284.85938 28.253124Q285.1875 28.503124 285.76562 28.503124Q286.40625 28.503124 286.71875 28.26875Q286.9375 28.096874 286.9375 27.83125Q286.9375 27.64375 286.82812 27.51875Q286.70312 27.39375 286.28125 27.3Q284.28125 26.8625 283.75 26.503124Q283.01562 25.9875 283.01562 25.096874Q283.01562 24.284374 283.64062 23.7375Q284.28125 23.190624 285.625 23.190624Q286.90625 23.190624 287.53125 23.6125Q288.15625 24.01875 288.39062 24.83125L286.82812 25.1125Q286.73438 24.753124 286.45312 24.565624Q286.17188 24.3625 285.65625 24.3625Q285.01562 24.3625 284.73438 24.55Q284.54688 24.675 284.54688 24.878124Q284.54688 25.065624 284.70312 25.190624Q284.92188 25.346874 286.23438 25.64375Q287.5625 25.940624 288.07812 26.378124Q288.59375 26.815624 288.59375 27.596874Q288.59375 28.45625 287.875 29.08125Q287.17188 29.690624 285.76562 29.690624Q284.5 29.690624 283.75 29.175Q283.01562 28.659374 282.78125 27.76875ZM293.21875 23.33125L293.21875 24.64375L292.09375 24.64375L292.09375 27.14375Q292.09375 27.909374 292.125 28.034374Q292.15625 28.159374 292.26562 28.253124Q292.39062 28.33125 292.54688 28.33125Q292.78125 28.33125 293.20312 28.159374L293.34375 29.440624Q292.78125 29.690624 292.04688 29.690624Q291.60938 29.690624 291.25 29.55Q290.89062 29.39375 290.71875 29.159374Q290.5625 28.909374 290.48438 28.51875Q290.4375 28.221874 290.4375 27.346874L290.4375 24.64375L289.6875 24.64375L289.6875 23.33125L290.4375 23.33125L290.4375 22.096874L292.09375 21.128124L292.09375 23.33125L293.21875 23.33125ZM294.35938 22.4875L294.35938 20.95625L296.01562 20.95625L296.01562 22.4875L294.35938 22.4875ZM294.35938 29.55L294.35938 23.33125L296.01562 23.33125L296.01562 29.55L294.35938 29.55ZM303.01562 29.55L301.375 29.55L301.375 26.378124Q301.375 25.3625 301.26562 25.065624Q301.17188 24.76875 300.92188 24.6125Q300.6875 24.440624 300.35938 24.440624Q299.92188 24.440624 299.57812 24.675Q299.25 24.909374 299.125 25.3Q299.0 25.690624 299.0 26.7375L299.0 29.55L297.34375 29.55L297.34375 23.33125L298.875 23.33125L298.875 24.2375Q299.6875 23.190624 300.9375 23.190624Q301.46875 23.190624 301.92188 23.39375Q302.375 23.58125 302.60938 23.89375Q302.84375 24.190624 302.92188 24.58125Q303.01562 24.95625 303.01562 25.675L303.01562 29.55ZM304.20312 29.95625L306.09375 30.190624Q306.14062 30.51875 306.3125 30.64375Q306.54688 30.815624 307.04688 30.815624Q307.6875 30.815624 308.01562 30.628124Q308.23438 30.4875 308.34375 30.20625Q308.42188 30.003124 308.42188 29.45625L308.42188 28.534374Q307.67188 29.55 306.54688 29.55Q305.29688 29.55 304.5625 28.4875Q304.0 27.64375 304.0 26.409374Q304.0 24.83125 304.75 24.01875Q305.5 23.190624 306.625 23.190624Q307.76562 23.190624 308.51562 24.20625L308.51562 23.33125L310.0625 23.33125L310.0625 28.909374Q310.0625 30.01875 309.875 30.55Q309.70312 31.096874 309.375 31.409374Q309.04688 31.721874 308.5 31.89375Q307.95312 32.08125 307.10938 32.08125Q305.53125 32.08125 304.85938 31.534374Q304.20312 30.9875 304.20312 30.159374Q304.20312 30.08125 304.20312 29.95625ZM305.6875 26.315624Q305.6875 27.3 306.0625 27.76875Q306.45312 28.221874 307.01562 28.221874Q307.60938 28.221874 308.03125 27.753124Q308.45312 27.26875 308.45312 26.346874Q308.45312 25.378124 308.04688 24.909374Q307.65625 24.440624 307.04688 24.440624Q306.45312 24.440624 306.0625 24.909374Q305.6875 25.3625 305.6875 26.315624ZM317.21875 23.33125L317.21875 24.64375L316.09375 24.64375L316.09375 27.14375Q316.09375 27.909374 316.125 28.034374Q316.15625 28.159374 316.26562 28.253124Q316.39062 28.33125 316.54688 28.33125Q316.78125 28.33125 317.20312 28.159374L317.34375 29.440624Q316.78125 29.690624 316.04688 29.690624Q315.60938 29.690624 315.25 29.55Q314.89062 29.39375 314.71875 29.159374Q314.5625 28.909374 314.48438 28.51875Q314.4375 28.221874 314.4375 27.346874L314.4375 24.64375L313.6875 24.64375L313.6875 23.33125L314.4375 23.33125L314.4375 22.096874L316.09375 21.128124L316.09375 23.33125L317.21875 23.33125ZM317.98438 26.346874Q317.98438 25.534374 318.39062 24.76875Q318.79688 23.9875 319.53125 23.596874Q320.26562 23.190624 321.1875 23.190624Q322.59375 23.190624 323.5 24.1125Q324.40625 25.01875 324.40625 26.425Q324.40625 27.83125 323.48438 28.76875Q322.57812 29.690624 321.20312 29.690624Q320.34375 29.690624 319.5625 29.3Q318.79688 28.909374 318.39062 28.175Q317.98438 27.425 317.98438 26.346874ZM319.67188 26.440624Q319.67188 27.3625 320.10938 27.8625Q320.54688 28.346874 321.1875 28.346874Q321.84375 28.346874 322.26562 27.8625Q322.70312 27.3625 322.70312 26.425Q322.70312 25.51875 322.26562 25.034374Q321.84375 24.534374 321.1875 24.534374Q320.54688 24.534374 320.10938 25.034374Q319.67188 25.51875 319.67188 26.440624ZM324.98438 26.346874Q324.98438 25.534374 325.39062 24.76875Q325.79688 23.9875 326.53125 23.596874Q327.26562 23.190624 328.1875 23.190624Q329.59375 23.190624 330.5 24.1125Q331.40625 25.01875 331.40625 26.425Q331.40625 27.83125 330.48438 28.76875Q329.57812 29.690624 328.20312 29.690624Q327.34375 29.690624 326.5625 29.3Q325.79688 28.909374 325.39062 28.175Q324.98438 27.425 324.98438 26.346874ZM326.67188 26.440624Q326.67188 27.3625 327.10938 27.8625Q327.54688 28.346874 328.1875 28.346874Q328.84375 28.346874 329.26562 27.8625Q329.70312 27.3625 329.70312 26.425Q329.70312 25.51875 329.26562 25.034374Q328.84375 24.534374 328.1875 24.534374Q327.54688 24.534374 327.10938 25.034374Q326.67188 25.51875 326.67188 26.440624ZM332.35938 29.55L332.35938 20.95625L334.01562 20.95625L334.01562 29.55L332.35938 29.55ZM334.78125 27.76875L336.4375 27.51875Q336.54688 28.003124 336.85938 28.253124Q337.1875 28.503124 337.76562 28.503124Q338.40625 28.503124 338.71875 28.26875Q338.9375 28.096874 338.9375 27.83125Q338.9375 27.64375 338.82812 27.51875Q338.70312 27.39375 338.28125 27.3Q336.28125 26.8625 335.75 26.503124Q335.01562 25.9875 335.01562 25.096874Q335.01562 24.284374 335.64062 23.7375Q336.28125 23.190624 337.625 23.190624Q338.90625 23.190624 339.53125 23.6125Q340.15625 24.01875 340.39062 24.83125L338.82812 25.1125Q338.73438 24.753124 338.45312 24.565624Q338.17188 24.3625 337.65625 24.3625Q337.01562 24.3625 336.73438 24.55Q336.54688 24.675 336.54688 24.878124Q336.54688 25.065624 336.70312 25.190624Q336.92188 25.346874 338.23438 25.64375Q339.5625 25.940624 340.07812 26.378124Q340.59375 26.815624 340.59375 27.596874Q340.59375 28.45625 339.875 29.08125Q339.17188 29.690624 337.76562 29.690624Q336.5 29.690624 335.75 29.175Q335.01562 28.659374 334.78125 27.76875ZM349.45312 29.55L349.45312 28.6125Q349.125 29.1125 348.5625 29.409374Q348.01562 29.690624 347.39062 29.690624Q346.76562 29.690624 346.26562 29.425Q345.76562 29.14375 345.54688 28.64375Q345.32812 28.14375 345.32812 27.26875L345.32812 23.33125L346.96875 23.33125L346.96875 26.190624Q346.96875 27.503124 347.0625 27.8Q347.15625 28.096874 347.39062 28.26875Q347.64062 28.440624 348.0 28.440624Q348.42188 28.440624 348.75 28.20625Q349.09375 27.971874 349.21875 27.628124Q349.34375 27.284374 349.34375 25.95625L349.34375 23.33125L350.98438 23.33125L350.98438 29.55L349.45312 29.55ZM351.78125 27.76875L353.4375 27.51875Q353.54688 28.003124 353.85938 28.253124Q354.1875 28.503124 354.76562 28.503124Q355.40625 28.503124 355.71875 28.26875Q355.9375 28.096874 355.9375 27.83125Q355.9375 27.64375 355.82812 27.51875Q355.70312 27.39375 355.28125 27.3Q353.28125 26.8625 352.75 26.503124Q352.01562 25.9875 352.01562 25.096874Q352.01562 24.284374 352.64062 23.7375Q353.28125 23.190624 354.625 23.190624Q355.90625 23.190624 356.53125 23.6125Q357.15625 24.01875 357.39062 24.83125L355.82812 25.1125Q355.73438 24.753124 355.45312 24.565624Q355.17188 24.3625 354.65625 24.3625Q354.01562 24.3625 353.73438 24.55Q353.54688 24.675 353.54688 24.878124Q353.54688 25.065624 353.70312 25.190624Q353.92188 25.346874 355.23438 25.64375Q356.5625 25.940624 357.07812 26.378124Q357.59375 26.815624 357.59375 27.596874Q357.59375 28.45625 356.875 29.08125Q356.17188 29.690624 354.76562 29.690624Q353.5 29.690624 352.75 29.175Q352.01562 28.659374 351.78125 27.76875ZM360.59375 25.221874L359.09375 24.95625Q359.34375 24.05 359.95312 23.628124Q360.57812 23.190624 361.79688 23.190624Q362.89062 23.190624 363.42188 23.45625Q363.96875 23.70625 364.1875 24.1125Q364.40625 24.503124 364.40625 25.58125L364.39062 27.503124Q364.39062 28.33125 364.46875 28.721874Q364.54688 29.096874 364.76562 29.55L363.14062 29.55Q363.07812 29.378124 362.98438 29.065624Q362.9375 28.909374 362.92188 28.8625Q362.5 29.284374 362.01562 29.4875Q361.54688 29.690624 361.0 29.690624Q360.03125 29.690624 359.46875 29.175Q358.92188 28.64375 358.92188 27.846874Q358.92188 27.315624 359.17188 26.909374Q359.4375 26.503124 359.89062 26.284374Q360.34375 26.05 361.20312 25.89375Q362.34375 25.675 362.79688 25.4875L362.79688 25.33125Q362.79688 24.846874 362.5625 24.64375Q362.32812 24.440624 361.67188 24.440624Q361.23438 24.440624 360.98438 24.6125Q360.75 24.784374 360.59375 25.221874ZM362.79688 26.565624Q362.48438 26.659374 361.79688 26.815624Q361.10938 26.95625 360.89062 27.096874Q360.57812 27.33125 360.57812 27.675Q360.57812 28.01875 360.82812 28.284374Q361.09375 28.534374 361.48438 28.534374Q361.9375 28.534374 362.34375 28.2375Q362.64062 28.01875 362.73438 27.690624Q362.79688 27.4875 362.79688 26.89375L362.79688 26.565624ZM366.20312 29.95625L368.09375 30.190624Q368.14062 30.51875 368.3125 30.64375Q368.54688 30.815624 369.04688 30.815624Q369.6875 30.815624 370.01562 30.628124Q370.23438 30.4875 370.34375 30.20625Q370.42188 30.003124 370.42188 29.45625L370.42188 28.534374Q369.67188 29.55 368.54688 29.55Q367.29688 29.55 366.5625 28.4875Q366.0 27.64375 366.0 26.409374Q366.0 24.83125 366.75 24.01875Q367.5 23.190624 368.625 23.190624Q369.76562 23.190624 370.51562 24.20625L370.51562 23.33125L372.0625 23.33125L372.0625 28.909374Q372.0625 30.01875 371.875 30.55Q371.70312 31.096874 371.375 31.409374Q371.04688 31.721874 370.5 31.89375Q369.95312 32.08125 369.10938 32.08125Q367.53125 32.08125 366.85938 31.534374Q366.20312 30.9875 366.20312 30.159374Q366.20312 30.08125 366.20312 29.95625ZM367.6875 26.315624Q367.6875 27.3 368.0625 27.76875Q368.45312 28.221874 369.01562 28.221874Q369.60938 28.221874 370.03125 27.753124Q370.45312 27.26875 370.45312 26.346874Q370.45312 25.378124 370.04688 24.909374Q369.65625 24.440624 369.04688 24.440624Q368.45312 24.440624 368.0625 24.909374Q367.6875 25.3625 367.6875 26.315624ZM376.96875 27.565624L378.60938 27.846874Q378.29688 28.753124 377.60938 29.221874Q376.92188 29.690624 375.90625 29.690624Q374.28125 29.690624 373.5 28.628124Q372.875 27.784374 372.875 26.4875Q372.875 24.940624 373.6875 24.065624Q374.5 23.190624 375.73438 23.190624Q377.125 23.190624 377.92188 24.1125Q378.73438 25.01875 378.6875 26.909374L374.5625 26.909374Q374.59375 27.64375 374.96875 28.05Q375.34375 28.45625 375.92188 28.45625Q376.29688 28.45625 376.5625 28.253124Q376.82812 28.034374 376.96875 27.565624ZM377.0625 25.909374Q377.04688 25.190624 376.6875 24.815624Q376.34375 24.440624 375.82812 24.440624Q375.29688 24.440624 374.9375 24.83125Q374.59375 25.2375 374.59375 25.909374L377.0625 25.909374Z" fill-rule="nonzero"/><path fill="#009f73" d="M395.5 20.55C395.5 19.997715 395.94772 19.55 396.5 19.55L406.5 19.55C407.05228 19.55 407.5 19.997715 407.5 20.55L407.5 30.55C407.5 31.102285 407.05228 31.55 406.5 31.55L396.5 31.55C395.94772 31.55 395.5 31.102285 395.5 30.55Z" fill-rule="nonzero"/><path fill="#1a1a1a" d="M421.875 26.39375L423.54688 26.925Q423.17188 28.33125 422.26562 29.01875Q421.35938 29.690624 419.98438 29.690624Q418.26562 29.690624 417.15625 28.534374Q416.0625 27.3625 416.0625 25.33125Q416.0625 23.190624 417.17188 22.003124Q418.28125 20.815624 420.09375 20.815624Q421.67188 20.815624 422.65625 21.7375Q423.23438 22.3 423.53125 23.33125L421.8125 23.7375Q421.65625 23.065624 421.17188 22.690624Q420.6875 22.3 420.0 22.3Q419.04688 22.3 418.45312 22.9875Q417.85938 23.659374 417.85938 25.20625Q417.85938 26.83125 418.4375 27.51875Q419.03125 28.20625 419.96875 28.20625Q420.65625 28.20625 421.15625 27.76875Q421.65625 27.33125 421.875 26.39375ZM423.98438 26.346874Q423.98438 25.534374 424.39062 24.76875Q424.79688 23.9875 425.53125 23.596874Q426.26562 23.190624 427.1875 23.190624Q428.59375 23.190624 429.5 24.1125Q430.40625 25.01875 430.40625 26.425Q430.40625 27.83125 429.48438 28.76875Q428.57812 29.690624 427.20312 29.690624Q426.34375 29.690624 425.5625 29.3Q424.79688 28.909374 424.39062 28.175Q423.98438 27.425 423.98438 26.346874ZM425.67188 26.440624Q425.67188 27.3625 426.10938 27.8625Q426.54688 28.346874 427.1875 28.346874Q427.84375 28.346874 428.26562 27.8625Q428.70312 27.3625 428.70312 26.425Q428.70312 25.51875 428.26562 25.034374Q427.84375 24.534374 427.1875 24.534374Q426.54688 24.534374 426.10938 25.034374Q425.67188 25.51875 425.67188 26.440624ZM437.01562 29.55L435.375 29.55L435.375 26.378124Q435.375 25.3625 435.26562 25.065624Q435.17188 24.76875 434.92188 24.6125Q434.6875 24.440624 434.35938 24.440624Q433.92188 24.440624 433.57812 24.675Q433.25 24.909374 433.125 25.3Q433.0 25.690624 433.0 26.7375L433.0 29.55L431.34375 29.55L431.34375 23.33125L432.875 23.33125L432.875 24.2375Q433.6875 23.190624 434.9375 23.190624Q435.46875 23.190624 435.92188 23.39375Q436.375 23.58125 436.60938 23.89375Q436.84375 24.190624 436.92188 24.58125Q437.01562 24.95625 437.01562 25.675L437.01562 29.55ZM443.78125 25.159374L442.17188 25.45625Q442.07812 24.971874 441.78125 24.7375Q441.5 24.4875 441.04688 24.4875Q440.42188 24.4875 440.04688 24.909374Q439.6875 25.33125 439.6875 26.33125Q439.6875 27.440624 440.0625 27.89375Q440.4375 28.346874 441.0625 28.346874Q441.53125 28.346874 441.82812 28.08125Q442.125 27.815624 442.25 27.159374L443.875 27.440624Q443.625 28.55 442.90625 29.128124Q442.1875 29.690624 440.98438 29.690624Q439.625 29.690624 438.8125 28.83125Q438.0 27.971874 438.0 26.440624Q438.0 24.909374 438.8125 24.05Q439.625 23.190624 441.01562 23.190624Q442.15625 23.190624 442.82812 23.675Q443.5 24.159374 443.78125 25.159374ZM448.96875 27.565624L450.60938 27.846874Q450.29688 28.753124 449.60938 29.221874Q448.92188 29.690624 447.90625 29.690624Q446.28125 29.690624 445.5 28.628124Q444.875 27.784374 444.875 26.4875Q444.875 24.940624 445.6875 24.065624Q446.5 23.190624 447.73438 23.190624Q449.125 23.190624 449.92188 24.1125Q450.73438 25.01875 450.6875 26.909374L446.5625 26.909374Q446.59375 27.64375 446.96875 28.05Q447.34375 28.45625 447.92188 28.45625Q448.29688 28.45625 448.5625 28.253124Q448.82812 28.034374 448.96875 27.565624ZM449.0625 25.909374Q449.04688 25.190624 448.6875 24.815624Q448.34375 24.440624 447.82812 24.440624Q447.29688 24.440624 446.9375 24.83125Q446.59375 25.2375 446.59375 25.909374L449.0625 25.909374ZM452.3125 23.33125L453.84375 23.33125L453.84375 24.2375Q454.15625 23.76875 454.65625 23.4875Q455.17188 23.190624 455.79688 23.190624Q456.875 23.190624 457.625 24.034374Q458.39062 24.878124 458.39062 26.409374Q458.39062 27.95625 457.625 28.83125Q456.85938 29.690624 455.78125 29.690624Q455.26562 29.690624 454.84375 29.4875Q454.42188 29.284374 453.96875 28.784374L453.96875 31.925L452.3125 31.925L452.3125 23.33125ZM453.9375 26.33125Q453.9375 27.378124 454.35938 27.878124Q454.78125 28.378124 455.375 28.378124Q455.95312 28.378124 456.32812 27.925Q456.70312 27.45625 456.70312 26.409374Q456.70312 25.440624 456.3125 24.971874Q455.92188 24.4875 455.34375 24.4875Q454.73438 24.4875 454.32812 24.95625Q453.9375 25.425 453.9375 26.33125ZM462.21875 23.33125L462.21875 24.64375L461.09375 24.64375L461.09375 27.14375Q461.09375 27.909374 461.125 28.034374Q461.15625 28.159374 461.26562 28.253124Q461.39062 28.33125 461.54688 28.33125Q461.78125 28.33125 462.20312 28.159374L462.34375 29.440624Q461.78125 29.690624 461.04688 29.690624Q460.60938 29.690624 460.25 29.55Q459.89062 29.39375 459.71875 29.159374Q459.5625 28.909374 459.48438 28.51875Q459.4375 28.221874 459.4375 27.346874L459.4375 24.64375L458.6875 24.64375L458.6875 23.33125L459.4375 23.33125L459.4375 22.096874L461.09375 21.128124L461.09375 23.33125L462.21875 23.33125Z" fill-rule="nonzero"/></svg>