<svg version="1.1" viewBox="0.0 0.0 574.0 343.0" fill="none" stroke="none" stroke-linecap="square" stroke-miterlimit="10" width="574" height="343" xmlns:xlink="http://www.w3.org/1999/xlink" xmlns="http://www.w3.org/2000/svg"><path fill="#ffffff" d="M0 0L574.0 0L574.0 343.0L0 343.0L0 0Z" fill-rule="nonzero"/><path stroke="#333333" stroke-width="1.0" stroke-linecap="butt" d="M170.5 17.5L170.5 281.5" fill-rule="nonzero"/><path stroke="#cccccc" stroke-width="1.0" stroke-linecap="butt" d="M235.5 17.5L235.5 281.5" fill-rule="nonzero"/><path stroke="#cccccc" stroke-width="1.0" stroke-linecap="butt" d="M299.5 17.5L299.5 281.5" fill-rule="nonzero"/><path stroke="#cccccc" stroke-width="1.0" stroke-linecap="butt" d="M363.5 17.5L363.5 281.5" fill-rule="nonzero"/><path stroke="#cccccc" stroke-width="1.0" stroke-linecap="butt" d="M427.5 17.5L427.5 281.5" fill-rule="nonzero"/><path stroke="#cccccc" stroke-width="1.0" stroke-linecap="butt" d="M492.5 17.5L492.5 281.5" fill-rule="nonzero"/><path stroke="#cccccc" stroke-width="1.0" stroke-linecap="butt" d="M556.5 17.5L556.5 281.5" fill-rule="nonzero"/><clipPath id="id_0"><path d="M170.765 17.15L556.25385 17.15L556.25385 281.47266L170.765 281.47266L170.765 17.15Z" clip-rule="nonzero"/></clipPath><path stroke="#000000" stroke-width="2.0" stroke-linecap="butt" stroke-opacity="0.0" clip-path="url(#id_0)" d="M171.0 78.0L171.0 39.0L554.0 39.0C555.10455 39.0 556.0 39.89543 556.0 41.0L556.0 76.0C556.0 77.10457 555.10455 78.0 554.0 78.0Z" fill-rule="nonzero"/><path fill="#0072b2" clip-path="url(#id_0)" d="M171.0 78.0L171.0 39.0L554.0 39.0C555.10455 39.0 556.0 39.89543 556.0 41.0L556.0 76.0C556.0 77.10457 555.10455 78.0 554.0 78.0Z" fill-rule="nonzero"/><path stroke="#000000" stroke-width="2.0" stroke-linecap="butt" stroke-opacity="0.0" clip-path="url(#id_0)" d="M171.0 139.0L171.0 100.0L490.0 100.0C491.10458 100.0 492.0 100.89543 492.0 102.0L492.0 137.0C492.0 138.10457 491.10458 139.0 490.0 139.0Z" fill-rule="nonzero"/><path fill="#0072b2" clip-path="url(#id_0)" d="M171.0 139.0L171.0 100.0L490.0 100.0C491.10458 100.0 492.0 100.89543 492.0 102.0L492.0 137.0C492.0 138.10457 491.10458 139.0 490.0 139.0Z" fill-rule="nonzero"/><path stroke="#000000" stroke-width="2.0" stroke-linecap="butt" stroke-opacity="0.0" clip-path="url(#id_0)" d="M171.0 200.0L171.0 161.0L426.0 161.0C427.10458 161.0 428.0 161.89543 428.0 163.0L428.0 198.0C428.0 199.10457 427.10458 200.0 426.0 200.0Z" fill-rule="nonzero"/><path fill="#0072b2" clip-path="url(#id_0)" d="M171.0 200.0L171.0 161.0L426.0 161.0C427.10458 161.0 428.0 161.89543 428.0 163.0L428.0 198.0C428.0 199.10457 427.10458 200.0 426.0 200.0Z" fill-rule="nonzero"/><path stroke="#000000" stroke-width="2.0" stroke-linecap="butt" stroke-opacity="0.0" clip-path="url(#id_0)" d="M171.0 260.0L171.0 221.0L265.0 221.0C266.10458 221.0 267.0 221.89543 267.0 223.0L267.0 258.0C267.0 259.10458 266.10458 260.0 265.0 260.0Z" fill-rule="nonzero"/><path fill="#0072b2" clip-path="url(#id_0)" d="M171.0 260.0L171.0 221.0L265.0 221.0C266.10458 221.0 267.0 221.89543 267.0 223.0L267.0 258.0C267.0 259.10458 266.10458 260.0 265.0 260.0Z" fill-rule="nonzero"/><path stroke="#0072b2" stroke-width="3.0" stroke-linejoin="round" stroke-linecap="round" d="M541.7195 53.921875L541.7195 62.5L540.64136 62.5L540.64136 55.28125L538.45386 56.078125L538.45386 55.09375L541.56323 53.921875L541.7195 53.921875ZM550.75073 61.609375L550.75073 62.5L545.1726 62.5L545.1726 61.71875L547.9695 58.609375Q548.4851 58.03125 548.76636 57.640625Q549.0476 57.234375 549.157 56.921875Q549.282 56.59375 549.282 56.265625Q549.282 55.84375 549.1101 55.5Q548.93823 55.15625 548.5945 54.953125Q548.26636 54.734375 547.782 54.734375Q547.2195 54.734375 546.8445 54.96875Q546.4695 55.1875 546.282 55.578125Q546.0945 55.96875 546.0945 56.46875L545.00073 56.46875Q545.00073 55.75 545.31323 55.15625Q545.64136 54.5625 546.25073 54.203125Q546.87573 53.84375 547.782 53.84375Q548.5945 53.84375 549.1726 54.140625Q549.75073 54.421875 550.0476 54.9375Q550.3601 55.4375 550.3601 56.125Q550.3601 56.5 550.2351 56.890625Q550.1101 57.265625 549.89136 57.65625Q549.6726 58.03125 549.37573 58.40625Q549.0945 58.765625 548.76636 59.125L546.4695 61.609375L550.75073 61.609375Z" fill-rule="nonzero"/><path fill="#ffffff" d="M541.7195 53.921875L541.7195 62.5L540.64136 62.5L540.64136 55.28125L538.45386 56.078125L538.45386 55.09375L541.56323 53.921875L541.7195 53.921875ZM550.75073 61.609375L550.75073 62.5L545.1726 62.5L545.1726 61.71875L547.9695 58.609375Q548.4851 58.03125 548.76636 57.640625Q549.0476 57.234375 549.157 56.921875Q549.282 56.59375 549.282 56.265625Q549.282 55.84375 549.1101 55.5Q548.93823 55.15625 548.5945 54.953125Q548.26636 54.734375 547.782 54.734375Q547.2195 54.734375 546.8445 54.96875Q546.4695 55.1875 546.282 55.578125Q546.0945 55.96875 546.0945 56.46875L545.00073 56.46875Q545.00073 55.75 545.31323 55.15625Q545.64136 54.5625 546.25073 54.203125Q546.87573 53.84375 547.782 53.84375Q548.5945 53.84375 549.1726 54.140625Q549.75073 54.421875 550.0476 54.9375Q550.3601 55.4375 550.3601 56.125Q550.3601 56.5 550.2351 56.890625Q550.1101 57.265625 549.89136 57.65625Q549.6726 58.03125 549.37573 58.40625Q549.0945 58.765625 548.76636 59.125L546.4695 61.609375L550.75073 61.609375Z" fill-rule="nonzero"/><path stroke="#0072b2" stroke-width="3.0" stroke-linejoin="round" stroke-linecap="round" d="M477.4713 114.921875L477.4713 123.5L476.3932 123.5L476.3932 116.28125L474.2057 117.078125L474.2057 116.09375L477.31506 114.921875L477.4713 114.921875ZM486.2682 118.546875L486.2682 119.859375Q486.2682 120.90625 486.0807 121.625Q485.8932 122.34375 485.5338 122.78125Q485.19006 123.21875 484.69006 123.421875Q484.2057 123.625 483.5807 123.625Q483.0963 123.625 482.67444 123.5Q482.25256 123.375 481.92444 123.109375Q481.5963 122.828125 481.36194 122.390625Q481.12756 121.953125 481.00256 121.328125Q480.87756 120.6875 480.87756 119.859375L480.87756 118.546875Q480.87756 117.5 481.06506 116.796875Q481.2682 116.09375 481.61194 115.65625Q481.9713 115.21875 482.4557 115.03125Q482.9557 114.84375 483.56506 114.84375Q484.06506 114.84375 484.48694 114.96875Q484.9088 115.09375 485.23694 115.359375Q485.56506 115.609375 485.7838 116.046875Q486.0182 116.46875 486.1432 117.09375Q486.2682 117.71875 486.2682 118.546875ZM485.17444 120.03125L485.17444 118.375Q485.17444 117.796875 485.11194 117.359375Q485.04944 116.921875 484.9088 116.609375Q484.7838 116.296875 484.5807 116.109375Q484.3932 115.921875 484.1432 115.828125Q483.8932 115.734375 483.56506 115.734375Q483.19006 115.734375 482.87756 115.875Q482.5807 116.015625 482.37756 116.328125Q482.17444 116.640625 482.06506 117.15625Q481.9713 117.65625 481.9713 118.375L481.9713 120.03125Q481.9713 120.609375 482.0338 121.046875Q482.11194 121.484375 482.23694 121.8125Q482.37756 122.125 482.56506 122.328125Q482.7682 122.53125 483.0182 122.625Q483.2682 122.71875 483.5807 122.71875Q483.98694 122.71875 484.2838 122.578125Q484.5807 122.421875 484.7838 122.09375Q484.98694 121.765625 485.0807 121.265625Q485.17444 120.75 485.17444 120.03125Z" fill-rule="nonzero"/><path fill="#ffffff" d="M477.4713 114.921875L477.4713 123.5L476.3932 123.5L476.3932 116.28125L474.2057 117.078125L474.2057 116.09375L477.31506 114.921875L477.4713 114.921875ZM486.2682 118.546875L486.2682 119.859375Q486.2682 120.90625 486.0807 121.625Q485.8932 122.34375 485.5338 122.78125Q485.19006 123.21875 484.69006 123.421875Q484.2057 123.625 483.5807 123.625Q483.0963 123.625 482.67444 123.5Q482.25256 123.375 481.92444 123.109375Q481.5963 122.828125 481.36194 122.390625Q481.12756 121.953125 481.00256 121.328125Q480.87756 120.6875 480.87756 119.859375L480.87756 118.546875Q480.87756 117.5 481.06506 116.796875Q481.2682 116.09375 481.61194 115.65625Q481.9713 115.21875 482.4557 115.03125Q482.9557 114.84375 483.56506 114.84375Q484.06506 114.84375 484.48694 114.96875Q484.9088 115.09375 485.23694 115.359375Q485.56506 115.609375 485.7838 116.046875Q486.0182 116.46875 486.1432 117.09375Q486.2682 117.71875 486.2682 118.546875ZM485.17444 120.03125L485.17444 118.375Q485.17444 117.796875 485.11194 117.359375Q485.04944 116.921875 484.9088 116.609375Q484.7838 116.296875 484.5807 116.109375Q484.3932 115.921875 484.1432 115.828125Q483.8932 115.734375 483.56506 115.734375Q483.19006 115.734375 482.87756 115.875Q482.5807 116.015625 482.37756 116.328125Q482.17444 116.640625 482.06506 117.15625Q481.9713 117.65625 481.9713 118.375L481.9713 120.03125Q481.9713 120.609375 482.0338 121.046875Q482.11194 121.484375 482.23694 121.8125Q482.37756 122.125 482.56506 122.328125Q482.7682 122.53125 483.0182 122.625Q483.2682 122.71875 483.5807 122.71875Q483.98694 122.71875 484.2838 122.578125Q484.5807 122.421875 484.7838 122.09375Q484.98694 121.765625 485.0807 121.265625Q485.17444 120.75 485.17444 120.03125Z" fill-rule="nonzero"/><path stroke="#0072b2" stroke-width="3.0" stroke-linejoin="round" stroke-linecap="round" d="M422.0513 182.1875Q422.0513 182.96875 421.69193 183.51562Q421.33255 184.04688 420.70755 184.34375Q420.09818 184.625 419.33255 184.625Q418.56693 184.625 417.94193 184.34375Q417.33255 184.04688 416.97318 183.51562Q416.6138 182.96875 416.6138 182.1875Q416.6138 181.6875 416.81693 181.26562Q417.02005 180.82812 417.37943 180.51562Q417.7388 180.20312 418.22318 180.03125Q418.72318 179.85938 419.31693 179.85938Q420.1138 179.85938 420.72318 180.15625Q421.33255 180.45312 421.69193 180.98438Q422.0513 181.51562 422.0513 182.1875ZM420.95755 182.17188Q420.95755 181.6875 420.75443 181.32812Q420.5513 180.95312 420.1763 180.75Q419.8013 180.54688 419.31693 180.54688Q418.81693 180.54688 418.45755 180.75Q418.09818 180.95312 417.89505 181.32812Q417.70755 181.6875 417.70755 182.17188Q417.70755 182.65625 417.89505 183.01562Q418.09818 183.35938 418.45755 183.54688Q418.83255 183.71875 419.33255 183.71875Q419.83255 183.71875 420.19193 183.54688Q420.56693 183.35938 420.75443 183.01562Q420.95755 182.65625 420.95755 182.17188ZM421.84818 178.1875Q421.84818 178.8125 421.52005 179.3125Q421.19193 179.8125 420.6138 180.09375Q420.0513 180.375 419.33255 180.375Q418.59818 180.375 418.02005 180.09375Q417.45755 179.8125 417.12943 179.3125Q416.81693 178.8125 416.81693 178.1875Q416.81693 177.4375 417.12943 176.92188Q417.45755 176.40625 418.02005 176.125Q418.59818 175.84375 419.33255 175.84375Q420.06693 175.84375 420.62943 176.125Q421.19193 176.40625 421.52005 176.92188Q421.84818 177.4375 421.84818 178.1875ZM420.77005 178.20312Q420.77005 177.78125 420.58255 177.45312Q420.39505 177.125 420.06693 176.9375Q419.75443 176.73438 419.33255 176.73438Q418.89505 176.73438 418.56693 176.92188Q418.25443 177.09375 418.08255 177.42188Q417.91068 177.75 417.91068 178.20312Q417.91068 178.64062 418.08255 178.96875Q418.25443 179.29688 418.58255 179.48438Q418.91068 179.67188 419.33255 179.67188Q419.75443 179.67188 420.06693 179.48438Q420.39505 179.29688 420.58255 178.96875Q420.77005 178.64062 420.77005 178.20312Z" fill-rule="nonzero"/><path fill="#ffffff" d="M422.0513 182.1875Q422.0513 182.96875 421.69193 183.51562Q421.33255 184.04688 420.70755 184.34375Q420.09818 184.625 419.33255 184.625Q418.56693 184.625 417.94193 184.34375Q417.33255 184.04688 416.97318 183.51562Q416.6138 182.96875 416.6138 182.1875Q416.6138 181.6875 416.81693 181.26562Q417.02005 180.82812 417.37943 180.51562Q417.7388 180.20312 418.22318 180.03125Q418.72318 179.85938 419.31693 179.85938Q420.1138 179.85938 420.72318 180.15625Q421.33255 180.45312 421.69193 180.98438Q422.0513 181.51562 422.0513 182.1875ZM420.95755 182.17188Q420.95755 181.6875 420.75443 181.32812Q420.5513 180.95312 420.1763 180.75Q419.8013 180.54688 419.31693 180.54688Q418.81693 180.54688 418.45755 180.75Q418.09818 180.95312 417.89505 181.32812Q417.70755 181.6875 417.70755 182.17188Q417.70755 182.65625 417.89505 183.01562Q418.09818 183.35938 418.45755 183.54688Q418.83255 183.71875 419.33255 183.71875Q419.83255 183.71875 420.19193 183.54688Q420.56693 183.35938 420.75443 183.01562Q420.95755 182.65625 420.95755 182.17188ZM421.84818 178.1875Q421.84818 178.8125 421.52005 179.3125Q421.19193 179.8125 420.6138 180.09375Q420.0513 180.375 419.33255 180.375Q418.59818 180.375 418.02005 180.09375Q417.45755 179.8125 417.12943 179.3125Q416.81693 178.8125 416.81693 178.1875Q416.81693 177.4375 417.12943 176.92188Q417.45755 176.40625 418.02005 176.125Q418.59818 175.84375 419.33255 175.84375Q420.06693 175.84375 420.62943 176.125Q421.19193 176.40625 421.52005 176.92188Q421.84818 177.4375 421.84818 178.1875ZM420.77005 178.20312Q420.77005 177.78125 420.58255 177.45312Q420.39505 177.125 420.06693 176.9375Q419.75443 176.73438 419.33255 176.73438Q418.89505 176.73438 418.56693 176.92188Q418.25443 177.09375 418.08255 177.42188Q417.91068 177.75 417.91068 178.20312Q417.91068 178.64062 418.08255 178.96875Q418.25443 179.29688 418.58255 179.48438Q418.91068 179.67188 419.33255 179.67188Q419.75443 179.67188 420.06693 179.48438Q420.39505 179.29688 420.58255 178.96875Q420.77005 178.64062 420.77005 178.20312Z" fill-rule="nonzero"/><path stroke="#0072b2" stroke-width="3.0" stroke-linejoin="round" stroke-linecap="round" d="M257.6341 239.70312L258.39972 239.70312Q258.97784 239.70312 259.33722 239.51562Q259.71222 239.3125 259.89972 238.98438Q260.08722 238.65625 260.08722 238.23438Q260.08722 237.75 259.91534 237.42188Q259.7591 237.07812 259.43097 236.90625Q259.10284 236.73438 258.60284 236.73438Q258.1341 236.73438 257.79034 236.92188Q257.4466 237.09375 257.24347 237.42188Q257.05597 237.75 257.05597 238.20312L255.9622 238.20312Q255.9622 237.54688 256.29034 237.01562Q256.61847 236.48438 257.21222 236.17188Q257.80597 235.84375 258.60284 235.84375Q259.36847 235.84375 259.9466 236.125Q260.52472 236.39062 260.85284 236.9375Q261.18097 237.46875 261.18097 238.26562Q261.18097 238.59375 261.02472 238.95312Q260.86847 239.3125 260.55597 239.64062Q260.24347 239.95312 259.74347 240.15625Q259.2591 240.35938 258.55597 240.35938L257.6341 240.35938L257.6341 239.70312ZM257.6341 240.59375L257.6341 239.9375L258.55597 239.9375Q259.36847 239.9375 259.89972 240.14062Q260.43097 240.32812 260.74347 240.65625Q261.05597 240.96875 261.18097 241.35938Q261.30597 241.73438 261.30597 242.125Q261.30597 242.71875 261.10284 243.1875Q260.89972 243.64062 260.52472 243.96875Q260.16534 244.28125 259.66534 244.45312Q259.18097 244.625 258.60284 244.625Q258.04034 244.625 257.55597 244.46875Q257.0716 244.29688 256.6966 244.0Q256.3216 243.70312 256.10284 243.26562Q255.8997 242.8125 255.8997 242.25L256.97784 242.25Q256.97784 242.6875 257.16534 243.03125Q257.36847 243.35938 257.72784 243.54688Q258.10284 243.71875 258.60284 243.71875Q259.10284 243.71875 259.46222 243.54688Q259.8216 243.375 260.0091 243.03125Q260.21222 242.67188 260.21222 242.14062Q260.21222 241.60938 259.99347 241.26562Q259.77472 240.92188 259.35284 240.76562Q258.9466 240.59375 258.39972 240.59375L257.6341 240.59375Z" fill-rule="nonzero"/><path fill="#ffffff" d="M257.6341 239.70312L258.39972 239.70312Q258.97784 239.70312 259.33722 239.51562Q259.71222 239.3125 259.89972 238.98438Q260.08722 238.65625 260.08722 238.23438Q260.08722 237.75 259.91534 237.42188Q259.7591 237.07812 259.43097 236.90625Q259.10284 236.73438 258.60284 236.73438Q258.1341 236.73438 257.79034 236.92188Q257.4466 237.09375 257.24347 237.42188Q257.05597 237.75 257.05597 238.20312L255.9622 238.20312Q255.9622 237.54688 256.29034 237.01562Q256.61847 236.48438 257.21222 236.17188Q257.80597 235.84375 258.60284 235.84375Q259.36847 235.84375 259.9466 236.125Q260.52472 236.39062 260.85284 236.9375Q261.18097 237.46875 261.18097 238.26562Q261.18097 238.59375 261.02472 238.95312Q260.86847 239.3125 260.55597 239.64062Q260.24347 239.95312 259.74347 240.15625Q259.2591 240.35938 258.55597 240.35938L257.6341 240.35938L257.6341 239.70312ZM257.6341 240.59375L257.6341 239.9375L258.55597 239.9375Q259.36847 239.9375 259.89972 240.14062Q260.43097 240.32812 260.74347 240.65625Q261.05597 240.96875 261.18097 241.35938Q261.30597 241.73438 261.30597 242.125Q261.30597 242.71875 261.10284 243.1875Q260.89972 243.64062 260.52472 243.96875Q260.16534 244.28125 259.66534 244.45312Q259.18097 244.625 258.60284 244.625Q258.04034 244.625 257.55597 244.46875Q257.0716 244.29688 256.6966 244.0Q256.3216 243.70312 256.10284 243.26562Q255.8997 242.8125 255.8997 242.25L256.97784 242.25Q256.97784 242.6875 257.16534 243.03125Q257.36847 243.35938 257.72784 243.54688Q258.10284 243.71875 258.60284 243.71875Q259.10284 243.71875 259.46222 243.54688Q259.8216 243.375 260.0091 243.03125Q260.21222 242.67188 260.21222 242.14062Q260.21222 241.60938 259.99347 241.26562Q259.77472 240.92188 259.35284 240.76562Q258.9466 240.59375 258.39972 240.59375L257.6341 240.59375Z" fill-rule="nonzero"/><path fill="#000000" d="M292.9938 326.28378L296.29068 317.69003L297.50943 317.69003L301.02505 326.28378L299.7438 326.28378L298.72818 323.6744L295.15005 323.6744L294.19693 326.28378L292.9938 326.28378ZM295.47818 322.75253L298.38443 322.75253L297.4938 320.37753Q297.07193 319.2994 296.88443 318.59628Q296.71255 319.4244 296.41568 320.2369L295.47818 322.75253ZM302.52505 326.28378L300.16568 320.06503L301.27505 320.06503L302.6188 323.78378Q302.82193 324.39316 303.00943 325.03378Q303.15005 324.5494 303.40005 323.8619L304.79068 320.06503L305.8688 320.06503L303.50943 326.28378L302.52505 326.28378ZM310.0563 324.28378L311.15005 324.40878Q310.90005 325.3619 310.19693 325.89316Q309.4938 326.4244 308.41568 326.4244Q307.0563 326.4244 306.2438 325.58066Q305.44693 324.7369 305.44693 323.22128Q305.44693 321.65878 306.25943 320.7994Q307.07193 319.9244 308.35318 319.9244Q309.60318 319.9244 310.38443 320.76816Q311.1813 321.6119 311.1813 323.15878Q311.1813 323.25253 311.1813 323.44003L306.54068 323.44003Q306.60318 324.47128 307.1188 325.01816Q307.63443 325.5494 308.41568 325.5494Q308.9938 325.5494 309.40005 325.25253Q309.82193 324.94003 310.0563 324.28378ZM306.60318 322.58066L310.07193 322.58066Q310.00943 321.78378 309.6813 321.39316Q309.16568 320.78378 308.3688 320.78378Q307.63443 320.78378 307.13443 321.26816Q306.65005 321.75253 306.60318 322.58066ZM312.79068 326.28378L312.79068 320.06503L313.7438 320.06503L313.7438 321.00253Q314.10318 320.34628 314.40005 320.14316Q314.71255 319.9244 315.08755 319.9244Q315.6188 319.9244 316.16568 320.25253L315.8063 321.2369Q315.41568 321.00253 315.04068 321.00253Q314.6813 321.00253 314.40005 321.22128Q314.13443 321.4244 314.02505 321.7994Q313.83755 322.3619 313.83755 323.01816L313.83755 326.28378L312.79068 326.28378ZM320.8688 325.51816Q320.27505 326.01816 319.72818 326.22128Q319.19693 326.4244 318.57193 326.4244Q317.54068 326.4244 316.9938 325.9244Q316.44693 325.4244 316.44693 324.64316Q316.44693 324.19003 316.65005 323.81503Q316.85318 323.4244 317.19693 323.20566Q317.54068 322.97128 317.96255 322.8619Q318.25943 322.76816 318.90005 322.69003Q320.16568 322.5494 320.77505 322.33066Q320.77505 322.1119 320.77505 322.06503Q320.77505 321.40878 320.47818 321.14316Q320.07193 320.7994 319.27505 320.7994Q318.54068 320.7994 318.1813 321.06503Q317.82193 321.31503 317.65005 321.97128L316.6188 321.83066Q316.75943 321.1744 317.08755 320.76816Q317.41568 320.3619 318.02505 320.14316Q318.63443 319.9244 319.4313 319.9244Q320.22818 319.9244 320.72818 320.1119Q321.22818 320.2994 321.46255 320.58066Q321.69693 320.8619 321.79068 321.2994Q321.83755 321.56503 321.83755 322.26816L321.83755 323.6744Q321.83755 325.14316 321.90005 325.53378Q321.97818 325.9244 322.1813 326.28378L321.07193 326.28378Q320.91568 325.95566 320.8688 325.51816ZM320.77505 323.15878Q320.19693 323.39316 319.0563 323.56503Q318.40005 323.65878 318.13443 323.78378Q317.8688 323.89316 317.71255 324.1119Q317.57193 324.33066 317.57193 324.6119Q317.57193 325.03378 317.88443 325.31503Q318.21255 325.59628 318.82193 325.59628Q319.4313 325.59628 319.90005 325.33066Q320.38443 325.06503 320.60318 324.59628Q320.77505 324.2369 320.77505 323.5494L320.77505 323.15878ZM323.60318 326.7994L324.63443 326.95566Q324.69693 327.4244 324.9938 327.64316Q325.38443 327.94003 326.0563 327.94003Q326.79068 327.94003 327.1813 327.64316Q327.58755 327.34628 327.72818 326.83066Q327.82193 326.50253 327.8063 325.47128Q327.1188 326.28378 326.08755 326.28378Q324.8063 326.28378 324.10318 325.3619Q323.40005 324.4244 323.40005 323.14316Q323.40005 322.25253 323.71255 321.50253Q324.04068 320.7369 324.65005 320.33066Q325.25943 319.9244 326.08755 319.9244Q327.19693 319.9244 327.91568 320.81503L327.91568 320.06503L328.88443 320.06503L328.88443 325.44003Q328.88443 326.89316 328.58755 327.50253Q328.29068 328.1119 327.65005 328.45566Q327.00943 328.81503 326.07193 328.81503Q324.96255 328.81503 324.27505 328.31503Q323.58755 327.81503 323.60318 326.7994ZM324.47818 323.06503Q324.47818 324.28378 324.96255 324.84628Q325.44693 325.40878 326.1813 325.40878Q326.91568 325.40878 327.40005 324.84628Q327.90005 324.28378 327.90005 323.09628Q327.90005 321.95566 327.38443 321.37753Q326.88443 320.7994 326.16568 320.7994Q325.46255 320.7994 324.96255 321.37753Q324.47818 321.94003 324.47818 323.06503ZM335.0563 324.28378L336.15005 324.40878Q335.90005 325.3619 335.19693 325.89316Q334.4938 326.4244 333.41568 326.4244Q332.0563 326.4244 331.2438 325.58066Q330.44693 324.7369 330.44693 323.22128Q330.44693 321.65878 331.25943 320.7994Q332.07193 319.9244 333.35318 319.9244Q334.60318 319.9244 335.38443 320.76816Q336.1813 321.6119 336.1813 323.15878Q336.1813 323.25253 336.1813 323.44003L331.54068 323.44003Q331.60318 324.47128 332.1188 325.01816Q332.63443 325.5494 333.41568 325.5494Q333.9938 325.5494 334.40005 325.25253Q334.82193 324.94003 335.0563 324.28378ZM331.60318 322.58066L335.07193 322.58066Q335.00943 321.78378 334.6813 321.39316Q334.16568 320.78378 333.3688 320.78378Q332.63443 320.78378 332.13443 321.26816Q331.65005 321.75253 331.60318 322.58066ZM340.8063 328.6744L340.8063 320.06503L341.75943 320.06503L341.75943 320.8619Q342.10318 320.39316 342.52505 320.15878Q342.96255 319.9244 343.57193 319.9244Q344.3688 319.9244 344.97818 320.33066Q345.58755 320.7369 345.88443 321.4869Q346.19693 322.2369 346.19693 323.12753Q346.19693 324.08066 345.85318 324.84628Q345.52505 325.6119 344.8688 326.01816Q344.21255 326.4244 343.4938 326.4244Q342.96255 326.4244 342.54068 326.20566Q342.1188 325.97128 341.85318 325.64316L341.85318 328.6744L340.8063 328.6744ZM341.75943 323.20566Q341.75943 324.40878 342.2438 324.9869Q342.72818 325.5494 343.41568 325.5494Q344.1188 325.5494 344.6188 324.95566Q345.1188 324.3619 345.1188 323.1119Q345.1188 321.9244 344.63443 321.34628Q344.15005 320.75253 343.46255 320.75253Q342.79068 320.75253 342.27505 321.37753Q341.75943 322.00253 341.75943 323.20566ZM352.0563 324.28378L353.15005 324.40878Q352.90005 325.3619 352.19693 325.89316Q351.4938 326.4244 350.41568 326.4244Q349.0563 326.4244 348.2438 325.58066Q347.44693 324.7369 347.44693 323.22128Q347.44693 321.65878 348.25943 320.7994Q349.07193 319.9244 350.35318 319.9244Q351.60318 319.9244 352.38443 320.76816Q353.1813 321.6119 353.1813 323.15878Q353.1813 323.25253 353.1813 323.44003L348.54068 323.44003Q348.60318 324.47128 349.1188 325.01816Q349.63443 325.5494 350.41568 325.5494Q350.9938 325.5494 351.40005 325.25253Q351.82193 324.94003 352.0563 324.28378ZM348.60318 322.58066L352.07193 322.58066Q352.00943 321.78378 351.6813 321.39316Q351.16568 320.78378 350.3688 320.78378Q349.63443 320.78378 349.13443 321.26816Q348.65005 321.75253 348.60318 322.58066ZM354.79068 326.28378L354.79068 320.06503L355.7438 320.06503L355.7438 321.00253Q356.10318 320.34628 356.40005 320.14316Q356.71255 319.9244 357.08755 319.9244Q357.6188 319.9244 358.16568 320.25253L357.8063 321.2369Q357.41568 321.00253 357.04068 321.00253Q356.6813 321.00253 356.40005 321.22128Q356.13443 321.4244 356.02505 321.7994Q355.83755 322.3619 355.83755 323.01816L355.83755 326.28378L354.79068 326.28378ZM358.38443 323.70566L358.38443 322.64316L361.63443 322.64316L361.63443 323.70566L358.38443 323.70566ZM362.75943 328.6744L362.63443 327.69003Q362.97818 327.78378 363.2438 327.78378Q363.58755 327.78378 363.79068 327.65878Q364.00943 327.5494 364.15005 327.34628Q364.2438 327.1744 364.47818 326.5494Q364.4938 326.47128 364.57193 326.2994L362.19693 320.06503L363.33755 320.06503L364.63443 323.65878Q364.88443 324.34628 365.08755 325.1119Q365.27505 324.37753 365.52505 323.69003L366.85318 320.06503L367.90005 320.06503L365.54068 326.39316Q365.15005 327.40878 364.94693 327.7994Q364.66568 328.33066 364.29068 328.56503Q363.9313 328.81503 363.4313 328.81503Q363.13443 328.81503 362.75943 328.6744ZM372.0563 324.28378L373.15005 324.40878Q372.90005 325.3619 372.19693 325.89316Q371.4938 326.4244 370.41568 326.4244Q369.0563 326.4244 368.2438 325.58066Q367.44693 324.7369 367.44693 323.22128Q367.44693 321.65878 368.25943 320.7994Q369.07193 319.9244 370.35318 319.9244Q371.60318 319.9244 372.38443 320.76816Q373.1813 321.6119 373.1813 323.15878Q373.1813 323.25253 373.1813 323.44003L368.54068 323.44003Q368.60318 324.47128 369.1188 325.01816Q369.63443 325.5494 370.41568 325.5494Q370.9938 325.5494 371.40005 325.25253Q371.82193 324.94003 372.0563 324.28378ZM368.60318 322.58066L372.07193 322.58066Q372.00943 321.78378 371.6813 321.39316Q371.16568 320.78378 370.3688 320.78378Q369.63443 320.78378 369.13443 321.26816Q368.65005 321.75253 368.60318 322.58066ZM378.8688 325.51816Q378.27505 326.01816 377.72818 326.22128Q377.19693 326.4244 376.57193 326.4244Q375.54068 326.4244 374.9938 325.9244Q374.44693 325.4244 374.44693 324.64316Q374.44693 324.19003 374.65005 323.81503Q374.85318 323.4244 375.19693 323.20566Q375.54068 322.97128 375.96255 322.8619Q376.25943 322.76816 376.90005 322.69003Q378.16568 322.5494 378.77505 322.33066Q378.77505 322.1119 378.77505 322.06503Q378.77505 321.40878 378.47818 321.14316Q378.07193 320.7994 377.27505 320.7994Q376.54068 320.7994 376.1813 321.06503Q375.82193 321.31503 375.65005 321.97128L374.6188 321.83066Q374.75943 321.1744 375.08755 320.76816Q375.41568 320.3619 376.02505 320.14316Q376.63443 319.9244 377.4313 319.9244Q378.22818 319.9244 378.72818 320.1119Q379.22818 320.2994 379.46255 320.58066Q379.69693 320.8619 379.79068 321.2994Q379.83755 321.56503 379.83755 322.26816L379.83755 323.6744Q379.83755 325.14316 379.90005 325.53378Q379.97818 325.9244 380.1813 326.28378L379.07193 326.28378Q378.91568 325.95566 378.8688 325.51816ZM378.77505 323.15878Q378.19693 323.39316 377.0563 323.56503Q376.40005 323.65878 376.13443 323.78378Q375.8688 323.89316 375.71255 324.1119Q375.57193 324.33066 375.57193 324.6119Q375.57193 325.03378 375.88443 325.31503Q376.21255 325.59628 376.82193 325.59628Q377.4313 325.59628 377.90005 325.33066Q378.38443 325.06503 378.60318 324.59628Q378.77505 324.2369 378.77505 323.5494L378.77505 323.15878ZM381.79068 326.28378L381.79068 320.06503L382.7438 320.06503L382.7438 321.00253Q383.10318 320.34628 383.40005 320.14316Q383.71255 319.9244 384.08755 319.9244Q384.6188 319.9244 385.16568 320.25253L384.8063 321.2369Q384.41568 321.00253 384.04068 321.00253Q383.6813 321.00253 383.40005 321.22128Q383.13443 321.4244 383.02505 321.7994Q382.83755 322.3619 382.83755 323.01816L382.83755 326.28378L381.79068 326.28378ZM392.8688 324.00253L393.90005 324.14316Q393.72818 325.20566 393.02505 325.81503Q392.32193 326.4244 391.3063 326.4244Q390.02505 326.4244 389.2438 325.59628Q388.47818 324.75253 388.47818 323.19003Q388.47818 322.19003 388.8063 321.44003Q389.15005 320.6744 389.82193 320.2994Q390.50943 319.9244 391.32193 319.9244Q392.32193 319.9244 392.96255 320.44003Q393.6188 320.94003 393.8063 321.89316L392.77505 322.0494Q392.63443 321.4244 392.25943 321.1119Q391.88443 320.78378 391.35318 320.78378Q390.5563 320.78378 390.0563 321.3619Q389.5563 321.9244 389.5563 323.15878Q389.5563 324.4244 390.04068 324.9869Q390.52505 325.5494 391.29068 325.5494Q391.91568 325.5494 392.32193 325.1744Q392.7438 324.7994 392.8688 324.00253ZM394.8063 318.90878L394.8063 317.69003L395.8688 317.69003L395.8688 318.90878L394.8063 318.90878ZM394.8063 326.28378L394.8063 320.06503L395.8688 320.06503L395.8688 326.28378L394.8063 326.28378ZM400.10318 325.34628L400.25943 326.26816Q399.8063 326.3619 399.46255 326.3619Q398.88443 326.3619 398.57193 326.19003Q398.25943 326.00253 398.1188 325.70566Q397.9938 325.40878 397.9938 324.45566L397.9938 320.87753L397.22818 320.87753L397.22818 320.06503L397.9938 320.06503L397.9938 318.51816L399.04068 317.89316L399.04068 320.06503L400.10318 320.06503L400.10318 320.87753L399.04068 320.87753L399.04068 324.51816Q399.04068 324.97128 399.08755 325.09628Q399.15005 325.22128 399.27505 325.2994Q399.40005 325.37753 399.63443 325.37753Q399.82193 325.37753 400.10318 325.34628ZM404.8688 325.51816Q404.27505 326.01816 403.72818 326.22128Q403.19693 326.4244 402.57193 326.4244Q401.54068 326.4244 400.9938 325.9244Q400.44693 325.4244 400.44693 324.64316Q400.44693 324.19003 400.65005 323.81503Q400.85318 323.4244 401.19693 323.20566Q401.54068 322.97128 401.96255 322.8619Q402.25943 322.76816 402.90005 322.69003Q404.16568 322.5494 404.77505 322.33066Q404.77505 322.1119 404.77505 322.06503Q404.77505 321.40878 404.47818 321.14316Q404.07193 320.7994 403.27505 320.7994Q402.54068 320.7994 402.1813 321.06503Q401.82193 321.31503 401.65005 321.97128L400.6188 321.83066Q400.75943 321.1744 401.08755 320.76816Q401.41568 320.3619 402.02505 320.14316Q402.63443 319.9244 403.4313 319.9244Q404.22818 319.9244 404.72818 320.1119Q405.22818 320.2994 405.46255 320.58066Q405.69693 320.8619 405.79068 321.2994Q405.83755 321.56503 405.83755 322.26816L405.83755 323.6744Q405.83755 325.14316 405.90005 325.53378Q405.97818 325.9244 406.1813 326.28378L405.07193 326.28378Q404.91568 325.95566 404.8688 325.51816ZM404.77505 323.15878Q404.19693 323.39316 403.0563 323.56503Q402.40005 323.65878 402.13443 323.78378Q401.8688 323.89316 401.71255 324.1119Q401.57193 324.33066 401.57193 324.6119Q401.57193 325.03378 401.88443 325.31503Q402.21255 325.59628 402.82193 325.59628Q403.4313 325.59628 403.90005 325.33066Q404.38443 325.06503 404.60318 324.59628Q404.77505 324.2369 404.77505 323.5494L404.77505 323.15878ZM410.10318 325.34628L410.25943 326.26816Q409.8063 326.3619 409.46255 326.3619Q408.88443 326.3619 408.57193 326.19003Q408.25943 326.00253 408.1188 325.70566Q407.9938 325.40878 407.9938 324.45566L407.9938 320.87753L407.22818 320.87753L407.22818 320.06503L407.9938 320.06503L407.9938 318.51816L409.04068 317.89316L409.04068 320.06503L410.10318 320.06503L410.10318 320.87753L409.04068 320.87753L409.04068 324.51816Q409.04068 324.97128 409.08755 325.09628Q409.15005 325.22128 409.27505 325.2994Q409.40005 325.37753 409.63443 325.37753Q409.82193 325.37753 410.10318 325.34628ZM410.8063 318.90878L410.8063 317.69003L411.8688 317.69003L411.8688 318.90878L410.8063 318.90878ZM410.8063 326.28378L410.8063 320.06503L411.8688 320.06503L411.8688 326.28378L410.8063 326.28378ZM413.41568 323.1744Q413.41568 321.44003 414.3688 320.6119Q415.16568 319.9244 416.32193 319.9244Q417.60318 319.9244 418.41568 320.76816Q419.2438 321.59628 419.2438 323.08066Q419.2438 324.28378 418.88443 324.97128Q418.52505 325.65878 417.82193 326.0494Q417.13443 326.4244 416.32193 326.4244Q415.02505 326.4244 414.21255 325.59628Q413.41568 324.75253 413.41568 323.1744ZM414.4938 323.1744Q414.4938 324.3619 415.00943 324.95566Q415.54068 325.5494 416.32193 325.5494Q417.1188 325.5494 417.63443 324.95566Q418.15005 324.3619 418.15005 323.14316Q418.15005 321.9869 417.6188 321.39316Q417.10318 320.7994 416.32193 320.7994Q415.54068 320.7994 415.00943 321.39316Q414.4938 321.97128 414.4938 323.1744ZM420.8063 326.28378L420.8063 320.06503L421.7438 320.06503L421.7438 320.94003Q422.4313 319.9244 423.72818 319.9244Q424.29068 319.9244 424.75943 320.12753Q425.2438 320.33066 425.47818 320.65878Q425.71255 320.9869 425.8063 321.4244Q425.85318 321.72128 425.85318 322.45566L425.85318 326.28378L424.8063 326.28378L424.8063 322.50253Q424.8063 321.84628 424.6813 321.53378Q424.5563 321.22128 424.2438 321.03378Q423.9313 320.83066 423.50943 320.83066Q422.83755 320.83066 422.33755 321.26816Q421.85318 321.69003 421.85318 322.87753L421.85318 326.28378L420.8063 326.28378ZM427.38443 324.4244L428.41568 324.26816Q428.50943 324.89316 428.90005 325.22128Q429.3063 325.5494 430.04068 325.5494Q430.75943 325.5494 431.10318 325.26816Q431.46255 324.97128 431.46255 324.56503Q431.46255 324.20566 431.15005 324.00253Q430.9313 323.8619 430.07193 323.64316Q428.91568 323.34628 428.46255 323.14316Q428.02505 322.9244 427.79068 322.5494Q427.5563 322.1744 427.5563 321.70566Q427.5563 321.2994 427.7438 320.94003Q427.9313 320.58066 428.25943 320.34628Q428.50943 320.1744 428.9313 320.0494Q429.35318 319.9244 429.85318 319.9244Q430.57193 319.9244 431.1188 320.14316Q431.6813 320.34628 431.94693 320.70566Q432.21255 321.06503 432.3063 321.65878L431.27505 321.7994Q431.21255 321.33066 430.8688 321.06503Q430.54068 320.78378 429.91568 320.78378Q429.19693 320.78378 428.88443 321.03378Q428.57193 321.26816 428.57193 321.59628Q428.57193 321.7994 428.69693 321.95566Q428.83755 322.12753 429.10318 322.2369Q429.25943 322.2994 430.04068 322.50253Q431.16568 322.81503 431.60318 323.00253Q432.04068 323.19003 432.29068 323.5494Q432.54068 323.90878 432.54068 324.45566Q432.54068 324.9869 432.22818 325.45566Q431.9313 325.90878 431.35318 326.1744Q430.77505 326.4244 430.04068 326.4244Q428.82193 326.4244 428.1813 325.9244Q427.5563 325.40878 427.38443 324.4244Z" fill-rule="nonzero"/><path fill="#000000" d="M28.150002 177.81836L19.556252 177.81836L19.556252 176.09961L25.634377 174.06836Q26.493752 173.78711 26.915627 173.66211Q26.446877 173.52148 25.540627 173.20898L19.556252 171.14648L19.556252 169.61523L28.150002 169.61523L28.150002 170.70898L20.962502 170.70898L28.150002 173.20898L28.150002 174.24023L20.837502 176.72461L28.150002 176.72461L28.150002 177.81836ZM27.384377 164.84961Q27.884377 165.44336 28.087502 165.99023Q28.290627 166.52148 28.290627 167.14648Q28.290627 168.17773 27.790627 168.72461Q27.290627 169.27148 26.509377 169.27148Q26.056252 169.27148 25.681252 169.06836Q25.290627 168.86523 25.071877 168.52148Q24.837502 168.17773 24.728127 167.75586Q24.634377 167.45898 24.556252 166.81836Q24.415627 165.55273 24.196877 164.94336Q23.978127 164.94336 23.931252 164.94336Q23.275002 164.94336 23.009377 165.24023Q22.665627 165.64648 22.665627 166.44336Q22.665627 167.17773 22.931252 167.53711Q23.181252 167.89648 23.837502 168.06836L23.696877 169.09961Q23.040627 168.95898 22.634377 168.63086Q22.228127 168.30273 22.009377 167.69336Q21.790627 167.08398 21.790627 166.28711Q21.790627 165.49023 21.978127 164.99023Q22.165627 164.49023 22.446877 164.25586Q22.728127 164.02148 23.165627 163.92773Q23.431252 163.88086 24.134377 163.88086L25.540627 163.88086Q27.009377 163.88086 27.400002 163.81836Q27.790627 163.74023 28.150002 163.53711L28.150002 164.64648Q27.821877 164.80273 27.384377 164.84961ZM25.025002 164.94336Q25.259377 165.52148 25.431252 166.66211Q25.525002 167.31836 25.650002 167.58398Q25.759377 167.84961 25.978127 168.00586Q26.196877 168.14648 26.478127 168.14648Q26.900002 168.14648 27.181252 167.83398Q27.462502 167.50586 27.462502 166.89648Q27.462502 166.28711 27.196877 165.81836Q26.931252 165.33398 26.462502 165.11523Q26.103127 164.94336 25.415627 164.94336L25.025002 164.94336ZM27.212502 159.61523L28.134377 159.45898Q28.228127 159.91211 28.228127 160.25586Q28.228127 160.83398 28.056252 161.14648Q27.868752 161.45898 27.571877 161.59961Q27.275002 161.72461 26.321877 161.72461L22.743752 161.72461L22.743752 162.49023L21.931252 162.49023L21.931252 161.72461L20.384377 161.72461L19.759377 160.67773L21.931252 160.67773L21.931252 159.61523L22.743752 159.61523L22.743752 160.67773L26.384377 160.67773Q26.837502 160.67773 26.962502 160.63086Q27.087502 160.56836 27.165627 160.44336Q27.243752 160.31836 27.243752 160.08398Q27.243752 159.89648 27.212502 159.61523ZM28.150002 154.83398L27.228127 154.83398Q28.290627 155.56836 28.290627 156.81836Q28.290627 157.36523 28.087502 157.84961Q27.868752 158.31836 27.556252 158.55273Q27.228127 158.78711 26.759377 158.88086Q26.462502 158.94336 25.775002 158.94336L21.931252 158.94336L21.931252 157.88086L25.384377 157.88086Q26.196877 157.88086 26.493752 157.81836Q26.900002 157.72461 27.150002 157.41211Q27.384377 157.08398 27.384377 156.59961Q27.384377 156.13086 27.150002 155.72461Q26.900002 155.30273 26.478127 155.13086Q26.056252 154.94336 25.259377 154.94336L21.931252 154.94336L21.931252 153.89648L28.150002 153.89648L28.150002 154.83398ZM28.150002 151.92773L21.931252 151.92773L21.931252 150.97461L22.868752 150.97461Q22.212502 150.61523 22.009377 150.31836Q21.790627 150.00586 21.790627 149.63086Q21.790627 149.09961 22.118752 148.55273L23.103127 148.91211Q22.868752 149.30273 22.868752 149.67773Q22.868752 150.03711 23.087502 150.31836Q23.290627 150.58398 23.665627 150.69336Q24.228127 150.88086 24.884377 150.88086L28.150002 150.88086L28.150002 151.92773ZM20.775002 147.91211L19.556252 147.91211L19.556252 146.84961L20.775002 146.84961L20.775002 147.91211ZM28.150002 147.91211L21.931252 147.91211L21.931252 146.84961L28.150002 146.84961L28.150002 147.91211ZM27.212502 142.61523L28.134377 142.45898Q28.228127 142.91211 28.228127 143.25586Q28.228127 143.83398 28.056252 144.14648Q27.868752 144.45898 27.571877 144.59961Q27.275002 144.72461 26.321877 144.72461L22.743752 144.72461L22.743752 145.49023L21.931252 145.49023L21.931252 144.72461L20.384377 144.72461L19.759377 143.67773L21.931252 143.67773L21.931252 142.61523L22.743752 142.61523L22.743752 143.67773L26.384377 143.67773Q26.837502 143.67773 26.962502 143.63086Q27.087502 143.56836 27.165627 143.44336Q27.243752 143.31836 27.243752 143.08398Q27.243752 142.89648 27.212502 142.61523ZM30.540627 141.95898L29.556252 142.08398Q29.650002 141.74023 29.650002 141.47461Q29.650002 141.13086 29.525002 140.92773Q29.415627 140.70898 29.212502 140.56836Q29.040627 140.47461 28.415627 140.24023Q28.337502 140.22461 28.165627 140.14648L21.931252 142.52148L21.931252 141.38086L25.525002 140.08398Q26.212502 139.83398 26.978127 139.63086Q26.243752 139.44336 25.556252 139.19336L21.931252 137.86523L21.931252 136.81836L28.259377 139.17773Q29.275002 139.56836 29.665627 139.77148Q30.196877 140.05273 30.431252 140.42773Q30.681252 140.78711 30.681252 141.28711Q30.681252 141.58398 30.540627 141.95898Z" fill-rule="nonzero"/><path fill="#000000" d="M51.64 62.16558L51.64 53.57183L58.015 53.57183L58.015 55.024956L53.374374 55.024956L53.374374 56.931206L57.686874 56.931206L57.686874 58.38433L53.374374 58.38433L53.374374 60.712456L58.17125 60.712456L58.17125 62.16558L51.64 62.16558ZM57.843124 62.16558L60.0775 58.962456L57.936874 55.94683L59.936874 55.94683L61.04625 57.649956L62.2025 55.94683L64.14 55.94683L62.030624 58.88433L64.3275 62.16558L62.311874 62.16558L61.04625 60.243706L59.765 62.16558L57.843124 62.16558ZM65.624374 55.10308L65.624374 53.57183L67.280624 53.57183L67.280624 55.10308L65.624374 55.10308ZM65.624374 62.16558L65.624374 55.94683L67.280624 55.94683L67.280624 62.16558L65.624374 62.16558ZM68.04625 60.38433L69.7025 60.13433Q69.811874 60.618706 70.124374 60.868706Q70.4525 61.118706 71.030624 61.118706Q71.67125 61.118706 71.98375 60.88433Q72.2025 60.712456 72.2025 60.44683Q72.2025 60.25933 72.093124 60.13433Q71.968124 60.00933 71.54625 59.91558Q69.54625 59.47808 69.015 59.118706Q68.280624 58.60308 68.280624 57.712456Q68.280624 56.899956 68.905624 56.35308Q69.54625 55.806206 70.89 55.806206Q72.17125 55.806206 72.79625 56.22808Q73.42125 56.63433 73.655624 57.44683L72.093124 57.72808Q71.999374 57.368706 71.718124 57.181206Q71.436874 56.97808 70.92125 56.97808Q70.280624 56.97808 69.999374 57.16558Q69.811874 57.29058 69.811874 57.493706Q69.811874 57.681206 69.968124 57.806206Q70.186874 57.962456 71.499374 58.25933Q72.8275 58.556206 73.343124 58.993706Q73.85875 59.431206 73.85875 60.212456Q73.85875 61.07183 73.14 61.69683Q72.436874 62.306206 71.030624 62.306206Q69.765 62.306206 69.015 61.79058Q68.280624 61.274956 68.04625 60.38433ZM78.48375 55.94683L78.48375 57.25933L77.35875 57.25933L77.35875 59.75933Q77.35875 60.524956 77.39 60.649956Q77.42125 60.774956 77.530624 60.868706Q77.655624 60.94683 77.811874 60.94683Q78.04625 60.94683 78.468124 60.774956L78.60875 62.056206Q78.04625 62.306206 77.311874 62.306206Q76.874374 62.306206 76.515 62.16558Q76.155624 62.00933 75.98375 61.774956Q75.8275 61.524956 75.749374 61.13433Q75.7025 60.837456 75.7025 59.962456L75.7025 57.25933L74.9525 57.25933L74.9525 55.94683L75.7025 55.94683L75.7025 54.712456L77.35875 53.743706L77.35875 55.94683L78.48375 55.94683ZM79.624374 55.10308L79.624374 53.57183L81.280624 53.57183L81.280624 55.10308L79.624374 55.10308ZM79.624374 62.16558L79.624374 55.94683L81.280624 55.94683L81.280624 62.16558L79.624374 62.16558ZM88.280624 62.16558L86.64 62.16558L86.64 58.993706Q86.64 57.97808 86.530624 57.681206Q86.436874 57.38433 86.186874 57.22808Q85.9525 57.056206 85.624374 57.056206Q85.186874 57.056206 84.843124 57.29058Q84.515 57.524956 84.39 57.91558Q84.265 58.306206 84.265 59.35308L84.265 62.16558L82.60875 62.16558L82.60875 55.94683L84.14 55.94683L84.14 56.85308Q84.9525 55.806206 86.2025 55.806206Q86.73375 55.806206 87.186874 56.00933Q87.64 56.19683 87.874374 56.50933Q88.10875 56.806206 88.186874 57.19683Q88.280624 57.57183 88.280624 58.29058L88.280624 62.16558ZM89.468124 62.57183L91.35875 62.806206Q91.405624 63.13433 91.5775 63.25933Q91.811874 63.431206 92.311874 63.431206Q92.9525 63.431206 93.280624 63.243706Q93.499374 63.10308 93.60875 62.82183Q93.686874 62.618706 93.686874 62.07183L93.686874 61.149956Q92.936874 62.16558 91.811874 62.16558Q90.561874 62.16558 89.8275 61.10308Q89.265 60.25933 89.265 59.024956Q89.265 57.44683 90.015 56.63433Q90.765 55.806206 91.89 55.806206Q93.030624 55.806206 93.780624 56.82183L93.780624 55.94683L95.3275 55.94683L95.3275 61.524956Q95.3275 62.63433 95.14 63.16558Q94.968124 63.712456 94.64 64.024956Q94.311874 64.337456 93.765 64.50933Q93.218124 64.69683 92.374374 64.69683Q90.79625 64.69683 90.124374 64.149956Q89.468124 63.60308 89.468124 62.774956Q89.468124 62.69683 89.468124 62.57183ZM90.9525 58.931206Q90.9525 59.91558 91.3275 60.38433Q91.718124 60.837456 92.280624 60.837456Q92.874374 60.837456 93.29625 60.368706Q93.718124 59.88433 93.718124 58.962456Q93.718124 57.993706 93.311874 57.524956Q92.92125 57.056206 92.311874 57.056206Q91.718124 57.056206 91.3275 57.524956Q90.9525 57.97808 90.9525 58.931206ZM102.48375 55.94683L102.48375 57.25933L101.35875 57.25933L101.35875 59.75933Q101.35875 60.524956 101.39 60.649956Q101.42125 60.774956 101.530624 60.868706Q101.655624 60.94683 101.811874 60.94683Q102.04625 60.94683 102.468124 60.774956L102.60875 62.056206Q102.04625 62.306206 101.311874 62.306206Q100.874374 62.306206 100.515 62.16558Q100.155624 62.00933 99.98375 61.774956Q99.8275 61.524956 99.749374 61.13433Q99.7025 60.837456 99.7025 59.962456L99.7025 57.25933L98.9525 57.25933L98.9525 55.94683L99.7025 55.94683L99.7025 54.712456L101.35875 53.743706L101.35875 55.94683L102.48375 55.94683ZM103.249374 58.962456Q103.249374 58.149956 103.655624 57.38433Q104.061874 56.60308 104.79625 56.212456Q105.530624 55.806206 106.4525 55.806206Q107.85875 55.806206 108.765 56.72808Q109.67125 57.63433 109.67125 59.04058Q109.67125 60.44683 108.749374 61.38433Q107.843124 62.306206 106.468124 62.306206Q105.60875 62.306206 104.8275 61.91558Q104.061874 61.524956 103.655624 60.79058Q103.249374 60.04058 103.249374 58.962456ZM104.936874 59.056206Q104.936874 59.97808 105.374374 60.47808Q105.811874 60.962456 106.4525 60.962456Q107.10875 60.962456 107.530624 60.47808Q107.968124 59.97808 107.968124 59.04058Q107.968124 58.13433 107.530624 57.649956Q107.10875 57.149956 106.4525 57.149956Q105.811874 57.149956 105.374374 57.649956Q104.936874 58.13433 104.936874 59.056206ZM110.249374 58.962456Q110.249374 58.149956 110.655624 57.38433Q111.061874 56.60308 111.79625 56.212456Q112.530624 55.806206 113.4525 55.806206Q114.85875 55.806206 115.765 56.72808Q116.67125 57.63433 116.67125 59.04058Q116.67125 60.44683 115.749374 61.38433Q114.843124 62.306206 113.468124 62.306206Q112.60875 62.306206 111.8275 61.91558Q111.061874 61.524956 110.655624 60.79058Q110.249374 60.04058 110.249374 58.962456ZM111.936874 59.056206Q111.936874 59.97808 112.374374 60.47808Q112.811874 60.962456 113.4525 60.962456Q114.10875 60.962456 114.530624 60.47808Q114.968124 59.97808 114.968124 59.04058Q114.968124 58.13433 114.530624 57.649956Q114.10875 57.149956 113.4525 57.149956Q112.811874 57.149956 112.374374 57.649956Q111.936874 58.13433 111.936874 59.056206ZM117.624374 62.16558L117.624374 53.57183L119.280624 53.57183L119.280624 62.16558L117.624374 62.16558ZM120.04625 60.38433L121.7025 60.13433Q121.811874 60.618706 122.124374 60.868706Q122.4525 61.118706 123.030624 61.118706Q123.67125 61.118706 123.98375 60.88433Q124.2025 60.712456 124.2025 60.44683Q124.2025 60.25933 124.093124 60.13433Q123.968124 60.00933 123.54625 59.91558Q121.54625 59.47808 121.015 59.118706Q120.280624 58.60308 120.280624 57.712456Q120.280624 56.899956 120.905624 56.35308Q121.54625 55.806206 122.89 55.806206Q124.17125 55.806206 124.79625 56.22808Q125.42125 56.63433 125.655624 57.44683L124.093124 57.72808Q123.999374 57.368706 123.718124 57.181206Q123.436874 56.97808 122.92125 56.97808Q122.280624 56.97808 121.999374 57.16558Q121.811874 57.29058 121.811874 57.493706Q121.811874 57.681206 121.968124 57.806206Q122.186874 57.962456 123.499374 58.25933Q124.8275 58.556206 125.343124 58.993706Q125.85875 59.431206 125.85875 60.212456Q125.85875 61.07183 125.14 61.69683Q124.436874 62.306206 123.030624 62.306206Q121.765 62.306206 121.015 61.79058Q120.280624 61.274956 120.04625 60.38433ZM134.71812 62.16558L134.71812 61.22808Q134.39 61.72808 133.8275 62.024956Q133.28062 62.306206 132.65562 62.306206Q132.03062 62.306206 131.53062 62.04058Q131.03062 61.75933 130.81187 61.25933Q130.59312 60.75933 130.59312 59.88433L130.59312 55.94683L132.23375 55.94683L132.23375 58.806206Q132.23375 60.118706 132.3275 60.41558Q132.42125 60.712456 132.65562 60.88433Q132.90562 61.056206 133.265 61.056206Q133.68687 61.056206 134.015 60.82183Q134.35875 60.587456 134.48375 60.243706Q134.60875 59.899956 134.60875 58.57183L134.60875 55.94683L136.24937 55.94683L136.24937 62.16558L134.71812 62.16558ZM137.04625 60.38433L138.7025 60.13433Q138.81187 60.618706 139.12437 60.868706Q139.4525 61.118706 140.03062 61.118706Q140.67125 61.118706 140.98375 60.88433Q141.2025 60.712456 141.2025 60.44683Q141.2025 60.25933 141.09312 60.13433Q140.96812 60.00933 140.54625 59.91558Q138.54625 59.47808 138.015 59.118706Q137.28062 58.60308 137.28062 57.712456Q137.28062 56.899956 137.90562 56.35308Q138.54625 55.806206 139.89 55.806206Q141.17125 55.806206 141.79625 56.22808Q142.42125 56.63433 142.65562 57.44683L141.09312 57.72808Q140.99937 57.368706 140.71812 57.181206Q140.43687 56.97808 139.92125 56.97808Q139.28062 56.97808 138.99937 57.16558Q138.81187 57.29058 138.81187 57.493706Q138.81187 57.681206 138.96812 57.806206Q139.18687 57.962456 140.49937 58.25933Q141.8275 58.556206 142.34312 58.993706Q142.85875 59.431206 142.85875 60.212456Q142.85875 61.07183 142.14 61.69683Q141.43687 62.306206 140.03062 62.306206Q138.765 62.306206 138.015 61.79058Q137.28062 61.274956 137.04625 60.38433ZM145.85875 57.837456L144.35875 57.57183Q144.60875 56.66558 145.21812 56.243706Q145.84312 55.806206 147.06187 55.806206Q148.15562 55.806206 148.68687 56.07183Q149.23375 56.32183 149.4525 56.72808Q149.67125 57.118706 149.67125 58.19683L149.65562 60.118706Q149.65562 60.94683 149.73375 61.337456Q149.81187 61.712456 150.03062 62.16558L148.40562 62.16558Q148.34312 61.993706 148.24937 61.681206Q148.2025 61.524956 148.18687 61.47808Q147.765 61.899956 147.28062 62.10308Q146.81187 62.306206 146.265 62.306206Q145.29625 62.306206 144.73375 61.79058Q144.18687 61.25933 144.18687 60.462456Q144.18687 59.931206 144.43687 59.524956Q144.7025 59.118706 145.15562 58.899956Q145.60875 58.66558 146.46812 58.50933Q147.60875 58.29058 148.06187 58.10308L148.06187 57.94683Q148.06187 57.462456 147.8275 57.25933Q147.59312 57.056206 146.93687 57.056206Q146.49937 57.056206 146.24937 57.22808Q146.015 57.399956 145.85875 57.837456ZM148.06187 59.181206Q147.74937 59.274956 147.06187 59.431206Q146.37437 59.57183 146.15562 59.712456Q145.84312 59.94683 145.84312 60.29058Q145.84312 60.63433 146.09312 60.899956Q146.35875 61.149956 146.74937 61.149956Q147.2025 61.149956 147.60875 60.85308Q147.90562 60.63433 147.99937 60.306206Q148.06187 60.10308 148.06187 59.50933L148.06187 59.181206ZM151.46812 62.57183L153.35875 62.806206Q153.40562 63.13433 153.5775 63.25933Q153.81187 63.431206 154.31187 63.431206Q154.9525 63.431206 155.28062 63.243706Q155.49937 63.10308 155.60875 62.82183Q155.68687 62.618706 155.68687 62.07183L155.68687 61.149956Q154.93687 62.16558 153.81187 62.16558Q152.56187 62.16558 151.8275 61.10308Q151.265 60.25933 151.265 59.024956Q151.265 57.44683 152.015 56.63433Q152.765 55.806206 153.89 55.806206Q155.03062 55.806206 155.78062 56.82183L155.78062 55.94683L157.3275 55.94683L157.3275 61.524956Q157.3275 62.63433 157.14 63.16558Q156.96812 63.712456 156.64 64.024956Q156.31187 64.337456 155.765 64.50933Q155.21812 64.69683 154.37437 64.69683Q152.79625 64.69683 152.12437 64.149956Q151.46812 63.60308 151.46812 62.774956Q151.46812 62.69683 151.46812 62.57183ZM152.9525 58.931206Q152.9525 59.91558 153.3275 60.38433Q153.71812 60.837456 154.28062 60.837456Q154.87437 60.837456 155.29625 60.368706Q155.71812 59.88433 155.71812 58.962456Q155.71812 57.993706 155.31187 57.524956Q154.92125 57.056206 154.31187 57.056206Q153.71812 57.056206 153.3275 57.524956Q152.9525 57.97808 152.9525 58.931206ZM162.23375 60.181206L163.87437 60.462456Q163.56187 61.368706 162.87437 61.837456Q162.18687 62.306206 161.17125 62.306206Q159.54625 62.306206 158.765 61.243706Q158.14 60.399956 158.14 59.10308Q158.14 57.556206 158.9525 56.681206Q159.765 55.806206 160.99937 55.806206Q162.39 55.806206 163.18687 56.72808Q163.99937 57.63433 163.9525 59.524956L159.8275 59.524956Q159.85875 60.25933 160.23375 60.66558Q160.60875 61.07183 161.18687 61.07183Q161.56187 61.07183 161.8275 60.868706Q162.09312 60.649956 162.23375 60.181206ZM162.3275 58.524956Q162.31187 57.806206 161.9525 57.431206Q161.60875 57.056206 161.09312 57.056206Q160.56187 57.056206 160.2025 57.44683Q159.85875 57.85308 159.85875 58.524956L162.3275 58.524956Z" fill-rule="nonzero"/><path fill="#000000" d="M110.64 122.929405L110.64 114.335655L113.42125 114.335655Q114.999374 114.335655 115.48375 114.460655Q116.218124 114.66378 116.718124 115.32003Q117.218124 115.960655 117.218124 116.97628Q117.218124 117.773155 116.92125 118.32003Q116.64 118.85128 116.2025 119.16378Q115.765 119.460655 115.29625 119.57003Q114.686874 119.69503 113.499374 119.69503L112.374374 119.69503L112.374374 122.929405L110.64 122.929405ZM112.374374 115.78878L112.374374 118.22628L113.3275 118.22628Q114.343124 118.22628 114.686874 118.10128Q115.04625 117.960655 115.23375 117.679405Q115.436874 117.38253 115.436874 117.00753Q115.436874 116.53878 115.155624 116.241905Q114.874374 115.929405 114.4525 115.85128Q114.155624 115.78878 113.218124 115.78878L112.374374 115.78878ZM120.2025 122.929405L118.561874 122.929405L118.561874 116.710655L120.093124 116.710655L120.093124 117.585655Q120.48375 116.960655 120.79625 116.773155Q121.10875 116.57003 121.499374 116.57003Q122.061874 116.57003 122.593124 116.88253L122.0775 118.304405Q121.655624 118.03878 121.311874 118.03878Q120.9525 118.03878 120.718124 118.241905Q120.48375 118.429405 120.343124 118.929405Q120.2025 119.41378 120.2025 121.00753L120.2025 122.929405ZM123.249374 119.72628Q123.249374 118.91378 123.655624 118.148155Q124.061874 117.366905 124.79625 116.97628Q125.530624 116.57003 126.4525 116.57003Q127.85875 116.57003 128.765 117.491905Q129.67125 118.398155 129.67125 119.804405Q129.67125 121.210655 128.74937 122.148155Q127.843124 123.07003 126.468124 123.07003Q125.60875 123.07003 124.8275 122.679405Q124.061874 122.28878 123.655624 121.554405Q123.249374 120.804405 123.249374 119.72628ZM124.936874 119.82003Q124.936874 120.741905 125.374374 121.241905Q125.811874 121.72628 126.4525 121.72628Q127.10875 121.72628 127.530624 121.241905Q127.968124 120.741905 127.968124 119.804405Q127.968124 118.898155 127.530624 118.41378Q127.10875 117.91378 126.4525 117.91378Q125.811874 117.91378 125.374374 118.41378Q124.936874 118.898155 124.936874 119.82003ZM133.48375 116.710655L133.48375 118.023155L132.35875 118.023155L132.35875 120.523155Q132.35875 121.28878 132.39 121.41378Q132.42125 121.53878 132.53062 121.63253Q132.65562 121.710655 132.81187 121.710655Q133.04625 121.710655 133.46812 121.53878L133.60875 122.82003Q133.04625 123.07003 132.31187 123.07003Q131.87437 123.07003 131.515 122.929405Q131.15562 122.773155 130.98375 122.53878Q130.8275 122.28878 130.74937 121.898155Q130.7025 121.60128 130.7025 120.72628L130.7025 118.023155L129.9525 118.023155L129.9525 116.710655L130.7025 116.710655L130.7025 115.47628L132.35875 114.50753L132.35875 116.710655L133.48375 116.710655ZM134.24937 119.72628Q134.24937 118.91378 134.65562 118.148155Q135.06187 117.366905 135.79625 116.97628Q136.53062 116.57003 137.4525 116.57003Q138.85875 116.57003 139.765 117.491905Q140.67125 118.398155 140.67125 119.804405Q140.67125 121.210655 139.74937 122.148155Q138.84312 123.07003 137.46812 123.07003Q136.60875 123.07003 135.8275 122.679405Q135.06187 122.28878 134.65562 121.554405Q134.24937 120.804405 134.24937 119.72628ZM135.93687 119.82003Q135.93687 120.741905 136.37437 121.241905Q136.81187 121.72628 137.4525 121.72628Q138.10875 121.72628 138.53062 121.241905Q138.96812 120.741905 138.96812 119.804405Q138.96812 118.898155 138.53062 118.41378Q138.10875 117.91378 137.4525 117.91378Q136.81187 117.91378 136.37437 118.41378Q135.93687 118.898155 135.93687 119.82003ZM144.48375 116.710655L144.48375 118.023155L143.35875 118.023155L143.35875 120.523155Q143.35875 121.28878 143.39 121.41378Q143.42125 121.53878 143.53062 121.63253Q143.65562 121.710655 143.81187 121.710655Q144.04625 121.710655 144.46812 121.53878L144.60875 122.82003Q144.04625 123.07003 143.31187 123.07003Q142.87437 123.07003 142.515 122.929405Q142.15562 122.773155 141.98375 122.53878Q141.8275 122.28878 141.74937 121.898155Q141.7025 121.60128 141.7025 120.72628L141.7025 118.023155L140.9525 118.023155L140.9525 116.710655L141.7025 116.710655L141.7025 115.47628L143.35875 114.50753L143.35875 116.710655L144.48375 116.710655ZM144.84312 116.710655L146.59312 116.710655L148.09312 121.116905L149.54625 116.710655L151.24937 116.710655L149.04625 122.69503L148.65562 123.773155Q148.43687 124.32003 148.23375 124.60128Q148.04625 124.898155 147.78062 125.07003Q147.53062 125.25753 147.15562 125.35128Q146.79625 125.460655 146.3275 125.460655Q145.84312 125.460655 145.39 125.35128L145.24937 124.07003Q145.64 124.148155 145.93687 124.148155Q146.515 124.148155 146.78062 123.804405Q147.06187 123.47628 147.21812 122.94503L144.84312 116.710655ZM151.5775 116.710655L153.10875 116.710655L153.10875 117.616905Q153.42125 117.148155 153.92125 116.866905Q154.43687 116.57003 155.06187 116.57003Q156.14 116.57003 156.89 117.41378Q157.65562 118.25753 157.65562 119.78878Q157.65562 121.335655 156.89 122.210655Q156.12437 123.07003 155.04625 123.07003Q154.53062 123.07003 154.10875 122.866905Q153.68687 122.66378 153.23375 122.16378L153.23375 125.304405L151.5775 125.304405L151.5775 116.710655ZM153.2025 119.710655Q153.2025 120.75753 153.62437 121.25753Q154.04625 121.75753 154.64 121.75753Q155.21812 121.75753 155.59312 121.304405Q155.96812 120.835655 155.96812 119.78878Q155.96812 118.82003 155.5775 118.35128Q155.18687 117.866905 154.60875 117.866905Q153.99937 117.866905 153.59312 118.335655Q153.2025 118.804405 153.2025 119.710655ZM162.23375 120.94503L163.87437 121.22628Q163.56187 122.13253 162.87437 122.60128Q162.18687 123.07003 161.17125 123.07003Q159.54625 123.07003 158.765 122.00753Q158.14 121.16378 158.14 119.866905Q158.14 118.32003 158.9525 117.44503Q159.765 116.57003 160.99937 116.57003Q162.39 116.57003 163.18687 117.491905Q163.99937 118.398155 163.9525 120.28878L159.8275 120.28878Q159.85875 121.023155 160.23375 121.429405Q160.60875 121.835655 161.18687 121.835655Q161.56187 121.835655 161.8275 121.63253Q162.09312 121.41378 162.23375 120.94503ZM162.3275 119.28878Q162.31187 118.57003 161.9525 118.19503Q161.60875 117.82003 161.09312 117.82003Q160.56187 117.82003 160.2025 118.210655Q159.85875 118.616905 159.85875 119.28878L162.3275 119.28878Z" fill-rule="nonzero"/><path fill="#000000" d="M143.5775 183.69324L143.5775 176.55261L141.03062 176.55261L141.03062 175.09949L147.84312 175.09949L147.84312 176.55261L145.31187 176.55261L145.31187 183.69324L143.5775 183.69324ZM148.24937 180.49011Q148.24937 179.67761 148.65562 178.91199Q149.06187 178.13074 149.79625 177.74011Q150.53062 177.33386 151.4525 177.33386Q152.85875 177.33386 153.765 178.25574Q154.67125 179.16199 154.67125 180.56824Q154.67125 181.97449 153.74937 182.91199Q152.84312 183.83386 151.46812 183.83386Q150.60875 183.83386 149.8275 183.44324Q149.06187 183.05261 148.65562 182.31824Q148.24937 181.56824 148.24937 180.49011ZM149.93687 180.58386Q149.93687 181.50574 150.37437 182.00574Q150.81187 182.49011 151.4525 182.49011Q152.10875 182.49011 152.53062 182.00574Q152.96812 181.50574 152.96812 180.56824Q152.96812 179.66199 152.53062 179.17761Q152.10875 178.67761 151.4525 178.67761Q150.81187 178.67761 150.37437 179.17761Q149.93687 179.66199 149.93687 180.58386ZM155.24937 180.49011Q155.24937 179.67761 155.65562 178.91199Q156.06187 178.13074 156.79625 177.74011Q157.53062 177.33386 158.4525 177.33386Q159.85875 177.33386 160.765 178.25574Q161.67125 179.16199 161.67125 180.56824Q161.67125 181.97449 160.74937 182.91199Q159.84312 183.83386 158.46812 183.83386Q157.60875 183.83386 156.8275 183.44324Q156.06187 183.05261 155.65562 182.31824Q155.24937 181.56824 155.24937 180.49011ZM156.93687 180.58386Q156.93687 181.50574 157.37437 182.00574Q157.81187 182.49011 158.4525 182.49011Q159.10875 182.49011 159.53062 182.00574Q159.96812 181.50574 159.96812 180.56824Q159.96812 179.66199 159.53062 179.17761Q159.10875 178.67761 158.4525 178.67761Q157.81187 178.67761 157.37437 179.17761Q156.93687 179.66199 156.93687 180.58386ZM162.62437 183.69324L162.62437 175.09949L164.28062 175.09949L164.28062 183.69324L162.62437 183.69324Z" fill-rule="nonzero"/><path fill="#000000" d="M124.14 241.30081L125.811874 241.83206Q125.436874 243.23831 124.530624 243.92581Q123.624374 244.59769 122.249374 244.59769Q120.530624 244.59769 119.42125 243.44144Q118.3275 242.26956 118.3275 240.23831Q118.3275 238.09769 119.436874 236.91019Q120.54625 235.72269 122.35875 235.72269Q123.936874 235.72269 124.92125 236.64456Q125.499374 237.20706 125.79625 238.23831L124.0775 238.64456Q123.92125 237.97269 123.436874 237.59769Q122.9525 237.20706 122.265 237.20706Q121.311874 237.20706 120.718124 237.89456Q120.124374 238.56644 120.124374 240.11331Q120.124374 241.73831 120.7025 242.42581Q121.29625 243.11331 122.23375 243.11331Q122.92125 243.11331 123.42125 242.67581Q123.92125 242.23831 124.14 241.30081ZM126.249374 241.25394Q126.249374 240.44144 126.655624 239.67581Q127.061874 238.89456 127.79625 238.50394Q128.53062 238.09769 129.4525 238.09769Q130.85875 238.09769 131.765 239.01956Q132.67125 239.92581 132.67125 241.33206Q132.67125 242.73831 131.74937 243.67581Q130.84312 244.59769 129.46812 244.59769Q128.60875 244.59769 127.8275 244.20706Q127.061874 243.81644 126.655624 243.08206Q126.249374 242.33206 126.249374 241.25394ZM127.936874 241.34769Q127.936874 242.26956 128.37437 242.76956Q128.81187 243.25394 129.4525 243.25394Q130.10875 243.25394 130.53062 242.76956Q130.96812 242.26956 130.96812 241.33206Q130.96812 240.42581 130.53062 239.94144Q130.10875 239.44144 129.4525 239.44144Q128.81187 239.44144 128.37437 239.94144Q127.936874 240.42581 127.936874 241.34769ZM139.28062 244.45706L137.64 244.45706L137.64 241.28519Q137.64 240.26956 137.53062 239.97269Q137.43687 239.67581 137.18687 239.51956Q136.9525 239.34769 136.62437 239.34769Q136.18687 239.34769 135.84312 239.58206Q135.515 239.81644 135.39 240.20706Q135.265 240.59769 135.265 241.64456L135.265 244.45706L133.60875 244.45706L133.60875 238.23831L135.14 238.23831L135.14 239.14456Q135.9525 238.09769 137.2025 238.09769Q137.73375 238.09769 138.18687 238.30081Q138.64 238.48831 138.87437 238.80081Q139.10875 239.09769 139.18687 239.48831Q139.28062 239.86331 139.28062 240.58206L139.28062 244.45706ZM146.04625 240.06644L144.43687 240.36331Q144.34312 239.87894 144.04625 239.64456Q143.765 239.39456 143.31187 239.39456Q142.68687 239.39456 142.31187 239.81644Q141.9525 240.23831 141.9525 241.23831Q141.9525 242.34769 142.3275 242.80081Q142.7025 243.25394 143.3275 243.25394Q143.79625 243.25394 144.09312 242.98831Q144.39 242.72269 144.515 242.06644L146.14 242.34769Q145.89 243.45706 145.17125 244.03519Q144.4525 244.59769 143.24937 244.59769Q141.89 244.59769 141.0775 243.73831Q140.265 242.87894 140.265 241.34769Q140.265 239.81644 141.0775 238.95706Q141.89 238.09769 143.28062 238.09769Q144.42125 238.09769 145.09312 238.58206Q145.765 239.06644 146.04625 240.06644ZM151.23375 242.47269L152.87437 242.75394Q152.56187 243.66019 151.87437 244.12894Q151.18687 244.59769 150.17125 244.59769Q148.54625 244.59769 147.765 243.53519Q147.14 242.69144 147.14 241.39456Q147.14 239.84769 147.9525 238.97269Q148.765 238.09769 149.99937 238.09769Q151.39 238.09769 152.18687 239.01956Q152.99937 239.92581 152.9525 241.81644L148.8275 241.81644Q148.85875 242.55081 149.23375 242.95706Q149.60875 243.36331 150.18687 243.36331Q150.56187 243.36331 150.8275 243.16019Q151.09312 242.94144 151.23375 242.47269ZM151.3275 240.81644Q151.31187 240.09769 150.9525 239.72269Q150.60875 239.34769 150.09312 239.34769Q149.56187 239.34769 149.2025 239.73831Q148.85875 240.14456 148.85875 240.81644L151.3275 240.81644ZM154.5775 238.23831L156.10875 238.23831L156.10875 239.14456Q156.42125 238.67581 156.92125 238.39456Q157.43687 238.09769 158.06187 238.09769Q159.14 238.09769 159.89 238.94144Q160.65562 239.78519 160.65562 241.31644Q160.65562 242.86331 159.89 243.73831Q159.12437 244.59769 158.04625 244.59769Q157.53062 244.59769 157.10875 244.39456Q156.68687 244.19144 156.23375 243.69144L156.23375 246.83206L154.5775 246.83206L154.5775 238.23831ZM156.2025 241.23831Q156.2025 242.28519 156.62437 242.78519Q157.04625 243.28519 157.64 243.28519Q158.21812 243.28519 158.59312 242.83206Q158.96812 242.36331 158.96812 241.31644Q158.96812 240.34769 158.5775 239.87894Q158.18687 239.39456 157.60875 239.39456Q156.99937 239.39456 156.59312 239.86331Q156.2025 240.33206 156.2025 241.23831ZM164.48375 238.23831L164.48375 239.55081L163.35875 239.55081L163.35875 242.05081Q163.35875 242.81644 163.39 242.94144Q163.42125 243.06644 163.53062 243.16019Q163.65562 243.23831 163.81187 243.23831Q164.04625 243.23831 164.46812 243.06644L164.60875 244.34769Q164.04625 244.59769 163.31187 244.59769Q162.87437 244.59769 162.515 244.45706Q162.15562 244.30081 161.98375 244.06644Q161.8275 243.81644 161.74937 243.42581Q161.7025 243.12894 161.7025 242.25394L161.7025 239.55081L160.9525 239.55081L160.9525 238.23831L161.7025 238.23831L161.7025 237.00394L163.35875 236.03519L163.35875 238.23831L164.48375 238.23831Z" fill-rule="nonzero"/><path fill="#000000" d="M167.765 294.23828Q167.765 292.70703 168.0775 291.78516Q168.39 290.84766 168.99937 290.34766Q169.62437 289.84766 170.56187 289.84766Q171.24937 289.84766 171.765 290.1289Q172.29625 290.41016 172.64 290.9414Q172.98375 291.45703 173.17125 292.20703Q173.35875 292.95703 173.35875 294.23828Q173.35875 295.7539 173.04625 296.67578Q172.74937 297.59766 172.12437 298.11328Q171.515 298.61328 170.56187 298.61328Q169.3275 298.61328 168.60875 297.72266Q167.765 296.66016 167.765 294.23828ZM168.84312 294.23828Q168.84312 296.34766 169.34312 297.05078Q169.84312 297.7539 170.56187 297.7539Q171.29625 297.7539 171.78062 297.05078Q172.28062 296.34766 172.28062 294.23828Q172.28062 292.11328 171.78062 291.42578Q171.29625 290.72266 170.54625 290.72266Q169.8275 290.72266 169.39 291.33203Q168.84312 292.11328 168.84312 294.23828Z" fill-rule="nonzero"/><path fill="#000000" d="M237.56001 297.45703L237.56001 298.47266L231.87251 298.47266Q231.87251 298.09766 231.99751 297.73828Q232.21626 297.16016 232.68501 296.59766Q233.16939 296.03516 234.07564 295.30078Q235.48189 294.14453 235.96626 293.47266Q236.46626 292.80078 236.46626 292.20703Q236.46626 291.58203 236.01314 291.16016Q235.56001 290.72266 234.84126 290.72266Q234.07564 290.72266 233.62251 291.17578Q233.16939 291.6289 233.15376 292.4414L232.07564 292.33203Q232.18501 291.11328 232.90376 290.48828Q233.63814 289.84766 234.87251 289.84766Q236.10689 289.84766 236.82564 290.53516Q237.54439 291.22266 237.54439 292.23828Q237.54439 292.7539 237.32564 293.2539Q237.12251 293.73828 236.62251 294.30078Q236.13814 294.84766 235.01314 295.80078Q234.06001 296.59766 233.77876 296.89453Q233.51314 297.17578 233.34126 297.45703L237.56001 297.45703Z" fill-rule="nonzero"/><path fill="#000000" d="M299.6363 298.47266L299.6363 296.41016L295.91754 296.41016L295.91754 295.4414L299.83942 289.8789L300.6988 289.8789L300.6988 295.4414L301.85504 295.4414L301.85504 296.41016L300.6988 296.41016L300.6988 298.47266L299.6363 298.47266ZM299.6363 295.4414L299.6363 291.58203L296.9488 295.4414L299.6363 295.4414Z" fill-rule="nonzero"/><path fill="#000000" d="M365.97818 291.98828L364.9313 292.0664Q364.79068 291.4414 364.54068 291.16016Q364.10318 290.70703 363.47818 290.70703Q362.97818 290.70703 362.58755 290.98828Q362.10318 291.36328 361.8063 292.0664Q361.52505 292.7539 361.50943 294.03516Q361.88443 293.45703 362.4313 293.17578Q362.9938 292.89453 363.60318 292.89453Q364.65005 292.89453 365.38443 293.67578Q366.13443 294.45703 366.13443 295.67578Q366.13443 296.48828 365.77505 297.1914Q365.4313 297.8789 364.82193 298.2539Q364.21255 298.61328 363.44693 298.61328Q362.1188 298.61328 361.29068 297.64453Q360.46255 296.67578 360.46255 294.45703Q360.46255 291.95703 361.38443 290.83203Q362.1813 289.84766 363.54068 289.84766Q364.5563 289.84766 365.19693 290.42578Q365.85318 290.98828 365.97818 291.98828ZM361.6813 295.6914Q361.6813 296.23828 361.90005 296.73828Q362.13443 297.22266 362.54068 297.48828Q362.96255 297.7539 363.4313 297.7539Q364.08755 297.7539 364.57193 297.22266Q365.0563 296.67578 365.0563 295.7539Q365.0563 294.86328 364.57193 294.34766Q364.10318 293.83203 363.38443 293.83203Q362.66568 293.83203 362.16568 294.34766Q361.6813 294.86328 361.6813 295.6914Z" fill-rule="nonzero"/><path fill="#000000" d="M426.38257 293.8164Q425.72632 293.5664 425.3982 293.1289Q425.0857 292.67578 425.0857 292.0664Q425.0857 291.1289 425.75757 290.48828Q426.44507 289.84766 427.55444 289.84766Q428.67944 289.84766 429.36694 290.5039Q430.05444 291.16016 430.05444 292.09766Q430.05444 292.6914 429.74194 293.1289Q429.42944 293.5664 428.78882 293.8164Q429.5857 294.0664 429.99194 294.64453Q430.3982 295.22266 430.3982 296.01953Q430.3982 297.11328 429.61694 297.86328Q428.85132 298.61328 427.57007 298.61328Q426.30444 298.61328 425.5232 297.86328Q424.74194 297.11328 424.74194 295.98828Q424.74194 295.14453 425.16382 294.58203Q425.60132 294.01953 426.38257 293.8164ZM426.16382 292.01953Q426.16382 292.6289 426.55444 293.01953Q426.9607 293.41016 427.5857 293.41016Q428.19507 293.41016 428.5857 293.03516Q428.97632 292.64453 428.97632 292.08203Q428.97632 291.5039 428.57007 291.11328Q428.16382 290.70703 427.57007 290.70703Q426.9607 290.70703 426.55444 291.09766Q426.16382 291.48828 426.16382 292.01953ZM425.8357 295.98828Q425.8357 296.4414 426.03882 296.86328Q426.25757 297.28516 426.67944 297.51953Q427.10132 297.7539 427.5857 297.7539Q428.3357 297.7539 428.82007 297.26953Q429.32007 296.78516 429.32007 296.03516Q429.32007 295.26953 428.82007 294.76953Q428.32007 294.26953 427.55444 294.26953Q426.80444 294.26953 426.32007 294.76953Q425.8357 295.2539 425.8357 295.98828Z" fill-rule="nonzero"/><path fill="#000000" d="M489.47446 298.47266L488.42758 298.47266L488.42758 291.7539Q488.03696 292.11328 487.41196 292.48828Q486.80258 292.84766 486.3182 293.01953L486.3182 292.0039Q487.1932 291.58203 487.84946 291.0039Q488.52133 290.41016 488.80258 289.84766L489.47446 289.84766L489.47446 298.47266ZM492.5057 294.23828Q492.5057 292.70703 492.8182 291.78516Q493.1307 290.84766 493.74008 290.34766Q494.36508 289.84766 495.30258 289.84766Q495.99008 289.84766 496.5057 290.1289Q497.03696 290.41016 497.3807 290.9414Q497.72446 291.45703 497.91196 292.20703Q498.09946 292.95703 498.09946 294.23828Q498.09946 295.7539 497.78696 296.67578Q497.49008 297.59766 496.86508 298.11328Q496.2557 298.61328 495.30258 298.61328Q494.0682 298.61328 493.34946 297.72266Q492.5057 296.66016 492.5057 294.23828ZM493.58383 294.23828Q493.58383 296.34766 494.08383 297.05078Q494.58383 297.7539 495.30258 297.7539Q496.03696 297.7539 496.52133 297.05078Q497.02133 296.34766 497.02133 294.23828Q497.02133 292.11328 496.52133 291.42578Q496.03696 290.72266 495.28696 290.72266Q494.5682 290.72266 494.1307 291.33203Q493.58383 292.11328 493.58383 294.23828Z" fill-rule="nonzero"/><path fill="#000000" d="M553.7226 298.47266L552.6757 298.47266L552.6757 291.7539Q552.2851 292.11328 551.6601 292.48828Q551.0507 292.84766 550.56635 293.01953L550.56635 292.0039Q551.44135 291.58203 552.0976 291.0039Q552.7695 290.41016 553.0507 289.84766L553.7226 289.84766L553.7226 298.47266ZM562.3007 297.45703L562.3007 298.47266L556.6132 298.47266Q556.6132 298.09766 556.7382 297.73828Q556.957 297.16016 557.4257 296.59766Q557.9101 296.03516 558.81635 295.30078Q560.2226 294.14453 560.707 293.47266Q561.207 292.80078 561.207 292.20703Q561.207 291.58203 560.75385 291.16016Q560.3007 290.72266 559.582 290.72266Q558.81635 290.72266 558.3632 291.17578Q557.9101 291.6289 557.8945 292.4414L556.81635 292.33203Q556.9257 291.11328 557.6445 290.48828Q558.37885 289.84766 559.6132 289.84766Q560.8476 289.84766 561.56635 290.53516Q562.2851 291.22266 562.2851 292.23828Q562.2851 292.7539 562.06635 293.2539Q561.8632 293.73828 561.3632 294.30078Q560.87885 294.84766 559.75385 295.80078Q558.8007 296.59766 558.5195 296.89453Q558.25385 297.17578 558.082 297.45703L562.3007 297.45703Z" fill-rule="nonzero"/></svg>